<svg width="30" height="30" viewBox="0 0 30 30" fill="none" xmlns="http://www.w3.org/2000/svg">
<rect width="30" height="30" rx="15" fill="black"/>
<path d="M20.7497 16.7333L24.9169 10.5732C24.9451 10.5281 24.9613 10.4766 24.964 10.4235C24.9666 10.3705 24.9558 10.3176 24.9323 10.2699C24.9089 10.2222 24.8737 10.1813 24.83 10.151C24.7863 10.1207 24.7357 10.1021 24.6828 10.0969L16.4577 9.22248L20.7497 16.7333Z" fill="url(#paint0_linear_108_2)"/>
<path d="M24.6677 12.7748L21.7256 17.6076L24.7535 19.419C24.7772 19.4346 24.8047 19.4434 24.8331 19.4446C24.8614 19.4457 24.8895 19.4391 24.9144 19.4255C24.9393 19.4118 24.96 19.3916 24.9742 19.3671C24.9885 19.3426 24.9958 19.3146 24.9954 19.2862V12.8529C25.0005 12.8313 25.0014 12.809 24.9979 12.7871C24.9944 12.7653 24.9866 12.7443 24.975 12.7255C24.9634 12.7066 24.9482 12.6903 24.9303 12.6773C24.9124 12.6643 24.8921 12.655 24.8706 12.6499C24.849 12.6447 24.8267 12.6439 24.8049 12.6474C24.783 12.6509 24.7621 12.6587 24.7433 12.6703C24.7244 12.6819 24.708 12.6971 24.6951 12.715C24.6821 12.7329 24.6728 12.7532 24.6677 12.7748Z" fill="white"/>
<path d="M24.2454 8.49621L16.5587 5.02969C16.5107 5.0071 16.4577 4.99715 16.4047 5.00078C16.3517 5.0044 16.3006 5.02148 16.256 5.0504C16.2115 5.07932 16.1751 5.11912 16.1502 5.16604C16.1254 5.21297 16.1129 5.26546 16.1139 5.31856V7.91065L24.1518 8.7929C24.1899 8.80139 24.2298 8.79528 24.2637 8.77577C24.2975 8.75626 24.3228 8.72476 24.3346 8.6875C24.3463 8.65024 24.3437 8.60993 24.3272 8.57451C24.3107 8.5391 24.2815 8.51116 24.2454 8.49621Z" fill="white"/>
<path d="M21.0304 18.6851L17.9089 24.3299C17.8747 24.3896 17.8607 24.4588 17.8689 24.527C17.877 24.5953 17.907 24.6592 17.9543 24.7091C18.0016 24.7591 18.0637 24.7924 18.1314 24.8043C18.1991 24.8161 18.2689 24.8059 18.3303 24.775L24.2924 20.8712C24.3149 20.8572 24.3336 20.8377 24.3465 20.8144C24.3594 20.7912 24.3662 20.7651 24.3662 20.7385C24.3662 20.7119 24.3594 20.6858 24.3465 20.6625C24.3336 20.6393 24.3149 20.6198 24.2924 20.6058L21.0304 18.6851Z" fill="white"/>
<path d="M15.4829 18.24H11.1674L14.9444 24.892C15.001 24.984 15.0802 25.06 15.1744 25.1127C15.2687 25.1654 15.3749 25.1931 15.4829 25.1931C15.5909 25.1931 15.697 25.1654 15.7913 25.1127C15.8856 25.06 15.9648 24.984 16.0213 24.892L19.7983 18.24H15.4829Z" fill="url(#paint1_linear_108_2)"/>
<path d="M6.24212 19.419L9.23877 17.5998L6.29675 12.7748C6.27699 12.7473 6.24922 12.7267 6.21726 12.7156C6.18529 12.7046 6.1507 12.7037 6.11822 12.7131C6.08574 12.7225 6.05696 12.7418 6.03583 12.7682C6.0147 12.7946 6.00226 12.8269 6.00021 12.8607V19.2862C5.99978 19.3146 6.0071 19.3426 6.02138 19.3671C6.03565 19.3916 6.05634 19.4118 6.08122 19.4255C6.1061 19.4391 6.13422 19.4457 6.16258 19.4446C6.19093 19.4434 6.21843 19.4346 6.24212 19.419Z" fill="white"/>
<path d="M9.93391 18.6852L6.71096 20.5825C6.68837 20.5965 6.66974 20.616 6.65681 20.6392C6.64389 20.6625 6.6371 20.6886 6.6371 20.7152C6.6371 20.7418 6.64389 20.7679 6.65681 20.7911C6.66974 20.8144 6.68837 20.8339 6.71096 20.8479L12.673 24.7516C12.7345 24.7825 12.8042 24.7928 12.8719 24.781C12.9396 24.7691 13.0018 24.7357 13.049 24.6858C13.0963 24.6359 13.1263 24.572 13.1344 24.5037C13.1426 24.4354 13.1286 24.3663 13.0944 24.3066L9.97293 18.6618L9.93391 18.6852Z" fill="white"/>
<path d="M6.81216 8.7929L14.85 7.91065V5.31856C14.8511 5.26546 14.8386 5.21297 14.8137 5.16604C14.7889 5.11912 14.7524 5.07932 14.7079 5.0504C14.6634 5.02148 14.6122 5.0044 14.5592 5.00078C14.5063 4.99715 14.4533 5.0071 14.4052 5.02969L6.71852 8.49621C6.68244 8.51116 6.65327 8.5391 6.63677 8.57451C6.62027 8.60993 6.61764 8.65024 6.6294 8.6875C6.64116 8.72476 6.66645 8.75626 6.70029 8.77577C6.73413 8.79528 6.77404 8.80139 6.81216 8.7929Z" fill="white"/>
<path d="M10.2148 16.7333L14.5068 9.22248L6.28167 10.0969C6.22881 10.1021 6.17816 10.1207 6.1345 10.151C6.09084 10.1813 6.05563 10.2222 6.03219 10.2699C6.00875 10.3176 5.99785 10.3705 6.00054 10.4235C6.00323 10.4766 6.01942 10.5281 6.04756 10.5732L10.2148 16.7333Z" fill="url(#paint2_linear_108_2)"/>
<defs>
<linearGradient id="paint0_linear_108_2" x1="20.711" y1="16.7333" x2="20.711" y2="9.22248" gradientUnits="userSpaceOnUse">
<stop stop-color="#AFB0B1"/>
<stop offset="1" stop-color="#9B9C9E"/>
</linearGradient>
<linearGradient id="paint1_linear_108_2" x1="15.4829" y1="25.1931" x2="15.4829" y2="18.24" gradientUnits="userSpaceOnUse">
<stop stop-color="#AFB0B1"/>
<stop offset="1" stop-color="#9B9C9E"/>
</linearGradient>
<linearGradient id="paint2_linear_108_2" x1="10.2535" y1="16.7333" x2="10.2535" y2="9.22248" gradientUnits="userSpaceOnUse">
<stop stop-color="#AFB0B1"/>
<stop offset="1" stop-color="#9B9C9E"/>
</linearGradient>
</defs>
</svg>
