<svg width="30" height="30" viewBox="0 0 30 30" fill="none" xmlns="http://www.w3.org/2000/svg">
<g clip-path="url(#clip0_573_8)">
<path d="M15.0078 30C23.2921 30 30.0078 23.2843 30.0078 15C30.0078 6.71567 23.2921 0 15.0078 0C6.72379 0 0.00781178 6.716 0.00781178 15C0.00781178 23.2843 6.72379 30 15.0078 30ZM8.88115 15.04C9.39979 14.5213 10.2481 14.5213 10.7668 15.04L13.6745 17.9477L13.6745 8.83332C13.6745 8.1 14.2745 7.5 15.0078 7.5C15.7411 7.5 16.3411 8.1 16.3411 8.83332V17.9477L19.2488 15.04C19.7675 14.5213 20.6158 14.5213 21.1345 15.04C21.6532 15.5587 21.6532 16.407 21.1345 16.9256L15.9665 22.0937C15.9612 22.099 15.9578 22.1057 15.9522 22.111C15.7662 22.297 15.5375 22.4134 15.2971 22.466C15.2892 22.4677 15.2818 22.4713 15.2738 22.473C15.1865 22.4903 15.0974 22.5 15.0088 22.5H15.0074C14.9185 22.5 14.8298 22.4906 14.7425 22.473C14.7344 22.4713 14.7271 22.468 14.7192 22.466C14.4788 22.4134 14.2501 22.297 14.0641 22.111C14.0588 22.1057 14.0551 22.099 14.0498 22.0937L8.88115 16.9256C8.36245 16.407 8.36245 15.5587 8.88115 15.04Z" fill="white"/>
</g>
<defs>
<clipPath id="clip0_573_8">
<rect width="30" height="30" fill="white"/>
</clipPath>
</defs>
</svg>
