<svg width="30" height="30" viewBox="0 0 30 30" fill="none" xmlns="http://www.w3.org/2000/svg">
<g clip-path="url(#clip0_618_8)">
<path d="M30 15C30 6.71567 23.2843 0 15 0C6.71567 0 0 6.71567 0 15C0 23.284 6.716 30 15 30C23.2843 30 30 23.284 30 15ZM15.04 21.1267C14.5213 20.608 14.5213 19.7597 15.04 19.241L17.9477 16.3333H8.83332C8.1 16.3333 7.5 15.7333 7.5 15C7.5 14.2667 8.1 13.6667 8.83332 13.6667H17.9477L15.04 10.759C14.5213 10.2403 14.5213 9.39198 15.04 8.87334C15.5587 8.35463 16.407 8.35463 16.9256 8.87334L22.0937 14.0413C22.099 14.0467 22.1057 14.05 22.111 14.0557C22.297 14.2417 22.4134 14.4703 22.466 14.7107C22.4677 14.7187 22.4713 14.726 22.473 14.734C22.4903 14.8213 22.5 14.9104 22.5 14.999V15.0004C22.5 15.0893 22.4906 15.178 22.473 15.2653C22.4713 15.2734 22.468 15.2807 22.466 15.2887C22.4134 15.529 22.297 15.7577 22.111 15.9437C22.1057 15.949 22.099 15.9527 22.0937 15.958L16.9256 21.1267C16.407 21.6454 15.5587 21.6454 15.04 21.1267Z" fill="black"/>
</g>
<defs>
<clipPath id="clip0_618_8">
<rect width="30" height="30" fill="white"/>
</clipPath>
</defs>
</svg>
