    <svg width="30" height="30" viewBox="0 0 41 41" fill="none" xmlns="http://www.w3.org/2000/svg">
                    <path d="M41 20.5C41 9.17808 31.8219 0 20.5 0C9.17808 0 0 9.17808 0 20.5C0 31.8215 9.17853 41 20.5 41C31.8219 41 41 31.8215 41 20.5ZM20.5547 28.8731C19.8458 28.1643 19.8458 27.0049 20.5547 26.296L24.5285 22.3222H12.0722C11.07 22.3222 10.25 21.5022 10.25 20.5C10.25 19.4978 11.07 18.6778 12.0722 18.6778H24.5285L20.5547 14.704C19.8458 13.9951 19.8458 12.8357 20.5547 12.1269C21.2635 11.418 22.4229 11.418 23.1317 12.1269L30.1947 19.1898C30.202 19.1971 30.2111 19.2017 30.2184 19.2094C30.4726 19.4636 30.6316 19.7761 30.7035 20.1046C30.7058 20.1155 30.7108 20.1255 30.7131 20.1365C30.7368 20.2558 30.75 20.3775 30.75 20.4986V20.4995V20.5005C30.75 20.6221 30.7372 20.7433 30.7131 20.8626C30.7108 20.8736 30.7063 20.8836 30.7035 20.8945C30.6316 21.223 30.4726 21.5355 30.2184 21.7897C30.2111 21.797 30.202 21.802 30.1947 21.8093L23.1317 28.8731C22.4229 29.582 21.2635 29.582 20.5547 28.8731Z" fill="white"/>
                </svg>