<svg width="194" height="58" viewBox="0 0 194 58" fill="none" xmlns="http://www.w3.org/2000/svg">
<path d="M165.384 21.7738C165.538 21.7738 165.692 21.7738 165.846 21.9277C166 22.0816 166 22.2355 166 22.3894V25.7754C166 25.9293 166 26.0832 165.846 26.2371C165.692 26.391 165.538 26.391 165.384 26.391H162.46V39.935C162.46 40.089 162.46 40.2429 162.306 40.3968C162.152 40.5507 161.998 40.5507 161.844 40.5507H157.381C157.227 40.5507 157.073 40.5507 156.919 40.3968C156.765 40.2429 156.765 40.089 156.765 39.935V26.2371H153.841C153.687 26.2371 153.533 26.2371 153.379 26.0832C153.225 25.9293 153.225 25.7754 153.225 25.6215V22.2355C153.225 22.0816 153.225 21.9277 153.379 21.7738C153.533 21.7738 153.687 21.7738 153.841 21.7738H156.765V17.0026C156.765 16.8487 156.765 16.6948 156.919 16.5409C157.073 16.387 157.227 16.387 157.381 16.387H161.844C161.998 16.387 162.152 16.387 162.306 16.5409C162.46 16.6948 162.46 16.8487 162.46 17.0026V21.7738H165.384Z" fill="white"/>
<path d="M152.61 30.8541C152.61 31.6236 152.456 32.2393 152.302 32.701C152.149 33.0088 151.841 33.1627 151.225 33.1627H140.144C140.451 34.2401 140.913 35.0096 141.683 35.4713C142.452 35.9331 143.53 36.2409 144.761 36.2409C145.377 36.2409 145.992 36.2409 146.454 36.087C147.07 35.9331 147.685 35.6252 148.301 35.1635C148.455 35.0096 148.609 35.0096 148.763 35.0096C148.916 35.0096 149.07 35.0096 149.224 35.1635L151.225 37.0104C151.379 37.1643 151.379 37.1643 151.379 37.3182C151.379 37.4722 151.379 37.6261 151.225 37.78C150.302 38.7034 149.378 39.3191 148.147 39.9347C147.07 40.3964 145.838 40.7042 144.453 40.7042C142.606 40.7042 140.913 40.2425 139.374 39.473C137.989 38.5495 136.758 37.4722 135.988 35.9331C135.219 34.5479 134.757 32.8549 134.757 31.1619C134.757 29.4689 135.219 27.7759 135.988 26.3907C136.758 25.0055 137.989 23.7743 139.374 23.0047C140.759 22.0813 142.298 21.7734 144.145 21.7734C145.838 21.7734 147.377 22.2352 148.609 23.0047C149.994 23.7743 150.917 25.0055 151.687 26.3907C152.302 27.622 152.61 29.1611 152.61 30.8541ZM143.991 26.3907C143.068 26.3907 142.144 26.6985 141.529 27.1603C140.759 27.622 140.451 28.3915 140.144 29.4689H147.685C147.531 28.3915 147.07 27.622 146.454 27.1603C145.684 26.6985 144.915 26.3907 143.991 26.3907Z" fill="white"/>
<path d="M132.294 22.0814C132.447 22.0814 132.601 22.0814 132.755 22.2353C132.909 22.3892 132.909 22.5431 132.909 22.697V40.3965C132.909 42.2434 132.447 43.7825 131.37 44.8599C130.447 46.0912 129.215 46.8607 127.676 47.3224C126.137 47.6303 124.752 47.9381 123.059 47.9381C121.52 47.9381 119.981 47.7842 118.596 47.3224C117.21 46.8607 115.979 46.2451 115.056 45.6294C114.902 45.4755 114.902 45.3216 114.902 45.1677C114.902 45.0138 114.902 44.8599 114.902 44.8599L116.287 42.2434C116.441 42.0895 116.595 41.9356 116.749 41.9356C116.903 41.9356 116.903 41.9356 117.057 41.9356C117.826 42.3973 118.75 42.8591 119.673 43.013C120.596 43.1669 121.52 43.3208 122.751 43.3208C123.982 43.3208 125.214 43.013 126.137 42.5513C127.215 42.0895 127.676 41.1661 127.676 39.9348V38.2418C126.291 39.9348 124.444 40.7043 122.289 40.7043C120.596 40.7043 119.057 40.2426 117.826 39.4731C116.441 38.5496 115.364 37.4723 114.594 35.9332C113.824 34.548 113.517 32.855 113.517 31.162C113.517 29.469 113.824 27.9299 114.594 26.3908C115.517 24.8517 116.441 23.7744 117.826 22.8509C119.211 21.9274 120.596 21.6196 122.289 21.6196C124.29 21.6196 125.983 22.3892 127.522 24.0822L127.676 22.5431C127.676 22.2353 127.984 21.9274 128.292 21.9274H132.294V22.0814ZM123.059 35.4714C124.136 35.4714 125.214 35.0097 125.983 34.0863C126.753 33.1628 127.215 32.2394 127.215 31.0081C127.215 29.7768 126.753 28.8534 125.983 27.9299C125.214 27.0064 124.29 26.5447 123.059 26.5447C121.828 26.5447 120.904 27.0064 120.135 27.776C119.365 28.5455 118.903 29.6229 118.903 30.8542C118.903 32.0854 119.211 33.1628 119.981 33.9324C120.904 35.0097 121.828 35.4714 123.059 35.4714Z" fill="white"/>
<path d="M111.67 21.7738C111.824 21.7738 111.977 21.7738 112.131 21.9277C112.285 22.0816 112.285 22.2355 112.285 22.3894V25.7754C112.285 25.9293 112.285 26.0832 112.131 26.2371C111.977 26.391 111.824 26.391 111.67 26.391H108.745V39.935C108.745 40.089 108.745 40.2429 108.591 40.3968C108.438 40.5507 108.284 40.5507 108.13 40.5507H103.666C103.513 40.5507 103.359 40.5507 103.205 40.3968C103.205 40.2429 103.205 40.089 103.205 39.935V26.2371H100.127C99.9726 26.2371 99.8187 26.2371 99.6648 26.0832C99.5109 25.9293 99.5109 25.7754 99.5109 25.6215V22.2355C99.5109 22.0816 99.5109 21.9277 99.6648 21.7738C99.8187 21.7738 99.9726 21.7738 100.127 21.7738H103.205V17.0026C103.205 16.8487 103.205 16.6948 103.359 16.5409C103.512 16.387 103.666 16.387 103.82 16.387H108.284C108.438 16.387 108.591 16.387 108.745 16.5409C108.899 16.6948 108.899 16.8487 108.899 17.0026V21.7738H111.67Z" fill="white"/>
<path d="M94.7387 20.2345C93.9692 20.2345 93.1996 19.9267 92.584 19.311C92.1223 18.6954 91.8145 18.0798 91.8145 17.1563C91.8145 16.2329 92.1223 15.6172 92.7379 15.0016C93.1996 14.3859 93.9692 14.0781 94.7387 14.0781C95.5083 14.0781 96.2778 14.3859 96.8935 15.0016C97.5091 15.6172 97.8169 16.3868 97.8169 17.1563C97.8169 17.9259 97.5091 18.6954 96.8935 19.311C96.2778 19.9267 95.6622 20.2345 94.7387 20.2345ZM91.9684 22.2353C91.9684 22.0814 91.9684 21.9275 92.1223 21.7736C92.2762 21.7736 92.4301 21.7736 92.584 21.7736H97.0474C97.2013 21.7736 97.3552 21.7736 97.5091 21.9275C97.663 22.0814 97.663 22.2353 97.663 22.3892V39.9348C97.663 40.0887 97.663 40.2427 97.5091 40.3966C97.3552 40.5505 97.2013 40.5505 97.0474 40.5505H92.584C92.4301 40.5505 92.2762 40.5505 92.1223 40.3966C91.9684 40.2427 91.9684 40.0887 91.9684 39.9348V22.2353Z" fill="white"/>
<path d="M84.8898 26.3911C86.275 26.6989 87.5063 27.4685 88.4297 28.6997C89.5071 29.931 89.9688 31.3162 89.9688 32.8553C89.9688 35.3178 89.1993 37.3186 87.5063 38.5499C85.9672 39.7812 83.5047 40.3968 80.2726 40.3968H71.1919C71.038 40.3968 70.8841 40.3968 70.7302 40.2429C70.5763 40.089 70.5763 39.9351 70.5763 39.7812V14.694C70.5763 14.5401 70.5763 14.3862 70.7302 14.2323C70.7302 14.2323 70.8841 14.0784 71.038 14.0784H80.1187C81.8117 14.0784 83.1968 14.3862 84.2742 15.0018C85.5055 15.6175 86.4289 16.387 86.8907 17.4644C87.5063 18.5417 87.8141 19.6191 87.8141 21.0043C87.8141 22.2355 87.5063 23.4668 86.8907 24.3903C86.4289 25.3137 85.6594 26.0833 84.8898 26.3911ZM82.5812 21.7738C82.5812 20.2347 81.6577 19.3113 79.6569 19.3113H76.2709V24.3903H79.6569C80.5804 24.3903 81.3499 24.2364 81.8117 23.7746C82.2734 23.3129 82.5812 22.5434 82.5812 21.7738ZM80.4265 35.3178C81.5038 35.3178 82.4273 35.01 83.1968 34.5483C83.8125 34.0865 84.2742 33.1631 84.2742 32.2396C84.2742 31.1623 83.9664 30.3927 83.1968 29.931C82.5812 29.4693 81.6577 29.1615 80.4265 29.1615H76.2709V35.3178H80.4265Z" fill="white"/>
<path d="M38.7172 11.7695C39.179 11.3078 39.7946 11 40.4102 11H44.8736C45.4892 11 45.797 11.6156 45.3353 12.0774L36.5625 21.6197H41.4876L46.4127 26.8526H36.5625L46.4127 37.4724H40.4102C39.7946 37.4724 39.025 37.1645 38.5633 36.7028L28.5592 25.9292C27.7897 25.0057 27.7897 23.4666 28.7131 22.5432L38.7172 11.7695Z" fill="#1EA2B4"/>
<path d="M52.4151 47.1683C51.9533 47.63 51.3377 47.9378 50.5681 47.9378H46.1048C45.4891 47.9378 45.1813 47.3222 45.6431 46.8604L54.5698 37.3181H49.6447L44.7196 32.0852H54.5698L44.7196 21.4655H50.7221C51.3377 21.4655 52.1072 21.7733 52.569 22.235L62.5731 33.0086C63.4965 33.9321 63.4965 35.4712 62.5731 36.3946L52.4151 47.1683Z" fill="#1EA2B4"/>
</svg>
