<svg width="194" height="58" viewBox="0 0 194 58" fill="none" xmlns="http://www.w3.org/2000/svg">
<path d="M66.5877 28.436H66.0877V28.936V36.8619V37.3619H66.5877H70.917C72.8305 37.3619 74.4092 37 75.5469 36.2117C76.6899 35.4714 77.3463 34.201 77.3226 32.8388C77.3213 31.3697 76.6822 30.2293 75.4326 29.4859C74.2219 28.7656 72.4716 28.436 70.2509 28.436H66.5877ZM66.5846 19.0003L66.0877 19.0033V19.5002V26.6048V27.1048H66.5877H69.8513C71.6578 27.1048 73.1228 26.7635 74.2348 26.0004C75.3553 25.2835 76.0158 24.0121 75.9683 22.6877C75.9657 21.4636 75.4516 20.4965 74.4302 19.8634C73.445 19.2528 72.0298 18.978 70.2509 18.978L70.2479 18.9781L66.5846 19.0003ZM71.3166 38.7153H63.8906V17.6691H71.139C73.4323 17.6691 75.1875 18.1242 76.4534 18.9817C77.7102 19.8331 78.2986 20.9074 78.2986 22.2088H78.2985L78.2987 22.2181C78.3185 23.2885 77.9217 24.3401 77.1882 25.133L77.1882 25.133L77.1845 25.137C76.4184 25.9838 75.3772 26.5857 73.9825 26.9661L73.614 27.0665V27.4484V27.515V27.9692L74.0661 28.0127C75.8362 28.1834 77.1921 28.7111 78.1802 29.5782L78.1801 29.5783L78.1891 29.5858C79.1577 30.3963 79.6928 31.6027 79.6531 32.8722L79.6529 32.88V32.8878C79.6529 34.5937 78.9043 35.9586 77.3555 37.0531C75.7952 38.1557 73.7946 38.7153 71.3166 38.7153Z" fill="#DADEEF" stroke="white"/>
<path d="M85.3017 18.9566L85.2805 18.9557L85.2592 18.9567C84.8761 18.9733 84.4804 18.839 84.167 18.5953L84.1578 18.5881L84.1484 18.5815C83.9043 18.4092 83.7689 18.1254 83.7821 17.8604L83.7828 17.8479V17.8355C83.7828 17.5225 83.934 17.2283 84.16 17.0588L84.1601 17.0588L84.167 17.0534C84.4804 16.8097 84.8761 16.6754 85.2592 16.6921L85.2805 16.693L85.3017 16.6921C85.7103 16.6751 86.1059 16.8115 86.4171 17.0534L86.4238 17.0587L86.4308 17.0637C86.8471 17.3652 86.9406 17.9451 86.6454 18.3731L86.6454 18.373L86.641 18.3796C86.5888 18.4579 86.525 18.5217 86.4467 18.5739L86.4245 18.5887L86.4039 18.6058C86.1096 18.8511 85.7241 18.9742 85.3017 18.9566ZM86.3128 23.9747V38.6935H84.2046V23.9747H86.3128Z" fill="#DADEEF" stroke="white"/>
<path d="M93.0412 19.9964L95.1494 19.4392V23.4523V23.9523H95.6494H100.034V25.1058H95.6494H95.1494V25.6058V34.4643C95.1494 35.5604 95.3796 36.4712 95.9534 37.0737C96.541 37.6907 97.4477 37.8939 98.5057 37.8949C99.0263 37.9102 99.55 37.8307 100.042 37.6539L100.053 38.7011C99.4414 38.9151 98.6425 39.0263 97.6476 39.0263C96.0142 39.0263 94.8798 38.6568 94.1555 38.0033C93.441 37.3586 93.0412 36.3603 93.0412 34.9083V25.6058V25.1058H92.5412H89.7109V23.9523H92.5412H93.0412V23.4523V19.9964Z" fill="#DADEEF" stroke="white"/>
<mask id="path-5-inside-1_62_1581" fill="white">
<path d="M128.818 39.1933H125.91V25.6059C125.932 24.296 125.999 22.9639 126.154 21.654H126.087C125.91 22.3201 125.643 22.9861 125.333 23.6078L116.785 39.1711H115.342L106.816 23.7188C106.483 23.0527 106.239 22.3645 106.062 21.6318H105.995C106.106 22.9417 106.15 24.2738 106.128 25.6059V39.1711H103.309V18.9232H107.194L114.876 33.0435C115.32 33.8205 115.719 34.642 116.03 35.4857H116.141C116.652 34.3756 117.051 33.5541 117.34 32.9991L125.177 18.9232H128.841V39.1933"/>
</mask>
<path d="M128.818 39.1933H125.91V25.6059C125.932 24.296 125.999 22.9639 126.154 21.654H126.087C125.91 22.3201 125.643 22.9861 125.333 23.6078L116.785 39.1711H115.342L106.816 23.7188C106.483 23.0527 106.239 22.3645 106.062 21.6318H105.995C106.106 22.9417 106.15 24.2738 106.128 25.6059V39.1711H103.309V18.9232H107.194L114.876 33.0435C115.32 33.8205 115.719 34.642 116.03 35.4857H116.141C116.652 34.3756 117.051 33.5541 117.34 32.9991L125.177 18.9232H128.841V39.1933" fill="#DADEEF"/>
<path d="M125.91 39.1933H124.91V40.1933H125.91V39.1933ZM125.91 25.6059L124.91 25.589L124.91 25.5974V25.6059H125.91ZM126.154 21.654L127.147 21.7718L127.28 20.654H126.154V21.654ZM126.087 21.654V20.654H125.319L125.121 21.3964L126.087 21.654ZM125.333 23.6078L126.209 24.0892L126.218 24.0722L126.227 24.055L125.333 23.6078ZM116.785 39.1711V40.1711H117.377L117.662 39.6525L116.785 39.1711ZM115.342 39.1711L114.466 39.6542L114.752 40.1711H115.342V39.1711ZM106.816 23.7188L105.922 24.166L105.931 24.1841L105.941 24.2019L106.816 23.7188ZM106.062 21.6318L107.033 21.3962L106.848 20.6318H106.062V21.6318ZM105.995 21.6318V20.6318H104.907L104.999 21.7163L105.995 21.6318ZM106.128 25.6059L105.128 25.5893L105.128 25.5976V25.6059H106.128ZM106.128 39.1711V40.1711H107.128V39.1711H106.128ZM103.309 39.1711H102.309V40.1711H103.309V39.1711ZM103.309 18.9232V17.9232H102.309V18.9232H103.309ZM107.194 18.9232L108.072 18.4453L107.788 17.9232H107.194V18.9232ZM114.876 33.0435L113.997 33.5214L114.002 33.5305L114.007 33.5396L114.876 33.0435ZM116.03 35.4857L115.092 35.8314L115.333 36.4857H116.03V35.4857ZM116.141 35.4857V36.4857H116.782L117.05 35.9036L116.141 35.4857ZM117.34 32.9991L116.466 32.5126L116.459 32.5251L116.453 32.5377L117.34 32.9991ZM125.177 18.9232V17.9232H124.589L124.304 18.4368L125.177 18.9232ZM128.841 18.9232H129.841V17.9232H128.841V18.9232ZM128.818 38.1933H125.91V40.1933H128.818V38.1933ZM126.91 39.1933V25.6059H124.91V39.1933H126.91ZM126.91 25.6229C126.932 24.334 126.997 23.0376 127.147 21.7718L125.161 21.5362C125 22.8902 124.933 24.2581 124.91 25.589L126.91 25.6229ZM126.154 20.654H126.087V22.654H126.154V20.654ZM125.121 21.3964C124.964 21.9851 124.725 22.5875 124.438 23.1606L126.227 24.055C126.562 23.3848 126.856 22.655 127.054 21.9117L125.121 21.3964ZM124.456 23.1264L115.908 38.6897L117.662 39.6525L126.209 24.0892L124.456 23.1264ZM116.785 38.1711H115.342V40.1711H116.785V38.1711ZM116.217 38.6881L107.692 23.2357L105.941 24.2019L114.466 39.6542L116.217 38.6881ZM107.711 23.2716C107.415 22.679 107.195 22.0626 107.033 21.3962L105.09 21.8674C105.283 22.6664 105.552 23.4265 105.922 24.166L107.711 23.2716ZM106.062 20.6318H105.995V22.6318H106.062V20.6318ZM104.999 21.7163C105.107 22.9919 105.15 24.2903 105.128 25.5893L107.128 25.6226C107.151 24.2574 107.105 22.8915 106.991 21.5474L104.999 21.7163ZM105.128 25.6059V39.1711H107.128V25.6059H105.128ZM106.128 38.1711H103.309V40.1711H106.128V38.1711ZM104.309 39.1711V18.9232H102.309V39.1711H104.309ZM103.309 19.9232H107.194V17.9232H103.309V19.9232ZM106.315 19.4011L113.997 33.5214L115.754 32.5656L108.072 18.4453L106.315 19.4011ZM114.007 33.5396C114.43 34.2787 114.804 35.0497 115.092 35.8314L116.968 35.14C116.635 34.2343 116.21 33.3623 115.744 32.5473L114.007 33.5396ZM116.03 36.4857H116.141V34.4857H116.03V36.4857ZM117.05 35.9036C117.557 34.8012 117.949 33.9957 118.227 33.4604L116.453 32.5377C116.154 33.1126 115.747 33.95 115.233 35.0678L117.05 35.9036ZM118.214 33.4855L126.051 19.4097L124.304 18.4368L116.466 32.5126L118.214 33.4855ZM125.177 19.9232H128.841V17.9232H125.177V19.9232ZM127.841 18.9232V39.1933H129.841V18.9232H127.841Z" fill="white" mask="url(#path-5-inside-1_62_1581)"/>
<path d="M145.126 31.2229V30.6628L144.57 30.7261L139.888 31.2586C139.887 31.2586 139.887 31.2587 139.886 31.2587C138.418 31.417 137.249 31.7156 136.428 32.1882C135.506 32.7193 135.068 33.6411 135.068 34.8195C135.068 35.7375 135.525 36.6019 136.304 37.1176C137.082 37.6836 138.104 37.9393 139.298 37.9393C140.952 37.9393 142.339 37.4639 143.441 36.5097C144.531 35.5916 145.149 34.2295 145.126 32.795V31.2229ZM147.234 28.9583V38.6933H145.126V36.7289V36.2289H144.626H144.559H144.303L144.153 36.4373C142.907 38.1735 141.072 39.0485 138.587 39.0485C136.725 39.0485 135.331 38.6416 134.333 37.9033L134.333 37.9032L134.325 37.8972C133.401 37.2425 132.873 36.1587 132.893 35.0056L132.893 35.0056V34.9971C132.893 33.671 133.366 32.6596 134.307 31.9075C135.271 31.1362 136.768 30.6045 138.866 30.3653L138.866 30.3653L144.683 29.6993L145.126 29.6485V29.2025C145.126 27.7933 144.773 26.6446 143.981 25.8517C143.188 25.0593 142.04 24.7066 140.632 24.7062C138.576 24.6865 136.572 25.2097 134.802 26.2305V24.8726C136.568 24.0264 138.595 23.597 140.896 23.597C143.123 23.597 144.694 24.0745 145.705 24.9417C146.7 25.7963 147.234 27.1025 147.234 28.9583Z" fill="#DADEEF" stroke="white"/>
<path d="M154.649 31.1782V38.693H152.541V23.9743H154.649V26.7157V27.2157H155.149H155.216H155.56L155.683 26.8945C156.047 25.9448 156.693 25.1158 157.543 24.5296L157.543 24.5296L157.545 24.5277C158.342 23.97 159.306 23.6856 160.322 23.6856H160.331L160.34 23.6853C160.79 23.6693 161.248 23.7037 161.684 23.7958L161.671 25.2435C161.141 25.0753 160.52 24.9949 159.816 24.9946C158.382 24.9712 157.018 25.5896 156.1 26.7036C155.115 27.8389 154.649 29.3421 154.649 31.1782Z" fill="#DADEEF" stroke="white"/>
<path d="M165.486 19.9966L167.594 19.4395V23.4525V23.9525H168.094H172.478V25.1061H168.094H167.594V25.6061V34.4645C167.594 35.5607 167.824 36.4715 168.398 37.0739C168.985 37.6909 169.892 37.8942 170.95 37.8951C171.471 37.9105 171.994 37.831 172.486 37.6542L172.497 38.7014C171.886 38.9153 171.087 39.0265 170.092 39.0265C168.459 39.0265 167.324 38.6571 166.6 38.0036C165.885 37.3589 165.486 36.3605 165.486 34.9086V25.6061V25.1061H164.986H162.155V23.9525H164.986H165.486V23.4525V19.9966Z" fill="#DADEEF" stroke="white"/>
<g clip-path="url(#clip0_62_1581)">
<path d="M46.7747 28.4004C48.2865 26.4854 49.1072 24.1147 49.1033 21.6735C49.1033 15.6686 44.2444 11 38.2499 11H25.0703V12.3581H37.9577C43.2555 12.3581 47.5505 16.4658 47.5505 21.7706C47.5537 23.833 46.8913 25.8411 45.662 27.4958L46.7747 28.4004Z" fill="#DADEEF"/>
<path d="M45.3045 27.2762C46.7468 25.808 47.554 23.8303 47.5515 21.7708C47.5515 19.6864 46.7246 17.6873 45.2528 16.2133C43.7809 14.7393 41.7846 13.911 39.703 13.9106H28.5586V15.2701H39.9926C40.8328 15.2696 41.6648 15.4348 42.4411 15.7564C43.2175 16.078 43.9229 16.5496 44.5172 17.1443C45.1114 17.739 45.5828 18.4451 45.9045 19.2222C46.2261 19.9994 46.3916 20.8324 46.3916 21.6737C46.3927 22.6078 46.1892 23.5307 45.7955 24.3775C45.4017 25.2243 44.8273 25.9743 44.1127 26.5748L45.3045 27.2762Z" fill="#DADEEF"/>
<path d="M43.1548 26.2514C44.9883 25.449 46.3919 23.7012 46.3919 21.6735C46.3919 18.8869 43.7481 16.6281 40.9652 16.6281H31.2716V17.4036H40.8657C43.1624 17.4036 45.4196 19.2728 45.4196 21.5764C45.4196 23.4431 43.942 25.0261 42.157 25.5563L43.1548 26.2514Z" fill="#DADEEF"/>
<path d="M21.1943 45.5439H23.3265V46.9021H21.1943V45.5439Z" fill="#DADEEF"/>
<path d="M23.326 42.8264H31.8534V43.7962H23.326V42.8264Z" fill="#DADEEF"/>
<path d="M23.326 36.8112H32.4352V37.588H23.326V36.8112Z" fill="#DADEEF"/>
<path d="M34.1796 36.8112H39.9942V37.588H34.1796V36.8112Z" fill="#DADEEF"/>
<path d="M25.0703 34.0936H28.1709V34.8704H25.0703V34.0936Z" fill="#DADEEF"/>
<path d="M29.9153 34.0936H39.9929V34.8704H29.9153V34.0936Z" fill="#DADEEF"/>
<path d="M33.2098 21.8678H39.799V22.6446H33.2098V21.8678Z" fill="#DADEEF"/>
<path d="M25.458 16.6279H29.1405V17.4047H25.458V16.6279Z" fill="#DADEEF"/>
<path d="M26.4268 19.5386H39.9929V20.3154H26.4268V19.5386Z" fill="#DADEEF"/>
<path d="M22.9385 21.8677H31.2719V22.6445H22.9385V21.8677Z" fill="#DADEEF"/>
<path d="M25.2646 45.3496V46.7078H39.9932C45.9903 46.7078 50.8467 42.0367 50.8467 36.0342C50.8467 33.1519 49.7032 30.3877 47.6678 28.3496C45.6324 26.3115 42.8718 25.1665 39.9932 25.1665H30.4974V26.3317H39.7036C42.2479 26.3321 44.6878 27.3443 46.4868 29.1459C48.2858 30.9475 49.2964 33.3908 49.2964 35.9384C49.2964 41.2445 45.0014 45.3509 39.7036 45.3509L25.2646 45.3496Z" fill="#DADEEF"/>
<path d="M27.5889 28.0771V29.4366H41.7369C42.5768 29.4364 43.4086 29.6019 44.1846 29.9237C44.9607 30.2454 45.6658 30.717 46.2598 31.3117C46.8538 31.9063 47.325 32.6123 47.6464 33.3893C47.9679 34.1663 48.1334 34.9991 48.1334 35.8402C48.1334 37.5389 47.4594 39.168 46.2599 40.3691C45.0603 41.5703 43.4333 42.2451 41.7369 42.2451H33.4035V43.7974H41.4421C42.4729 43.7974 43.4936 43.5941 44.4459 43.1991C45.3982 42.8041 46.2635 42.2251 46.9923 41.4952C47.7212 40.7653 48.2992 39.8988 48.6936 38.9451C49.0879 37.9915 49.2908 36.9694 49.2907 35.9373C49.2907 33.8529 48.4638 31.8538 46.992 30.3798C45.5201 28.9058 43.5238 28.0775 41.4421 28.0771H27.5889Z" fill="#DADEEF"/>
<path d="M31.6595 30.9889V31.7644H42.6099C44.9067 31.7644 47.1639 33.6336 47.1639 35.9373C47.1639 38.237 44.9118 40.1101 42.6099 40.1101H21V41.0798H42.7069C45.4898 41.0798 48.1336 38.8209 48.1336 36.0344C48.1336 33.2478 45.4898 30.9889 42.7069 30.9889H31.6595Z" fill="#DADEEF"/>
</g>
<defs>
<clipPath id="clip0_62_1581">
<rect width="29.8464" height="35.9021" fill="white" transform="translate(21 11)"/>
</clipPath>
</defs>
</svg>
