<svg width="189" height="37" viewBox="0 0 189 37" fill="none" xmlns="http://www.w3.org/2000/svg">
<path d="M50.7413 28.2675V6.8802L68.7991 6.82021C71.1788 6.82021 72.9386 7.32014 74.0784 8.32002C75.2383 9.2999 75.8182 10.7797 75.8182 12.7595C75.8182 14.7392 75.1583 16.189 73.8385 17.1089C74.7183 17.5889 75.3683 18.2288 75.7882 19.0287C76.2082 19.8086 76.4181 20.8185 76.4181 22.0583C76.4181 24.0781 75.8382 25.6179 74.6784 26.6777C73.5385 27.7176 71.7787 28.2375 69.399 28.2375L50.7413 28.2675ZM68.2292 10.6597H55.5407V15.4591H68.2292C70.0489 15.4591 70.9588 14.6392 70.9588 12.9994C70.9588 11.4396 70.0489 10.6597 68.2292 10.6597ZM68.8291 19.2987H55.5407V24.398H68.8291C70.6489 24.398 71.5587 23.5381 71.5587 21.8183C71.5587 20.1385 70.6489 19.2987 68.8291 19.2987Z" fill="white"/>
<path d="M79.2624 28.2675V12.8195H83.6119V28.2675H79.2624ZM79.2324 10.2698V6.8802H83.6418V10.2698H79.2324Z" fill="white"/>
<path d="M94.9469 28.2675C93.2071 28.2675 91.9273 27.8376 91.1074 26.9777C90.2875 26.0978 89.8776 24.9479 89.8776 23.5281V16.269H85.4081V12.8195H89.8776V8.08005H94.227V12.8195H100.646V16.269H94.227V22.9882C94.227 24.208 94.8269 24.818 96.0268 24.818H101.486V28.2675H94.9469Z" fill="white"/>
<path d="M103.722 28.2675V12.8195H115.541C117.281 12.8195 118.56 13.2594 119.38 14.1393C120.2 14.9992 120.61 16.139 120.61 17.5589V20.7685H116.201V18.0988C116.201 16.899 115.601 16.299 114.401 16.299H108.132V28.2675H103.722Z" fill="white"/>
<path d="M131.502 28.4175C128.822 28.4175 126.733 27.7576 125.233 26.4378C123.733 25.0979 122.983 23.1382 122.983 20.5585C122.983 17.9588 123.733 15.9991 125.233 14.6792C126.733 13.3394 128.822 12.6695 131.502 12.6695H137.051C139.731 12.6695 141.821 13.3394 143.321 14.6792C144.82 15.9991 145.57 17.9588 145.57 20.5585C145.57 23.1382 144.82 25.0979 143.321 26.4378C141.821 27.7576 139.731 28.4175 137.051 28.4175H131.502ZM131.502 24.9679H137.051C138.351 24.9679 139.341 24.608 140.021 23.8881C140.721 23.1682 141.071 22.0583 141.071 20.5585C141.071 19.0387 140.721 17.9188 140.021 17.1989C139.341 16.479 138.351 16.119 137.051 16.119H131.502C130.202 16.119 129.202 16.479 128.502 17.1989C127.823 17.9188 127.483 19.0387 127.483 20.5585C127.483 22.0583 127.823 23.1682 128.502 23.8881C129.202 24.608 130.202 24.9679 131.502 24.9679Z" fill="white"/>
<path d="M156.196 28.4175C153.517 28.4175 151.427 27.7576 149.927 26.4378C148.427 25.0979 147.677 23.1382 147.677 20.5585C147.677 17.9588 148.427 15.9991 149.927 14.6792C151.427 13.3394 153.517 12.6695 156.196 12.6695H166.245V16.119H156.196C154.896 16.119 153.897 16.479 153.197 17.1989C152.517 17.9188 152.177 19.0387 152.177 20.5585C152.177 22.0583 152.517 23.1682 153.197 23.8881C153.897 24.608 154.896 24.9679 156.196 24.9679H166.545V28.4175H156.196Z" fill="white"/>
<path d="M168.783 28.2675V6.82021H173.132V12.8195H183.511C185.27 12.8195 186.61 13.2394 187.53 14.0793C188.47 14.8992 188.94 16.0791 188.94 17.6189C188.94 20.1385 187.74 21.6384 185.34 22.1183L189 28.2675H184.111L180.571 22.2983H173.132V28.2675H168.783ZM183.301 16.239H173.132V18.8787H183.301C183.701 18.8787 184.011 18.7587 184.231 18.5187C184.471 18.2788 184.591 17.9488 184.591 17.5289C184.591 16.669 184.161 16.239 183.301 16.239Z" fill="white"/>
<path d="M26.9137 21.4097L34.5176 10.1693C34.569 10.0871 34.5985 9.99311 34.6034 9.89627C34.6083 9.79943 34.5884 9.70294 34.5457 9.61592C34.5029 9.52891 34.4386 9.45426 34.359 9.39903C34.2793 9.3438 34.1869 9.30982 34.0904 9.30031L19.082 7.70472L26.9137 21.4097Z" fill="url(#paint0_linear_1_73)"/>
<path d="M34.0629 14.1865L28.6946 23.005L34.2195 26.3101C34.2628 26.3386 34.3129 26.3548 34.3647 26.3569C34.4164 26.3589 34.4677 26.3469 34.5131 26.322C34.5585 26.2971 34.5963 26.2603 34.6223 26.2155C34.6484 26.1707 34.6617 26.1197 34.661 26.0679V14.329C34.6703 14.2897 34.6718 14.2489 34.6654 14.209C34.659 14.1692 34.6449 14.1309 34.6237 14.0965C34.6026 14.0621 34.5748 14.0323 34.5421 14.0086C34.5094 13.9849 34.4724 13.9679 34.4331 13.9585C34.3939 13.9492 34.3531 13.9477 34.3133 13.9541C34.2734 13.9605 34.2352 13.9746 34.2008 13.9958C34.1664 14.017 34.1366 14.0447 34.1129 14.0774C34.0892 14.1101 34.0722 14.1472 34.0629 14.1865Z" fill="white"/>
<path d="M33.2929 6.37945L19.267 0.0540909C19.1793 0.0128829 19.0826 -0.0052752 18.9859 0.00133785C18.8893 0.0079509 18.7959 0.0391154 18.7147 0.0918826C18.6334 0.14465 18.567 0.217279 18.5216 0.3029C18.4762 0.388522 18.4534 0.484307 18.4553 0.581203V5.31098L33.122 6.92081C33.1916 6.93631 33.2644 6.92516 33.3262 6.88956C33.3879 6.85395 33.4341 6.79649 33.4555 6.7285C33.477 6.66051 33.4722 6.58695 33.4421 6.52233C33.412 6.45771 33.3588 6.40673 33.2929 6.37945Z" fill="white"/>
<path d="M27.4264 24.971L21.7306 35.2711C21.6683 35.38 21.6427 35.5061 21.6576 35.6307C21.6725 35.7554 21.7272 35.8719 21.8135 35.963C21.8997 36.0541 22.0131 36.115 22.1366 36.1366C22.2602 36.1583 22.3875 36.1395 22.4996 36.0831L33.3785 28.96C33.4197 28.9344 33.4538 28.8988 33.4773 28.8564C33.5009 28.814 33.5133 28.7663 33.5133 28.7178C33.5133 28.6693 33.5009 28.6216 33.4773 28.5792C33.4538 28.5368 33.4197 28.5011 33.3785 28.4756L27.4264 24.971Z" fill="white"/>
<path d="M17.3024 24.1588H9.42798L16.3199 36.2966C16.4231 36.4646 16.5676 36.6033 16.7396 36.6995C16.9116 36.7957 17.1054 36.8462 17.3024 36.8462C17.4995 36.8462 17.6932 36.7957 17.8652 36.6995C18.0372 36.6033 18.1817 36.4646 18.285 36.2966L25.1769 24.1588H17.3024Z" fill="url(#paint1_linear_1_73)"/>
<path d="M0.442305 26.3101L5.91028 22.9907L0.541981 14.1865C0.505916 14.1364 0.45525 14.0987 0.396927 14.0786C0.338603 14.0584 0.275478 14.0568 0.216211 14.074C0.156945 14.0912 0.104434 14.1262 0.0658824 14.1744C0.0273314 14.2226 0.00462509 14.2816 0.000878385 14.3432L0.000878385 26.0679C0.000106506 26.1197 0.0134646 26.1707 0.0395104 26.2155C0.0655562 26.2603 0.103307 26.2971 0.148703 26.322C0.1941 26.3469 0.245421 26.3589 0.297153 26.3569C0.348885 26.3548 0.399069 26.3386 0.442305 26.3101Z" fill="white"/>
<path d="M7.17831 24.9712L1.29739 28.4331C1.25618 28.4586 1.22217 28.4943 1.19859 28.5367C1.175 28.579 1.16262 28.6267 1.16262 28.6753C1.16262 28.7238 1.175 28.7715 1.19859 28.8138C1.22217 28.8562 1.25618 28.8919 1.29739 28.9174L12.1764 36.0406C12.2885 36.097 12.4157 36.1157 12.5393 36.0941C12.6629 36.0725 12.7762 36.0116 12.8625 35.9205C12.9487 35.8293 13.0034 35.7128 13.0183 35.5882C13.0332 35.4636 13.0076 35.3375 12.9453 35.2286L7.24951 24.9285L7.17831 24.9712Z" fill="white"/>
<path d="M1.48175 6.92081L16.1484 5.31098V0.581203C16.1504 0.484307 16.1276 0.388522 16.0822 0.3029C16.0368 0.217279 15.9704 0.14465 15.8891 0.0918826C15.8078 0.0391154 15.7145 0.0079509 15.6178 0.00133785C15.5212 -0.0052752 15.4245 0.0128829 15.3368 0.0540909L1.31088 6.37945C1.24504 6.40673 1.19181 6.45771 1.16171 6.52233C1.1316 6.58695 1.12681 6.66051 1.14826 6.7285C1.16972 6.79649 1.21588 6.85395 1.27762 6.88956C1.33936 6.92516 1.4122 6.93631 1.48175 6.92081Z" fill="white"/>
<path d="M7.69036 21.4097L15.5221 7.70472L0.513651 9.30031C0.417199 9.30982 0.324773 9.3438 0.245112 9.39903C0.165451 9.45426 0.101194 9.52891 0.0584215 9.61592C0.0156493 9.70294 -0.00422805 9.79943 0.000679984 9.89627C0.00558802 9.99311 0.0351166 10.0871 0.0864666 10.1693L7.69036 21.4097Z" fill="url(#paint2_linear_1_73)"/>
<defs>
<linearGradient id="paint0_linear_1_73" x1="26.8431" y1="21.4097" x2="26.8431" y2="7.70472" gradientUnits="userSpaceOnUse">
<stop stop-color="#AFB0B1"/>
<stop offset="1" stop-color="#9B9C9E"/>
</linearGradient>
<linearGradient id="paint1_linear_1_73" x1="17.3024" y1="36.8462" x2="17.3024" y2="24.1588" gradientUnits="userSpaceOnUse">
<stop stop-color="#AFB0B1"/>
<stop offset="1" stop-color="#9B9C9E"/>
</linearGradient>
<linearGradient id="paint2_linear_1_73" x1="7.76102" y1="21.4097" x2="7.76102" y2="7.70472" gradientUnits="userSpaceOnUse">
<stop stop-color="#AFB0B1"/>
<stop offset="1" stop-color="#9B9C9E"/>
</linearGradient>
</defs>
</svg>
