<svg width="110" height="110" viewBox="0 0 110 110" fill="none" xmlns="http://www.w3.org/2000/svg">
<circle cx="55" cy="55" r="53.5" stroke="url(#paint0_linear_51_1543)" stroke-width="3"/>
<path d="M69.7 41.2C69.7 49.3602 63.0601 56 54.9 56C46.7398 56 40.1 49.3602 40.1 41.2C40.1 33.0398 46.7398 26.4 54.9 26.4C63.0601 26.4 69.7 33.0398 69.7 41.2ZM66.7 41.2C66.7 34.6927 61.4072 29.4 54.9 29.4C48.3927 29.4 43.1 34.6927 43.1 41.2C43.1 47.7073 48.3927 53 54.9 53C61.4072 53 66.7 47.7073 66.7 41.2Z" fill="white" stroke="#090909" stroke-width="0.8"/>
<path d="M34.4 81.1C34.4 69.7967 43.5967 60.6 54.9 60.6C66.2033 60.6 75.4 69.7967 75.4 81.1C75.4 81.9284 74.7291 82.6 73.9 82.6C73.0709 82.6 72.4 81.9284 72.4 81.1C72.4 71.4506 64.5504 63.6 54.9 63.6C45.2496 63.6 37.4 71.4506 37.4 81.1C37.4 81.9284 36.7291 82.6 35.9 82.6C35.0709 82.6 34.4 81.9284 34.4 81.1Z" fill="white" stroke="#090909" stroke-width="0.8"/>
<defs>
<linearGradient id="paint0_linear_51_1543" x1="165" y1="-51" x2="21" y2="110" gradientUnits="userSpaceOnUse">
<stop stop-color="#FFF"/>
<stop offset="1"/>
</linearGradient>
</defs>
</svg>
