<svg width="30" height="30" viewBox="0 0 30 30" fill="none" xmlns="http://www.w3.org/2000/svg">
<path d="M3.42176 20.4556H3.69351V23.4722C3.69351 23.8133 3.91998 24.15 4.26527 24.15C4.61056 24.15 4.83702 23.8133 4.83702 23.4722V20.4556H24.7813V23.4722C24.7813 23.8133 25.0078 24.15 25.3531 24.15C25.6983 24.15 25.9248 23.8133 25.9248 23.4722V20.4556H26.1966C26.5419 20.4556 26.7683 20.1188 26.7683 19.7778C26.7683 19.4367 26.5419 19.1 26.1966 19.1H25.9248V8.17406V8.17399V8.17387V8.17369V8.17345V8.17315V8.17279V8.17237V8.1719V8.17136V8.17077V8.17012V8.16941V8.16864V8.16782V8.16694V8.166V8.16501V8.16396V8.16285V8.16169V8.16047V8.15919V8.15787V8.15648V8.15504V8.15355V8.15201V8.1504V8.14875V8.14704V8.14528V8.14347V8.1416V8.13968V8.13771V8.13568V8.13361V8.13148V8.1293V8.12707V8.12479V8.12246V8.12008V8.11765V8.11517V8.11263V8.11005V8.10742V8.10474V8.10202V8.09924V8.09641V8.09354V8.09062V8.08765V8.08464V8.08157V8.07846V8.07531V8.0721V8.06885V8.06556V8.06222V8.05883V8.0554V8.05193V8.0484V8.04484V8.04123V8.03758V8.03388V8.03014V8.02635V8.02252V8.01865V8.01474V8.01078V8.00679V8.00275V7.99866V7.99454V7.99038V7.98617V7.98193V7.97764V7.97331V7.96895V7.96454V7.96009V7.95561V7.95108V7.94652V7.94192V7.93728V7.9326V7.92788V7.92313V7.91834V7.91351V7.90864V7.90374V7.8988V7.89383V7.88882V7.88377V7.87869V7.87357V7.86841V7.86323V7.858V7.85275V7.84746V7.84213V7.83677V7.83138V7.82596V7.8205V7.81501V7.80948V7.80393V7.79834V7.79272V7.78707V7.78139V7.77567V7.76993V7.76415V7.75835V7.75251V7.74665V7.74075V7.73483V7.72887V7.72289V7.71688V7.71084V7.70477V7.69868V7.69255V7.6864V7.68022V7.67402V7.66779V7.66153V7.65524V7.64893V7.64259V7.63623V7.62984V7.62343V7.61699V7.61052V7.60404V7.59752V7.59099V7.58443V7.57785V7.57124V7.56461V7.55796V7.55128V7.54458V7.53786V7.53112V7.52436V7.51758V7.51077V7.50394V7.4971V7.49023V7.48334V7.47643V7.4695V7.46256V7.45559V7.4486V7.4416V7.43458V7.42754V7.42048V7.4134V7.4063V7.39919V7.39206V7.38492V7.37775V7.37057V7.36338V7.35617V7.34894V7.3417V7.33444V7.32716V7.31988V7.31257V7.30526V7.29793V7.29058V7.28322V7.27585V7.26846V7.26107V7.25366V7.24623V7.2388V7.23135V7.22389V7.21642V7.20894V7.20145V7.19394V7.18643V7.1789V7.17137V7.16383V7.15627V7.14871V7.14114V7.13355V7.12596V7.11837V7.11076V7.10314V7.09552V7.08789V7.08025V7.07261V7.06496V7.0573V7.04964V7.04197V7.03429V7.02661V7.01892V7.01123V7.00354V6.99583V6.98813V6.98042V6.9727V6.96499V6.95727V6.94954V6.94181V6.93408V6.92635V6.91862V6.91088V6.90314V6.8954V6.88766V6.87992V6.87217V6.86443V6.85668V6.84894V6.84119V6.83345V6.8257V6.81796V6.81022V6.80248V6.79474V6.787V6.77926V6.77153V6.7638V6.75607V6.74834V6.74062V6.7329V6.72519V6.71747V6.70977V6.70206V6.69436V6.68667V6.67898V6.6713V6.66362V6.65594V6.64828V6.64062V6.63296V6.62532V6.61768V6.61004V6.60242V6.5948V6.58719V6.57958V6.57199V6.5644V6.55683V6.54926V6.5417V6.53415V6.52661V6.51908V6.51156V6.50405V6.49656V6.48907V6.48159V6.47413V6.46668V6.45923V6.45181V6.44439V6.43698V6.42959V6.42221V6.41485V6.4075V6.40016V6.39284V6.38553V6.37823V6.37095V6.36369V6.35643V6.3492V6.34198V6.33478V6.32759V6.32042V6.31326V6.30613V6.299V6.2919V6.28482V6.27775V6.2707V6.26367V6.25665V6.24966V6.24268V6.23572V6.22879V6.22187V6.21497V6.20809V6.20124V6.1944V6.18758V6.18079V6.17402V6.16726V6.16053V6.15383V6.14714V6.14048V6.13383V6.12722V6.12062V6.11405V6.1075V6.10098V6.09448V6.088V6.08155V6.07513V6.06873V6.06235V6.056V6.04968V6.04338V6.03711V6.03086V6.02464V6.01845V6.01229V6.00615V6.00004V5.99396V5.9879V5.98188V5.97588V5.96991V5.96398V5.95807V5.95219V5.94634V5.94052V5.93473V5.92897V5.92324V5.91754V5.91188V5.90624V5.90064V5.89507V5.88953V5.88402V5.87855V5.8731V5.8677V5.86232V5.85698V5.85167V5.8464V5.84116V5.83595V5.83078V5.82565V5.82055V5.81548V5.81046V5.80546V5.80051V5.79559V5.7907V5.78585V5.78104V5.77627V5.77154V5.76684V5.76218V5.75756V5.75298V5.74844V5.74393V5.73947V5.73504V5.73065V5.72631V5.722V5.71774V5.71351V5.70933V5.70518V5.70108V5.69702V5.693V5.68903V5.68509V5.6812V5.67735V5.67355V5.66978V5.66607V5.66239V5.65876V5.65517V5.65163V5.64813V5.64468V5.64127V5.63791V5.63459V5.63132V5.62809V5.62491V5.62178V5.61869V5.61566V5.61266V5.60972V5.60682V5.60398V5.60117V5.59842V5.59572V5.59307V5.59046V5.5879V5.5854V5.58294V5.58054V5.57818V5.57587V5.57362V5.57142V5.56926V5.56716V5.56511V5.56312V5.56117V5.55928V5.55744V5.55565V5.55392V5.55224V5.55061V5.54904V5.54752V5.54605V5.54464V5.54329V5.54199V5.54074V5.53955V5.53842V5.53734V5.53632V5.53535V5.53445V5.53359V5.5328V5.53206V5.53138V5.53076V5.5302V5.52969V5.52925V5.52886V5.52853V5.52826V5.52805V5.5279V5.52781L25.7748 5.52778H25.9248C25.9248 5.18673 25.6983 4.85 25.3531 4.85C25.0078 4.85 24.7813 5.18673 24.7813 5.52778V7.74313C18.0226 11.6117 11.3825 11.5802 4.83702 7.74833V5.52778C4.83702 5.18673 4.61056 4.85 4.26527 4.85C3.91998 4.85 3.69351 5.18673 3.69351 5.52778V8.15822V8.15838V8.15879V8.15945V8.16036V8.16153V8.16294V8.1646V8.1665V8.16865V8.17105V8.17369V8.17657V8.17969V8.18306V8.18666V8.1905V8.19459V8.1989V8.20346V8.20824V8.21327V8.21852V8.22401V8.22973V8.23567V8.24185V8.24825V8.25488V8.26174V8.26882V8.27613V8.28366V8.29141V8.29938V8.30757V8.31598V8.32461V8.33345V8.34252V8.35179V8.36128V8.37099V8.3809V8.39103V8.40136V8.41191V8.42266V8.43362V8.44479V8.45616V8.46773V8.47951V8.49149V8.50368V8.51606V8.52864V8.54142V8.55439V8.56757V8.58093V8.5945V8.60825V8.6222V8.63634V8.65067V8.66518V8.67989V8.69478V8.70986V8.72513V8.74058V8.75621V8.77202V8.78802V8.8042V8.82055V8.83708V8.8538V8.87068V8.88775V8.90498V8.92239V8.93998V8.95773V8.97566V8.99375V9.01201V9.03044V9.04904V9.0678V9.08673V9.10581V9.12507V9.14448V9.16405V9.18379V9.20368V9.22373V9.24394V9.2643V9.28481V9.30548V9.3263V9.34728V9.3684V9.38968V9.4111V9.43267V9.45439V9.47625V9.49826V9.52041V9.5427V9.56513V9.58771V9.61042V9.63328V9.65627V9.6794V9.70266V9.72606V9.74959V9.77326V9.79705V9.82098V9.84504V9.86923V9.89354V9.91798V9.94255V9.96724V9.99205V10.017V10.042V10.0672V10.0925V10.1179V10.1435V10.1691V10.1949V10.2208V10.2468V10.2729V10.2991V10.3255V10.3519V10.3785V10.4051V10.4319V10.4588V10.4857V10.5128V10.54V10.5673V10.5947V10.6222V10.6498V10.6775V10.7052V10.7331V10.7611V10.7892V10.8173V10.8456V10.8739V10.9024V10.9309V10.9595V10.9882V11.017V11.0458V11.0748V11.1038V11.133V11.1622V11.1914V11.2208V11.2502V11.2798V11.3094V11.339V11.3688V11.3986V11.4285V11.4584V11.4885V11.5186V11.5487V11.579V11.6093V11.6396V11.67V11.7005V11.7311V11.7617V11.7924V11.8231V11.8539V11.8848V11.9157V11.9467V11.9777V12.0087V12.0399V12.071V12.1023V12.1336V12.1649V12.1962V12.2277V12.2591V12.2906V12.3222V12.3538V12.3854V12.4171V12.4488V12.4806V12.5124V12.5442V12.5761V12.608V12.6399V12.6719V12.7039V12.7359V12.7679V12.8V12.8322V12.8643V12.8965V12.9287V12.9609V12.9931V13.0254V13.0576V13.0899V13.1223V13.1546V13.187V13.2193V13.2517V13.2841V13.3165V13.3489V13.3814V13.4138V13.4463V13.4787V13.5112V13.5437V13.5761V13.6086V13.6411V13.6736V13.7061V13.7386V13.7711V13.8035V13.836V13.8685V13.901V13.9334V13.9659V13.9984V14.0308V14.0632V14.0957V14.1281V14.1605V14.1928V14.2252V14.2576V14.2899V14.3222V14.3545V14.3868V14.419V14.4513V14.4835V14.5157V14.5478V14.58V14.6121V14.6442V14.6762V14.7083V14.7403V14.7722V14.8041V14.836V14.8679V14.8997V14.9315V14.9633V14.995V15.0267V15.0583V15.0899V15.1214V15.1529V15.1844V15.2158V15.2472V15.2785V15.3098V15.341V15.3721V15.4033V15.4343V15.4653V15.4963V15.5272V15.5581V15.5888V15.6196V15.6502V15.6809V15.7114V15.7419V15.7723V15.8027V15.833V15.8632V15.8933V15.9234V15.9535V15.9834V16.0133V16.0431V16.0728V16.1025V16.1321V16.1616V16.191V16.2204V16.2496V16.2788V16.3079V16.337V16.3659V16.3948V16.4235V16.4522V16.4808V16.5093V16.5378V16.5661V16.5943V16.6225V16.6505V16.6785V16.7064V16.7341V16.7618V16.7894V16.8169V16.8443V16.8715V16.8987V16.9258V16.9527V16.9796V17.0064V17.033V17.0595V17.086V17.1123V17.1385V17.1646V17.1906V17.2165V17.2422V17.2679V17.2934V17.3188V17.3441V17.3692V17.3943V17.4192V17.444V17.4687V17.4932V17.5177V17.542V17.5661V17.5902V17.6141V17.6379V17.6615V17.685V17.7084V17.7316V17.7548V17.7777V17.8006V17.8233V17.8458V17.8682V17.8905V17.9127V17.9346V17.9565V17.9782V17.9997V18.0211V18.0424V18.0635V18.0845V18.1053V18.1259V18.1464V18.1668V18.1869V18.207V18.2268V18.2466V18.2661V18.2855V18.3047V18.3238V18.3427V18.3615V18.38V18.3984V18.4167V18.4348V18.4527V18.4704V18.488V18.5053V18.5226V18.5396V18.5565V18.5732V18.5897V18.606V18.6222V18.6381V18.6539V18.6695V18.685V18.7002V18.7153V18.7301V18.7448V18.7593V18.7736V18.7877V18.8017V18.8154V18.8289V18.8423V18.8554V18.8684V18.8811V18.8937V18.906V18.9182V18.9302V18.9419V18.9535V18.9648V18.9759V18.9869V18.9976V19.0081V19.0184V19.0285V19.0384V19.0481V19.0576V19.0668V19.0759V19.0847V19.0933V19.1H3.42176C3.07646 19.1 2.85 19.4367 2.85 19.7778C2.85 20.1188 3.07646 20.4556 3.42176 20.4556ZM4.83702 19.1V9.25385C6.1378 9.97715 7.44388 10.559 8.75458 10.9973V19.1H4.83702ZM20.8637 19.1V10.9677C22.1665 10.5324 23.4726 9.9571 24.7813 9.243V19.1H20.8637ZM15.3809 19.1V11.9833C16.8234 11.9332 18.2697 11.7107 19.7202 11.3153V19.1H15.3809ZM9.89809 11.3422C11.3393 11.7306 12.7856 11.9461 14.2374 11.9874V19.1H9.89809V11.3422Z" fill="white" stroke="white" stroke-width="0.3"/>
</svg>
