<svg width="30" height="30" viewBox="0 0 30 30" fill="none" xmlns="http://www.w3.org/2000/svg">
<path d="M24.0572 10.6841L20.7962 15.5045L17.6524 10.0032L24.0572 10.6841Z" stroke="white" stroke-width="1.3"/>
<path d="M22.6215 17.3861L24.3454 14.5542V18.4174L22.6215 17.3861Z" stroke="white" stroke-width="1.3"/>
<path d="M16.7639 5.83526L21.1389 7.8083L16.7639 7.32809V5.83526Z" stroke="white" stroke-width="1.3"/>
<path d="M19.1218 23.4798L21.276 19.5841L23.2745 20.7607L19.1218 23.4798Z" stroke="white" stroke-width="1.3"/>
<path d="M15.4829 24.5238L12.2839 18.89H15.4829H18.6818L15.4829 24.5238Z" stroke="white" stroke-width="1.3"/>
<path d="M8.34475 17.3821L6.65021 18.4108V14.603L8.34475 17.3821Z" stroke="white" stroke-width="1.3"/>
<path d="M7.72891 20.7375L9.72743 19.561L11.8816 23.4565L7.72891 20.7375Z" stroke="white" stroke-width="1.3"/>
<path d="M14.2 7.32809L9.82501 7.8083L14.2 5.83526V7.32809Z" stroke="white" stroke-width="1.3"/>
<path d="M10.1683 15.5045L6.90733 10.6841L13.3121 10.0032L10.1683 15.5045Z" stroke="white" stroke-width="1.3"/>
</svg>
