<svg width="194" height="58" viewBox="0 0 194 58" fill="none" xmlns="http://www.w3.org/2000/svg">
<g clip-path="url(#clip0_27_1490)">
<path fill-rule="evenodd" clip-rule="evenodd" d="M55.1954 19.6727C55.1954 14.8861 51.3648 11 46.6467 11H29.5493C24.8307 11 21 14.8861 21 19.6727V37.0182C21 41.8046 24.8307 45.6908 29.5493 45.6908H46.6467C51.3648 45.6908 55.1954 41.8046 55.1954 37.0182V19.6727Z" fill="url(#paint0_linear_27_1490)"/>
<mask id="mask0_27_1490" style="mask-type:luminance" maskUnits="userSpaceOnUse" x="21" y="11" width="35" height="35">
<path d="M46.6467 11.5C51.0819 11.5 54.6954 15.1554 54.6954 19.6727V37.0182C54.6954 41.5352 51.0819 45.1908 46.6467 45.1908H29.5492C25.1136 45.1908 21.5 41.5352 21.5 37.0182V19.6727C21.5 15.1555 25.1136 11.5 29.5492 11.5H46.6467Z" fill="white" stroke="black"/>
</mask>
<g mask="url(#mask0_27_1490)">
<mask id="mask1_27_1490" style="mask-type:luminance" maskUnits="userSpaceOnUse" x="19" y="14" width="38" height="36">
<path d="M21.1201 17.3543C21.1201 17.3543 27.5275 18.0101 29.7533 19.9786C29.7533 19.9786 27.3754 17.1471 28.1026 14.4797C28.1026 14.4797 29.769 17.0397 32.2367 18.0665C34.6009 19.0501 42.3168 21.0621 41.2645 25.6495C41.2645 25.6495 42.3843 26.263 43.0949 27.4412C43.554 28.2027 43.7617 29.2786 43.5687 30.269C43.3154 31.568 42.6347 32.9123 40.6727 33.6433C40.6727 33.6433 37.8833 29.0004 34.1237 31.8187C32.4573 33.0685 31.9145 35.6251 32.991 38.0321C34.0315 40.3581 36.9607 43.0395 44.9542 43.6557C47.67 43.8651 54.2129 44.1442 56.5418 40.2954C56.5418 40.2954 57.8356 44.582 52.9753 48.1535C52.9753 48.1535 37.2007 51.5221 27.4463 48.4892C21.1044 46.5171 19.227 40.6397 19.3249 33.4698C19.3249 33.4698 20.1538 18.8765 21.1201 17.3543Z" fill="white"/>
</mask>
<g mask="url(#mask1_27_1490)">
<path fill-rule="evenodd" clip-rule="evenodd" d="M40.6723 33.6429C40.6723 33.6429 40.6638 31.8704 39.6671 30.2507C38.8291 28.8891 37.2625 27.6397 34.7069 27.6028C33.3062 27.5826 30.5139 28.6176 29.4511 31.2696C29.4511 31.2696 28.7633 28.3674 30.568 26.4502C30.568 26.4502 24.2918 28.0327 25.3997 35.0972C25.4829 35.6266 25.9658 37.9068 27.4402 39.8452C29.4901 42.5405 31.9973 44.3473 36.2498 45.2538C39.1808 45.8787 42.9518 46.1738 48.3806 45.8787C48.3806 45.8787 57.2696 46.3782 57.4417 37.401C57.4417 37.401 33.6973 43.2489 40.6723 33.6429Z" fill="#FFEDDC"/>
</g>
<path fill-rule="evenodd" clip-rule="evenodd" d="M39.0905 25.3117L38.3154 26.3117C38.3154 26.3117 37.5275 24.597 36.0059 23.0989L39.0905 25.3117Z" fill="#F9A14C"/>
</g>
<path d="M77.2165 33.0421L80.8962 35.0613C80.1268 36.1247 79.1622 36.9788 78.0026 37.6236C76.8429 38.2684 75.5773 38.5908 74.2058 38.5908C72.667 38.5908 71.262 38.1892 69.9909 37.386C68.7308 36.5828 67.7217 35.5082 66.9634 34.162C66.2163 32.8046 65.8428 31.3057 65.8428 29.6654C65.8428 28.421 66.0602 27.2615 66.4951 26.1868C66.93 25.1008 67.5265 24.1507 68.2848 23.3362C69.0542 22.5104 69.9462 21.8655 70.9609 21.4017C71.9757 20.938 73.0573 20.7061 74.2058 20.7061C75.5773 20.7061 76.8429 21.0284 78.0026 21.6733C79.1622 22.318 80.1268 23.1834 80.8962 24.2694L77.2165 26.2717C76.8262 25.8192 76.3635 25.4685 75.8282 25.2196C75.3042 24.9708 74.7634 24.8463 74.2058 24.8463C73.4029 24.8463 72.6781 25.0726 72.0314 25.5251C71.3847 25.9662 70.8717 26.5545 70.4926 27.2898C70.1135 28.0138 69.924 28.8057 69.924 29.6654C69.924 30.5138 70.1135 31.3057 70.4926 32.041C70.8717 32.7649 71.3847 33.3475 72.0314 33.7887C72.6781 34.2299 73.4029 34.4505 74.2058 34.4505C74.7856 34.4505 75.3376 34.3261 75.8616 34.0772C76.3857 33.817 76.8374 33.472 77.2165 33.0421Z" fill="white" fill-opacity="1"/>
<path d="M95.7234 21.1811H99.8043V38.1496H95.7066L95.5394 36.0455C95.0711 36.8035 94.4578 37.4199 93.6996 37.8951C92.9524 38.3588 92.0715 38.5908 91.0569 38.5908C89.8191 38.5908 88.6594 38.3532 87.5779 37.8781C86.4962 37.403 85.5428 36.7469 84.7176 35.9097C83.8925 35.0726 83.2513 34.1054 82.7942 33.0082C82.337 31.9108 82.1084 30.7344 82.1084 29.4787C82.1084 28.2683 82.3258 27.1314 82.7607 26.0681C83.1956 25.0047 83.8089 24.0715 84.6006 23.2683C85.3923 22.4651 86.3067 21.8372 87.3436 21.3848C88.3806 20.9323 89.4957 20.7061 90.6888 20.7061C91.8039 20.7061 92.7963 20.9549 93.6661 21.4526C94.547 21.9504 95.2941 22.5839 95.9074 23.3531L95.7234 21.1811ZM91.174 34.6032C92.066 34.6032 92.841 34.3713 93.4989 33.9075C94.1567 33.4437 94.6529 32.8272 94.9875 32.0579C95.3331 31.2773 95.4725 30.4176 95.4056 29.4787C95.3275 28.5963 95.0711 27.7989 94.6362 27.0862C94.2013 26.3622 93.6438 25.7852 92.9636 25.3554C92.2834 24.9255 91.5196 24.7106 90.6721 24.7106C89.7912 24.7106 88.9995 24.9425 88.297 25.4063C87.6057 25.8701 87.0705 26.4923 86.6913 27.2728C86.3122 28.0421 86.1617 28.9018 86.2398 29.852C86.3289 30.7231 86.6077 31.5206 87.076 32.2446C87.5444 32.9573 88.1353 33.5285 88.849 33.9584C89.5738 34.3882 90.3488 34.6032 91.174 34.6032Z" fill="white" fill-opacity="1"/>
<path d="M113.655 25.3891C113.353 25.1854 113.025 25.0215 112.668 24.897C112.322 24.7726 111.937 24.7103 111.513 24.7103C110.7 24.7103 109.997 24.9253 109.406 25.3552C108.826 25.785 108.38 26.362 108.068 27.0859C107.756 27.7986 107.6 28.5905 107.6 29.4615V38.1494H103.485V21.1809H107.566V23.1832C108.123 22.4366 108.787 21.8427 109.557 21.4015C110.337 20.9603 111.218 20.7397 112.2 20.7397C112.578 20.7397 112.941 20.751 113.286 20.7737C113.643 20.7963 113.983 20.8585 114.307 20.9603L113.655 25.3891Z" fill="white" fill-opacity="1"/>
<path d="M125.867 20.7059C127.495 20.7059 128.979 21.1075 130.317 21.9107C131.655 22.7138 132.72 23.7941 133.511 25.1516C134.303 26.4978 134.699 27.991 134.699 29.6313C134.699 30.8643 134.47 32.0238 134.012 33.1098C133.556 34.1958 132.92 35.1517 132.106 35.9775C131.304 36.792 130.367 37.4311 129.296 37.8949C128.237 38.3587 127.094 38.5906 125.867 38.5906C124.819 38.5906 123.888 38.3531 123.074 37.878C122.271 37.3915 121.596 36.7637 121.05 35.9944V38.1494H116.969V12.6968H121.05V23.3021C121.596 22.5328 122.271 21.9107 123.074 21.4355C123.888 20.9491 124.819 20.7059 125.867 20.7059ZM125.817 34.5861C126.686 34.5861 127.473 34.3655 128.175 33.9243C128.889 33.4718 129.458 32.8723 129.882 32.1256C130.305 31.379 130.517 30.5476 130.517 29.6313C130.517 28.7263 130.305 27.9005 129.882 27.1539C129.458 26.396 128.889 25.7964 128.175 25.3553C127.462 24.914 126.676 24.6935 125.817 24.6935C124.97 24.6935 124.212 24.9198 123.543 25.3722C122.874 25.8134 122.349 26.413 121.97 27.1709C121.591 27.9175 121.401 28.7376 121.401 29.6313C121.401 30.5476 121.591 31.3847 121.97 32.1426C122.349 32.8893 122.874 33.4831 123.543 33.9243C124.212 34.3655 124.97 34.5861 125.817 34.5861Z" fill="white" fill-opacity="1"/>
<path d="M144.411 38.5908C142.873 38.5908 141.468 38.1892 140.196 37.386C138.936 36.5828 137.928 35.5082 137.169 34.162C136.422 32.8046 136.049 31.3057 136.049 29.6654C136.049 28.421 136.266 27.2615 136.701 26.1868C137.136 25.1008 137.733 24.1507 138.491 23.3362C139.26 22.5104 140.152 21.8655 141.167 21.4017C142.182 20.938 143.263 20.7061 144.411 20.7061C145.95 20.7061 147.35 21.1076 148.61 21.9108C149.881 22.714 150.89 23.7943 151.637 25.1517C152.395 26.5093 152.775 28.0138 152.775 29.6654C152.775 30.8984 152.557 32.0523 152.122 33.1269C151.687 34.2016 151.086 35.1518 150.316 35.9776C149.558 36.7921 148.671 37.4313 147.657 37.8951C146.653 38.3588 145.572 38.5908 144.411 38.5908ZM144.411 34.4505C145.226 34.4505 145.956 34.2299 146.603 33.7887C147.249 33.3475 147.757 32.7649 148.125 32.041C148.504 31.317 148.693 30.5251 148.693 29.6654C148.693 28.783 148.498 27.9798 148.108 27.2558C147.729 26.5205 147.21 25.9379 146.553 25.5081C145.906 25.0669 145.192 24.8463 144.411 24.8463C143.609 24.8463 142.884 25.0669 142.237 25.5081C141.591 25.9493 141.078 26.5375 140.698 27.2728C140.319 28.0081 140.13 28.8057 140.13 29.6654C140.13 30.559 140.325 31.3679 140.715 32.0919C141.105 32.8158 141.624 33.3928 142.271 33.8226C142.929 34.2412 143.642 34.4505 144.411 34.4505Z" fill="white" fill-opacity="1"/>
<path d="M171 29.3769V38.1496H166.919V29.4448C166.919 28.5738 166.74 27.7819 166.384 27.0692C166.027 26.3452 165.531 25.7683 164.895 25.3385C164.271 24.9086 163.546 24.6936 162.721 24.6936C161.918 24.6936 161.221 24.9086 160.63 25.3385C160.039 25.7683 159.582 26.3452 159.258 27.0692C158.946 27.7819 158.79 28.5738 158.79 29.4448V38.1496H154.709V21.1811H158.79V23.1834C159.348 22.4255 160.011 21.826 160.781 21.3848C161.561 20.9323 162.442 20.7061 163.423 20.7061C164.962 20.7061 166.295 21.1019 167.421 21.8938C168.558 22.6743 169.434 23.7208 170.047 25.033C170.671 26.3452 170.989 27.7932 171 29.3769Z" fill="white" fill-opacity="1"/>
</g>
<defs>
<linearGradient id="paint0_linear_27_1490" x1="51.9082" y1="14.7183" x2="27.0474" y2="38.5662" gradientUnits="userSpaceOnUse">
<stop stop-color="#FF9133"/>
<stop offset="1" stop-color="#FF2905"/>
</linearGradient>
<clipPath id="clip0_27_1490">
<rect width="150" height="35" fill="white" transform="translate(21 11)"/>
</clipPath>
</defs>
</svg>
