<svg width="30" height="30" viewBox="0 0 30 30" fill="none" xmlns="http://www.w3.org/2000/svg">
<path d="M10.2857 7.92857H19.7929C20.1071 9.26429 21.3643 10.2857 22.8571 10.2857C24.5857 10.2857 26 8.87143 26 7.14286C26 5.41429 24.5857 4 22.8571 4C21.3643 4 20.1857 5.02143 19.7929 6.35714H10.2857C7.69286 6.35714 5.57143 8.47857 5.57143 11.0714C5.57143 13.6643 7.69286 15.7857 10.2857 15.7857H19.7143C21.4429 15.7857 22.8571 17.2 22.8571 18.9286C22.8571 20.6571 21.4429 22.0714 19.7143 22.0714H10.2071C9.89286 20.7357 8.63571 19.7143 7.14286 19.7143C5.41429 19.7143 4 21.1286 4 22.8571C4 24.5857 5.41429 26 7.14286 26C8.63571 26 9.81429 24.9786 10.2071 23.6429H19.7143C22.3071 23.6429 24.4286 21.5214 24.4286 18.9286C24.4286 16.3357 22.3071 14.2143 19.7143 14.2143H10.2857C8.55714 14.2143 7.14286 12.8 7.14286 11.0714C7.14286 9.34286 8.55714 7.92857 10.2857 7.92857Z" fill="white"/>
</svg>
