<svg width="194" height="58" viewBox="0 0 194 58" fill="none" xmlns="http://www.w3.org/2000/svg">
<g clip-path="url(#clip0_575_28)">
<path d="M28.957 28.7921C28.957 26.7814 29.392 24.9931 30.262 23.4271C31.132 21.8418 32.3403 20.6141 33.887 19.7441C35.453 18.8548 37.222 18.4101 39.194 18.4101C41.6107 18.4101 43.6793 19.0481 45.4 20.3241C47.1207 21.6001 48.271 23.3401 48.851 25.5441H43.399C42.993 24.6934 42.413 24.0458 41.659 23.6011C40.9243 23.1564 40.0833 22.9341 39.136 22.9341C37.6087 22.9341 36.3713 23.4658 35.424 24.5291C34.4767 25.5924 34.003 27.0134 34.003 28.7921C34.003 30.5708 34.4767 31.9918 35.424 33.0551C36.3713 34.1184 37.6087 34.6501 39.136 34.6501C40.0833 34.6501 40.9243 34.4278 41.659 33.9831C42.413 33.5384 42.993 32.8908 43.399 32.0401H48.851C48.271 34.2441 47.1207 35.984 45.4 37.26C43.6793 38.5167 41.6107 39.1451 39.194 39.1451C37.222 39.1451 35.453 38.7101 33.887 37.8401C32.3403 36.9508 31.132 35.7231 30.262 34.1571C29.392 32.5911 28.957 30.8028 28.957 28.7921ZM68.8528 18.6421V22.6151H63.4588V39.0001H58.4998V22.6151H53.1058V18.6421H68.8528ZM81.2886 18.6421C83.4346 18.6421 85.31 19.0674 86.9146 19.9181C88.5193 20.7688 89.7566 21.9674 90.6266 23.5141C91.516 25.0414 91.9606 26.8104 91.9606 28.8211C91.9606 30.8124 91.516 32.5813 90.6266 34.128C89.7566 35.6747 88.5096 36.8734 86.8856 37.7241C85.281 38.5748 83.4153 39.0001 81.2886 39.0001H73.6616V18.6421H81.2886ZM80.9696 34.7081C82.845 34.7081 84.3046 34.1958 85.3486 33.1711C86.3926 32.1464 86.9146 30.6964 86.9146 28.8211C86.9146 26.9458 86.3926 25.4861 85.3486 24.4421C84.3046 23.3981 82.845 22.8761 80.9696 22.8761H78.6206V34.7081H80.9696ZM104.418 39.2031C102.929 39.2031 101.595 38.9614 100.416 38.4781C99.2366 37.9948 98.2893 37.2794 97.5739 36.3321C96.8779 35.3848 96.5106 34.2441 96.4719 32.9101H101.75C101.827 33.6641 102.088 34.2441 102.533 34.6501C102.978 35.0368 103.558 35.2301 104.273 35.2301C105.008 35.2301 105.588 35.0658 106.013 34.7371C106.438 34.3891 106.651 33.9154 106.651 33.3161C106.651 32.8134 106.477 32.3978 106.129 32.0691C105.8 31.7404 105.385 31.4698 104.882 31.2571C104.399 31.0444 103.703 30.8028 102.794 30.5321C101.479 30.1261 100.406 29.7201 99.5749 29.3141C98.7436 28.9081 98.0283 28.3088 97.4289 27.5161C96.8296 26.7234 96.5299 25.6891 96.5299 24.4131C96.5299 22.5184 97.2163 21.0394 98.5889 19.9761C99.9616 18.8934 101.75 18.3521 103.954 18.3521C106.197 18.3521 108.004 18.8934 109.377 19.9761C110.75 21.0394 111.484 22.5281 111.581 24.4421H106.216C106.177 23.7848 105.936 23.2724 105.491 22.9051C105.046 22.5184 104.476 22.3251 103.78 22.3251C103.181 22.3251 102.697 22.4894 102.33 22.8181C101.963 23.1274 101.779 23.5818 101.779 24.1811C101.779 24.8384 102.088 25.3508 102.707 25.7181C103.326 26.0854 104.292 26.4818 105.607 26.9071C106.922 27.3518 107.985 27.7771 108.797 28.1831C109.628 28.5891 110.344 29.1788 110.943 29.9521C111.542 30.7254 111.842 31.7211 111.842 32.9391C111.842 34.0991 111.542 35.1527 110.943 36.1C110.363 37.0473 109.512 37.8014 108.391 38.3621C107.27 38.9228 105.945 39.2031 104.418 39.2031ZM122.173 22.6151V26.7331H128.814V30.5611H122.173V35.0271H129.684V39.0001H117.214V18.6421H129.684V22.6151H122.173ZM134.382 28.7921C134.382 26.7814 134.817 24.9931 135.687 23.4271C136.557 21.8418 137.766 20.6141 139.312 19.7441C140.878 18.8548 142.647 18.4101 144.619 18.4101C147.036 18.4101 149.105 19.0481 150.825 20.3241C152.546 21.6001 153.696 23.3401 154.276 25.5441H148.824C148.418 24.6934 147.838 24.0458 147.084 23.6011C146.35 23.1564 145.509 22.9341 144.561 22.9341C143.034 22.9341 141.797 23.4658 140.849 24.5291C139.902 25.5924 139.428 27.0134 139.428 28.7921C139.428 30.5708 139.902 31.9918 140.849 33.0551C141.797 34.1184 143.034 34.6501 144.561 34.6501C145.509 34.6501 146.35 34.4278 147.084 33.9831C147.838 33.5384 148.418 32.8908 148.824 32.0401H154.276C153.696 34.2441 152.546 35.984 150.825 37.26C149.105 38.5167 147.036 39.1451 144.619 39.1451C142.647 39.1451 140.878 38.7101 139.312 37.8401C137.766 36.9508 136.557 35.7231 135.687 34.1571C134.817 32.5911 134.382 30.8028 134.382 28.7921Z" fill="white" fill-opacity="1"/>
<path d="M163.5 25C166.538 25 169 22.5376 169 19.5C169 16.4624 166.538 14 163.5 14C160.462 14 158 16.4624 158 19.5C158 22.5376 160.462 25 163.5 25Z" fill="#E7A47F"/>
</g>
<defs>
<clipPath id="clip0_575_28">
<rect width="194" height="58" fill="white"/>
</clipPath>
</defs>
</svg>
