<svg width="194" height="58" viewBox="0 0 194 58" fill="none" xmlns="http://www.w3.org/2000/svg">
<g clip-path="url(#clip0_19_1275)">
<path fill-rule="evenodd" clip-rule="evenodd" d="M25.1592 13.9655C23.1037 15.0332 21.422 15.9367 21.4223 15.9735C21.4232 16.0683 26.3556 18.5592 26.5307 18.5531C26.6104 18.5504 27.1881 18.2853 27.8144 17.9639L28.9535 17.3797L30.1975 18.0173L31.4414 18.655L33.4786 17.7423C36.5483 16.3668 36.8671 16.2161 36.8171 16.1655C36.7508 16.0983 35.6498 15.5085 32.6627 13.9404C31.219 13.1825 29.8178 12.4394 29.5488 12.289C29.2799 12.1387 29.0231 12.0177 28.9783 12.0201C28.9334 12.0224 27.2148 12.8979 25.1592 13.9655ZM16.1436 18.6208L14.0039 19.7229V24.5598C14.0039 27.2202 14.032 29.3968 14.0664 29.3968C14.1008 29.3968 15.1535 28.9417 16.4059 28.3855L18.6828 27.3743V22.2758L19.7955 22.8803C20.6529 23.3456 21.5109 23.8101 22.3693 24.2736L23.8304 25.0624L24.4805 24.7692C24.8883 24.5851 25.2952 24.3991 25.7013 24.2114C26.0151 24.0657 26.7854 23.7197 27.4131 23.4424C28.0407 23.165 28.6218 22.8861 28.7041 22.8225C28.8136 22.7381 27.4791 22.0027 23.7682 20.1026C20.971 18.6702 18.5926 17.5029 18.4829 17.5085C18.3732 17.5141 17.3206 18.0145 16.1436 18.6208ZM37.2027 18.9303C35.7454 19.5863 34.552 20.1492 34.5507 20.1813C34.5494 20.2134 35.3437 20.6843 36.3159 21.2277C37.288 21.7712 38.0834 22.2449 38.0834 22.2806C38.0834 22.3162 37.2232 22.7318 36.1719 23.2043C35.1205 23.6768 32.4629 24.8735 30.2661 25.8637L22.9053 29.1814C21.0537 30.0161 19.3847 30.7684 19.1964 30.8534C15.4144 32.5606 14.3749 33.0343 14.2321 33.1156C14.0886 33.1975 14.056 33.6731 14.0305 36.0602L14 38.9074L15.9135 39.8795L17.8269 40.8517L20.4802 39.6577C21.9396 39.001 23.1336 38.4293 23.1336 38.3872C23.1336 38.3452 22.8639 38.17 22.5344 37.9977C22.2048 37.8254 21.5244 37.444 21.0223 37.1499C20.5202 36.8558 20.0195 36.586 19.9096 36.5502C19.7997 36.5145 19.7114 36.4521 19.7132 36.4114C19.7151 36.3708 20.8834 35.8174 22.3095 35.1815C25.0793 33.9467 27.199 32.9949 31.7497 30.9429C33.7846 30.0255 35.8197 29.1086 37.8552 28.1923C39.644 27.3872 41.7239 26.4469 42.4771 26.1028L43.8465 25.4771L43.877 22.5975L43.9076 19.7181L41.9668 18.7248C40.8994 18.1785 39.9869 17.7329 39.9391 17.7346C39.8913 17.7361 38.66 18.2741 37.2027 18.9303ZM43.3266 29.3185C43.0406 29.4578 42.4757 29.7186 42.0712 29.898C41.6668 30.0774 40.8994 30.4227 40.3658 30.6655L39.3958 31.1066L39.3737 33.6346C39.3614 35.025 39.3101 36.1564 39.2596 36.149C39.1447 36.132 37.3267 35.2023 35.4991 34.2258C34.1801 33.5211 34.0973 33.4931 33.7873 33.6462C33.6081 33.7347 32.5371 34.2136 31.4073 34.7107C30.2775 35.2077 29.3163 35.6467 29.2711 35.6865C29.226 35.7262 31.4999 36.9551 34.3243 38.4175L39.4594 41.0765L41.653 39.945C42.8594 39.3227 43.8852 38.7551 43.9324 38.6837C44.0388 38.5232 44.0297 29.0432 43.9232 29.056C43.8811 29.0611 43.6126 29.1792 43.3266 29.3185ZM31.1791 40.4456C30.7986 40.6088 30.4182 40.7721 30.0379 40.9357C28.8895 41.4311 29.1145 41.4475 27.7483 40.7693C26.8383 40.3177 26.446 40.1783 26.2758 40.2459C26.1481 40.2967 25.049 40.7897 23.8331 41.3416C22.6174 41.8935 21.5805 42.3451 21.5289 42.3451C21.0188 42.3451 21.8668 42.8503 25.1391 44.4962L28.9768 46.4263L30.5915 45.6315C31.4796 45.1943 33.2708 44.3188 34.5721 43.686C35.8733 43.053 36.9219 42.5187 36.9023 42.4986C36.8825 42.4785 35.7922 41.9202 34.4792 41.258L32.0921 40.054L31.1791 40.4456Z" fill="#05A3C9"/>
</g>
<path d="M65.3116 39.6359H57.877V18.6633H65.373C67.4825 18.6633 69.2985 19.0832 70.8209 19.9229C72.3434 20.7558 73.5142 21.9539 74.3334 23.5173C75.1595 25.0807 75.5725 26.9513 75.5725 29.1291C75.5725 31.3138 75.1595 33.1912 74.3334 34.7614C73.5142 36.3316 72.3365 37.5366 70.8005 38.3763C69.2712 39.216 67.4416 39.6359 65.3116 39.6359ZM62.3111 35.8366H65.1272C66.438 35.8366 67.5406 35.6045 68.4349 35.1403C69.3361 34.6692 70.0119 33.9422 70.4625 32.9591C70.9199 31.9691 71.1486 30.6925 71.1486 29.1291C71.1486 27.5794 70.9199 26.313 70.4625 25.3299C70.0119 24.3468 69.3395 23.6231 68.4451 23.1589C67.5508 22.6947 66.4482 22.4626 65.1375 22.4626H62.3111V35.8366Z" fill="white" fill-opacity="1"/>
<path d="M85.9436 39.9431C84.3256 39.9431 82.9329 39.6154 81.7655 38.96C80.6049 38.2978 79.7105 37.3625 79.0825 36.1541C78.4544 34.9389 78.1403 33.5018 78.1403 31.8428C78.1403 30.2249 78.4544 28.8048 79.0825 27.5828C79.7105 26.3608 80.5946 25.4084 81.7347 24.7257C82.8817 24.043 84.2266 23.7017 85.7695 23.7017C86.8072 23.7017 87.7732 23.8689 88.6676 24.2034C89.5687 24.5311 90.3538 25.0261 91.0229 25.6883C91.6988 26.3505 92.2244 27.1834 92.5999 28.187C92.9754 29.1837 93.1631 30.3512 93.1631 31.6892V32.8874H79.8812V30.1839H89.0567C89.0567 29.5558 88.9202 28.9994 88.6471 28.5147C88.374 28.03 87.9951 27.6511 87.5104 27.378C87.0325 27.0981 86.4761 26.9581 85.8412 26.9581C85.179 26.9581 84.5918 27.1117 84.0798 27.419C83.5746 27.7193 83.1787 28.1255 82.8919 28.6376C82.6052 29.1428 82.4584 29.706 82.4516 30.3273V32.8976C82.4516 33.6759 82.595 34.3484 82.8817 34.915C83.1752 35.4816 83.5883 35.9186 84.1208 36.2258C84.6533 36.533 85.2848 36.6866 86.0153 36.6866C86.5 36.6866 86.9437 36.6183 87.3465 36.4818C87.7493 36.3453 88.0941 36.1404 88.3808 35.8674C88.6676 35.5943 88.886 35.2598 89.0362 34.8638L93.071 35.13C92.8662 36.0995 92.4463 36.946 91.8114 37.6697C91.1833 38.3865 90.3709 38.9463 89.3742 39.3491C88.3842 39.7451 87.2407 39.9431 85.9436 39.9431Z" fill="white" fill-opacity="1"/>
<path d="M99.374 23.9065L102.262 29.4056L105.221 23.9065H109.696L105.139 31.7712L109.819 39.6359H105.365L102.262 34.1982L99.2102 39.6359H94.7043L99.374 31.7712L94.8682 23.9065H99.374Z" fill="white" fill-opacity="1"/>
<path d="M120.654 23.9065V27.1834H111.181V23.9065H120.654ZM113.332 20.138H117.694V34.8024C117.694 35.2051 117.756 35.5192 117.879 35.7445C118.001 35.9629 118.172 36.1165 118.391 36.2053C118.616 36.2941 118.875 36.3384 119.169 36.3384C119.374 36.3384 119.579 36.3214 119.783 36.2872C119.988 36.2463 120.145 36.2155 120.254 36.1951L120.94 39.4413C120.722 39.5096 120.415 39.5881 120.019 39.6768C119.623 39.7724 119.142 39.8304 118.575 39.8509C117.524 39.8919 116.602 39.7519 115.81 39.4311C115.025 39.1102 114.414 38.6118 113.977 37.9359C113.54 37.2601 113.325 36.4067 113.332 35.3758V20.138Z" fill="white" fill-opacity="1"/>
<path d="M130.433 39.9431C128.843 39.9431 127.467 39.6051 126.307 38.9293C125.153 38.2466 124.262 37.2976 123.634 36.0824C123.006 34.8604 122.692 33.4438 122.692 31.8326C122.692 30.2078 123.006 28.7878 123.634 27.5726C124.262 26.3505 125.153 25.4016 126.307 24.7257C127.467 24.043 128.843 23.7017 130.433 23.7017C132.024 23.7017 133.396 24.043 134.55 24.7257C135.711 25.4016 136.605 26.3505 137.233 27.5726C137.861 28.7878 138.175 30.2078 138.175 31.8326C138.175 33.4438 137.861 34.8604 137.233 36.0824C136.605 37.2976 135.711 38.2466 134.55 38.9293C133.396 39.6051 132.024 39.9431 130.433 39.9431ZM130.454 36.5637C131.178 36.5637 131.782 36.3589 132.266 35.9493C132.751 35.5328 133.116 34.9662 133.362 34.2494C133.615 33.5325 133.741 32.7167 133.741 31.8019C133.741 30.8871 133.615 30.0712 133.362 29.3544C133.116 28.6376 132.751 28.0709 132.266 27.6545C131.782 27.238 131.178 27.0298 130.454 27.0298C129.723 27.0298 129.109 27.238 128.611 27.6545C128.119 28.0709 127.747 28.6376 127.494 29.3544C127.249 30.0712 127.126 30.8871 127.126 31.8019C127.126 32.7167 127.249 33.5325 127.494 34.2494C127.747 34.9662 128.119 35.5328 128.611 35.9493C129.109 36.3589 129.723 36.5637 130.454 36.5637Z" fill="white" fill-opacity="1"/>
<path d="M148.119 39.9431C146.528 39.9431 145.152 39.6051 143.992 38.9293C142.838 38.2466 141.947 37.2976 141.319 36.0824C140.691 34.8604 140.377 33.4438 140.377 31.8326C140.377 30.2078 140.691 28.7878 141.319 27.5726C141.947 26.3505 142.838 25.4016 143.992 24.7257C145.152 24.043 146.528 23.7017 148.119 23.7017C149.709 23.7017 151.082 24.043 152.235 24.7257C153.396 25.4016 154.29 26.3505 154.918 27.5726C155.547 28.7878 155.861 30.2078 155.861 31.8326C155.861 33.4438 155.547 34.8604 154.918 36.0824C154.29 37.2976 153.396 38.2466 152.235 38.9293C151.082 39.6051 149.709 39.9431 148.119 39.9431ZM148.139 36.5637C148.863 36.5637 149.467 36.3589 149.952 35.9493C150.437 35.5328 150.802 34.9662 151.048 34.2494C151.3 33.5325 151.426 32.7167 151.426 31.8019C151.426 30.8871 151.3 30.0712 151.048 29.3544C150.802 28.6376 150.437 28.0709 149.952 27.6545C149.467 27.238 148.863 27.0298 148.139 27.0298C147.409 27.0298 146.794 27.238 146.296 27.6545C145.804 28.0709 145.432 28.6376 145.18 29.3544C144.934 30.0712 144.811 30.8871 144.811 31.8019C144.811 32.7167 144.934 33.5325 145.18 34.2494C145.432 34.9662 145.804 35.5328 146.296 35.9493C146.794 36.3589 147.409 36.5637 148.139 36.5637Z" fill="white" fill-opacity="1"/>
<path d="M163.06 18.6633V39.6359H158.697V18.6633H163.06Z" fill="white" fill-opacity="1"/>
<path d="M179.642 28.3918L175.648 28.6376C175.58 28.2962 175.433 27.989 175.207 27.7159C174.982 27.436 174.685 27.2141 174.317 27.0503C173.955 26.8796 173.521 26.7943 173.016 26.7943C172.34 26.7943 171.77 26.9377 171.306 27.2244C170.842 27.5043 170.609 27.8798 170.609 28.3508C170.609 28.7263 170.76 29.0438 171.06 29.3032C171.36 29.5626 171.876 29.7709 172.606 29.9279L175.453 30.5013C176.982 30.8154 178.123 31.3206 178.874 32.0169C179.625 32.7133 180 33.6281 180 34.7614C180 35.7923 179.696 36.6968 179.089 37.4751C178.488 38.2534 177.662 38.861 176.61 39.2979C175.566 39.728 174.361 39.9431 172.995 39.9431C170.913 39.9431 169.254 39.5096 168.019 38.6425C166.79 37.7687 166.069 36.5808 165.858 35.0788L170.149 34.8536C170.278 35.4885 170.592 35.9732 171.091 36.3077C171.589 36.6354 172.227 36.7992 173.006 36.7992C173.77 36.7992 174.385 36.6525 174.849 36.3589C175.32 36.0585 175.559 35.6728 175.566 35.2017C175.559 34.8058 175.392 34.4815 175.064 34.2289C174.736 33.9695 174.231 33.7715 173.548 33.6349L170.825 33.0922C169.288 32.785 168.145 32.2525 167.394 31.4947C166.65 30.7369 166.278 29.7709 166.278 28.5966C166.278 27.5862 166.551 26.7158 167.097 25.9853C167.65 25.2548 168.425 24.6916 169.422 24.2956C170.425 23.8996 171.599 23.7017 172.944 23.7017C174.931 23.7017 176.494 24.1215 177.634 24.9612C178.781 25.801 179.45 26.9445 179.642 28.3918Z" fill="white" fill-opacity="1"/>
<defs>
<clipPath id="clip0_19_1275">
<rect width="30.0388" height="34.4445" fill="white" transform="translate(14 12)"/>
</clipPath>
</defs>
</svg>
