<svg width="30" height="30" viewBox="0 0 30 30" fill="none" xmlns="http://www.w3.org/2000/svg">
<g clip-path="url(#clip0_618_10)">
<path d="M18.6598 17.5961C17.5519 17.5226 16.6809 16.5948 16.6809 15.4608C16.6809 15.4229 16.6816 15.3851 16.6838 15.3472V15.3524C16.6816 15.3168 16.6802 15.2752 16.6802 15.2329C16.6802 14.1011 17.5527 13.1763 18.654 13.1088H18.6598C19.7662 13.1696 20.6402 14.0922 20.6402 15.2218C20.6402 15.2678 20.6388 15.3131 20.6358 15.3584V15.3524C20.638 15.3895 20.6395 15.4333 20.6395 15.4771C20.6395 16.6075 19.7662 17.5315 18.665 17.5953H18.6591L18.6598 17.5961ZM11.3526 17.5961C10.2448 17.5226 9.3737 16.5948 9.3737 15.4608C9.3737 15.4229 9.37444 15.3851 9.37664 15.3472V15.3524C9.37444 15.3168 9.37297 15.2752 9.37297 15.2329C9.37297 14.1011 10.2455 13.1763 11.3468 13.1088H11.3526C12.4591 13.1696 13.333 14.0922 13.333 15.2218C13.333 15.2678 13.3316 15.3131 13.3286 15.3584V15.3524C13.3308 15.388 13.3323 15.4296 13.3323 15.4719C13.3323 16.6038 12.4598 17.5285 11.3585 17.5961H11.3526ZM22.6199 7.42947C21.3272 6.81196 19.8256 6.3236 18.2536 6.04082L18.1444 6.02449C18.1407 6.02375 18.1363 6.02301 18.1319 6.02301C18.1062 6.02301 18.0843 6.03711 18.0725 6.05789C17.9009 6.36293 17.7147 6.74368 17.5468 7.13408L17.5153 7.21646C16.7601 7.094 15.889 7.02423 15.0018 7.02423C14.1146 7.02423 13.2436 7.094 12.3938 7.22833L12.4884 7.21572C12.2904 6.74813 12.1012 6.36813 11.8923 6L11.9223 6.05715C11.9099 6.03563 11.8872 6.02227 11.8615 6.02227C11.8578 6.02227 11.8534 6.02227 11.8498 6.02301C10.1685 6.32211 8.66689 6.80974 7.26352 7.47549L7.37424 7.42798C7.36177 7.43318 7.35151 7.44209 7.34491 7.45322C5.25232 10.4524 4 14.1842 4 18.2121C4 18.8853 4.03519 19.5495 4.10338 20.2041L4.09678 20.1225C4.09898 20.144 4.10998 20.1618 4.12538 20.1745C5.69445 21.3627 7.51868 22.3201 9.48735 22.9488L9.6164 22.9844C9.62226 22.9866 9.62959 22.9874 9.63693 22.9874C9.66039 22.9874 9.68092 22.9762 9.69338 22.9592C10.0857 22.4248 10.4589 21.8192 10.7822 21.1838L10.8167 21.1096C10.8211 21.1007 10.824 21.0896 10.824 21.0777C10.824 21.0473 10.8049 21.022 10.7785 21.0117C10.1098 20.7504 9.54381 20.4721 9.00563 20.1529L9.06209 20.1841C9.04083 20.1715 9.0269 20.1485 9.0269 20.1225C9.0269 20.0995 9.03789 20.0787 9.05476 20.0661C9.16987 19.9785 9.28572 19.888 9.3957 19.7959C9.40743 19.7863 9.42283 19.7804 9.43896 19.7804C9.44923 19.7804 9.45876 19.7826 9.46682 19.7863C11.0857 20.5738 12.9855 21.0339 14.9916 21.0339C16.9976 21.0339 18.8989 20.5738 20.5955 19.7522L20.517 19.7863C20.5258 19.7818 20.5354 19.7796 20.5464 19.7796C20.5625 19.7796 20.5779 19.7855 20.5896 19.7952C20.6996 19.8872 20.8147 19.9793 20.9313 20.0661C20.9482 20.0795 20.9592 20.1002 20.9592 20.1232C20.9592 20.1492 20.9452 20.1715 20.9254 20.1841C20.4408 20.4773 19.8755 20.7549 19.2867 20.9842L19.2097 21.0109C19.1833 21.0213 19.1643 21.0473 19.1643 21.077C19.1643 21.0888 19.1672 21.1 19.1723 21.1096C19.5397 21.8221 19.9121 22.4263 20.3242 23L20.2949 22.9577C20.3073 22.9755 20.3286 22.9874 20.3513 22.9874C20.3587 22.9874 20.366 22.9859 20.3726 22.9844C22.4733 22.3224 24.3004 21.3649 25.9193 20.1403L25.8717 20.1752C25.8878 20.1633 25.8981 20.1448 25.9003 20.124C25.9641 19.5421 26 18.8667 26 18.1831C26 14.1642 24.7447 10.442 22.6104 7.39607L22.6485 7.45396C22.6426 7.44209 22.6324 7.43244 22.6206 7.42724L22.6199 7.42947Z" fill="white"/>
</g>
<defs>
<clipPath id="clip0_618_10">
<rect width="30" height="30" fill="white"/>
</clipPath>
</defs>
</svg>
