<svg width="194" height="58" viewBox="0 0 194 58" fill="none" xmlns="http://www.w3.org/2000/svg">
<g clip-path="url(#clip0_607_138)">
<path d="M54.5284 25.4987L38.7694 4C31.5747 10.1115 33.7089 17.4558 35.6753 20.3641L43.9676 31.7605C46.6737 37.8052 42.2348 40.847 39.677 41.6123C44.9576 42.681 46.8827 48.7927 47.1853 51.7146C60.2875 44.6013 57.5399 31.2736 54.5284 25.4987Z" fill="url(#paint0_linear_607_138)"/>
<path d="M20.9535 40.9441C17.7192 31.8603 23.4838 22.8267 26.7704 19.4453C28.3793 20.3637 30.4007 22.5762 32.0096 25.7488C33.2967 28.2868 32.7384 32.5672 32.2984 34.3902C32.2654 41.0359 37.4277 41.9181 40.0129 41.5283C45.6893 42.7308 47.3101 48.6807 47.4339 51.589C43.3085 54.4278 36.9601 54.052 34.2786 53.4258C31.1845 53.0502 24.1879 50.0278 20.9535 40.9441Z" fill="url(#paint1_linear_607_138)"/>
<path d="M68.2079 25.708H71.0237C73.3619 25.708 73.6254 26.0579 73.6254 29.2071C73.6254 32.3563 73.3619 32.7062 71.0237 32.7062H68.2079L68.1914 29.2071L68.2079 25.708ZM64.75 35.7054H71.386C76.0789 35.7054 77.248 34.4057 77.248 29.2071C77.248 24.0084 76.0789 22.7087 71.386 22.7087H64.75V35.7054ZM81.7575 35.7054H85.2154V25.708H89.1838V22.7087H77.822V25.708H81.7575V35.7054ZM102.854 30.1902H99.2315C99.2644 32.7895 98.968 33.0727 96.3334 33.0727C93.6823 33.0727 93.3859 32.6895 93.3859 29.2071C93.3859 25.7246 93.6823 25.3414 96.3334 25.3414C98.968 25.3414 99.2644 25.6247 99.2315 28.1907H102.854C102.887 23.6418 101.586 22.5088 96.3334 22.5088C91.0806 22.5088 89.7633 23.8418 89.7633 29.2071C89.7633 34.5724 91.0806 35.9053 96.3334 35.9053C101.586 35.9053 102.887 34.7556 102.854 30.1902Z" fill="white" fill-opacity="1"/>
<path d="M115.573 28.7405V31.4065H118.208C118.142 32.5729 117.253 33.0727 115.277 33.0727C112.692 33.0727 112.412 32.6895 112.412 29.2071C112.412 25.7246 112.692 25.3414 115.277 25.3414C117.862 25.3414 118.142 25.5413 118.109 27.3409H121.732C121.764 23.4752 120.481 22.5088 115.277 22.5088C110.09 22.5088 108.789 23.8418 108.789 29.2071C108.789 34.5724 110.09 35.9053 115.277 35.9053C117.138 35.9053 118.191 35.2055 118.603 33.6226V35.7054H121.732V28.7405H115.573ZM130.565 22.7087H123.221V35.7054H126.679V31.1232H129.248C131.043 31.1232 131.223 31.2732 131.223 32.7062V35.7054H134.846V32.5062C134.846 30.84 133.973 30.0735 132.261 29.8902C134.056 29.6403 134.846 28.6239 134.846 26.4744C134.846 23.4585 133.99 22.7087 130.565 22.7087ZM126.679 28.4573V25.5413H129.675C131.223 25.5413 131.388 25.6913 131.388 26.9743C131.388 28.3073 131.223 28.4573 129.675 28.4573H126.679ZM142.666 25.3414C145.416 25.3414 145.712 25.7246 145.712 29.2071C145.712 32.6895 145.416 33.0727 142.666 33.0727C139.916 33.0727 139.62 32.6895 139.62 29.2071C139.62 25.7246 139.916 25.3414 142.666 25.3414ZM135.997 29.2071C135.997 34.5724 137.331 35.9053 142.666 35.9053C148.001 35.9053 149.335 34.5724 149.335 29.2071C149.335 23.8418 148.001 22.5088 142.666 22.5088C137.331 22.5088 135.997 23.8418 135.997 29.2071ZM161.884 30.3734V22.7087H158.426V30.3734C158.426 32.8061 158.196 33.0727 156.187 33.0727C154.178 33.0727 153.947 32.8061 153.947 30.3734V22.7087H150.489V30.3734C150.489 34.8056 151.625 35.9053 156.187 35.9053C160.748 35.9053 161.884 34.8056 161.884 30.3734ZM163.374 22.7087V35.7054H166.832V31.4565H171.014C174.208 31.2899 174.999 30.4068 174.999 27.041C174.999 23.5752 174.143 22.7087 170.718 22.7087H163.374ZM166.832 28.4573V25.5413H169.829C171.377 25.5413 171.541 25.6913 171.541 27.0576C171.541 28.324 171.377 28.4573 169.829 28.4573H166.832Z" fill="white" fill-opacity="1"/>
</g>
<defs>
<linearGradient id="paint0_linear_607_138" x1="45.403" y1="4" x2="45.403" y2="51.7146" gradientUnits="userSpaceOnUse">
<stop stop-color="#FE552C"/>
<stop offset="1" stop-color="#F1951A"/>
</linearGradient>
<linearGradient id="paint1_linear_607_138" x1="33.7169" y1="19.4453" x2="33.7169" y2="53.8685" gradientUnits="userSpaceOnUse">
<stop stop-color="#F4891E"/>
<stop offset="1" stop-color="#FE592B"/>
</linearGradient>
<clipPath id="clip0_607_138">
<rect width="194" height="58" fill="white"/>
</clipPath>
</defs>
</svg>
