<svg width="100" height="100" viewBox="0 0 100 100" fill="none" xmlns="http://www.w3.org/2000/svg">
<path d="M43.6631 48.4668L49.5001 52.2488L55.3372 48.4668L49.5001 35.1481L43.6631 48.4668Z" fill="url(#paint0_linear_83_1730)"/>
<path d="M49.0405 59.1158L45.0723 56.54L49.5003 64.2574L53.9283 56.54L49.9601 59.1158C49.6799 59.2971 49.3207 59.2971 49.0405 59.1158Z" fill="url(#paint1_linear_83_1730)"/>
<path d="M88.3746 42.9777L82.4592 41.2271C81.7212 41.0087 81.162 40.4254 80.935 39.69C80.3479 37.7873 79.5809 35.9509 78.6578 34.2161C78.294 33.5324 78.2772 32.72 78.6485 32.0404L81.6074 26.6252C82.0909 25.7406 81.9327 24.643 81.2191 23.9308L75.067 17.7909C74.3556 17.0808 73.2619 16.9233 72.379 17.4039L66.9549 20.3562C66.2778 20.7247 65.4687 20.7084 64.7874 20.3478C63.0433 19.4248 61.2101 18.6633 59.3058 18.0693C58.5728 17.8406 57.9924 17.2799 57.7759 16.5433L56.0371 10.6292C55.7531 9.6633 54.8666 9 53.8599 9H45.1569C44.1501 9 43.2636 9.6633 42.9797 10.6292L41.2431 16.5362C41.0253 17.2767 40.4396 17.8377 39.7017 18.0648C37.7904 18.6528 35.9573 19.4211 34.2143 20.3459C33.5322 20.708 32.7214 20.7238 32.0435 20.3541L26.6385 17.406C25.7555 16.9244 24.6607 17.0814 23.9488 17.792L17.7957 23.9328C17.0832 24.6441 16.9243 25.7398 17.4057 26.6241L20.355 32.0427C20.7243 32.7211 20.7066 33.5311 20.3446 34.2133C19.4225 35.9509 18.6617 37.7905 18.0683 39.6964C17.8403 40.4283 17.2812 41.008 16.546 41.2255L10.6254 42.9777C9.66145 43.2629 9 44.1485 9 45.1537V53.842C9 54.8492 9.66392 55.7359 10.6304 56.0196L16.554 57.7578C17.294 57.975 17.8553 58.5593 18.083 59.2962C18.6711 61.1992 19.4384 63.0311 20.3552 64.774C20.7125 65.4532 20.7266 66.2585 20.3603 66.9329L17.4036 72.3765C16.9233 73.2606 17.0826 74.3553 17.7947 75.066L23.9499 81.209C24.6613 81.9191 25.7551 82.0766 26.6379 81.596L32.0664 78.6412C32.7411 78.274 33.5472 78.2878 34.2271 78.6453C35.9696 79.5619 37.8011 80.329 39.7037 80.917C40.4405 81.1447 41.0249 81.706 41.2421 82.446L42.9803 88.3696C43.264 89.3361 44.1507 90 45.1579 90H53.862C54.8678 90 55.7536 89.338 56.0385 88.3735L57.7919 82.4373C58.0091 81.7021 58.5892 81.1427 59.321 80.9141C61.2203 80.3209 63.0416 79.5617 64.7727 78.6485C65.4528 78.2897 66.2597 78.274 66.9355 78.641L72.3796 81.598C73.2623 82.0775 74.355 81.9197 75.066 81.2101L81.2202 75.068C81.9333 74.3564 82.0918 73.2598 81.6096 72.3754L78.6449 66.9384C78.2757 66.2611 78.2918 65.4514 78.6526 64.7695C79.5737 63.0284 80.3326 61.1986 80.9174 59.2979C81.1444 58.5599 81.7065 57.9748 82.4473 57.7574L88.3696 56.0196C89.3361 55.7359 90 54.8492 90 53.842V45.1537C90 44.1485 89.3386 43.2629 88.3746 42.9777ZM49.4996 72.4922C36.8219 72.4922 26.5074 62.1777 26.5074 49.5C26.5074 36.8223 36.8219 26.5078 49.4996 26.5078C62.1773 26.5078 72.4918 36.8223 72.4918 49.5C72.4918 62.1777 62.1773 72.4922 49.4996 72.4922Z" fill="url(#paint2_linear_83_1730)"/>
<defs>
<linearGradient id="paint0_linear_83_1730" x1="49.5001" y1="35.1481" x2="49.0518" y2="56.688" gradientUnits="userSpaceOnUse">
<stop offset="0.135" stop-color="white"/>
<stop offset="1" stop-color="#fff"/>
</linearGradient>
<linearGradient id="paint1_linear_83_1730" x1="49.5003" y1="56.54" x2="49.3799" y2="66.2635" gradientUnits="userSpaceOnUse">
<stop offset="0.135" stop-color="white"/>
<stop offset="1" stop-color="#fff"/>
</linearGradient>
<linearGradient id="paint2_linear_83_1730" x1="49.5" y1="9" x2="48.0501" y2="111.05" gradientUnits="userSpaceOnUse">
<stop offset="0.135" stop-color="white"/>
<stop offset="1" stop-color="#fff"/>
</linearGradient>
</defs>
</svg>
