<svg width="30" height="30" viewBox="0 0 30 30" fill="none" xmlns="http://www.w3.org/2000/svg">
<mask id="path-1-outside-1_84_1737" maskUnits="userSpaceOnUse" x="2" y="2" width="26" height="26" fill="black">
<rect fill="white" x="2" y="2" width="26" height="26"/>
<path d="M15.1709 3.00002C15.0924 2.99925 15.0121 3.01716 14.9336 3.05456L3.40147 8.70904C3.39969 8.70982 3.39077 8.71449 3.3872 8.71683L3.37471 8.74098L3.28551 8.79084V8.7924C3.28462 8.79318 3.28283 8.79318 3.28194 8.79395V8.79551C3.27569 8.80252 3.26053 8.81888 3.25964 8.81966L3.25072 8.83057L3.24715 8.83525L3.24537 8.8368L3.24358 8.83836C3.23199 8.85706 3.22753 8.86563 3.22128 8.87654C3.2195 8.88043 3.21504 8.889 3.21415 8.89056H3.21593C3.21504 8.89134 3.20969 8.89679 3.20879 8.89835C3.2079 8.90069 3.19541 8.91549 3.19452 8.91783L3.19274 8.91938L3.19095 8.92094V8.9225L3.18203 8.94198L3.18025 8.94665L3.17846 8.95289C3.17757 8.95678 3.17936 8.95366 3.17846 8.95756C3.17757 8.9599 3.17579 8.96145 3.1749 8.96379C3.174 8.96613 3.17222 8.96769 3.17133 8.97002L3.16954 8.97626C3.17936 8.95133 3.16865 8.98093 3.16419 8.99418V9.06585L3.00006 20.6062C2.99738 20.748 3.08569 20.8851 3.22307 20.956L14.657 26.9439C14.7266 26.9797 14.8149 27 14.8979 27C14.9809 27 15.054 26.9836 15.1209 26.9501L15.1227 26.9486L26.6619 21.2957C26.8055 21.2263 26.8974 21.09 26.901 20.9427L27 9.31126V9.30191L26.9946 9.28399V9.23491C26.9946 9.23257 26.9911 9.21309 26.9911 9.21543V9.21387C26.9884 9.20686 26.9866 9.19829 26.9839 9.19128C26.9723 9.16323 26.9661 9.14609 26.9652 9.1422C26.9652 9.14142 26.9599 9.13129 26.9599 9.13129L26.9545 9.11727C26.9536 9.11571 26.9536 9.11415 26.9527 9.11259C26.9474 9.10169 26.942 9.09312 26.934 9.08377L26.9447 9.09467L26.9429 9.08844L26.9376 9.08533L26.9304 9.07442C26.9153 9.0565 26.8965 9.03625 26.876 9.01365L26.9215 9.05962C26.9206 9.05884 26.9161 9.04715 26.9144 9.04559C26.9242 9.06118 26.9224 9.06118 26.9367 9.07909L26.926 9.0565C26.9179 9.04481 26.9108 9.03625 26.9054 9.02612C26.9019 9.023 26.8965 9.00197 26.8912 8.99729L26.8787 8.99262L26.8769 8.99106L26.8421 8.97314C26.8519 8.98561 26.8385 8.97158 26.8457 8.97937C26.8591 8.98794 26.876 9.00041 26.8823 9.00352L26.8635 8.99418L26.8528 8.98794C26.8546 8.98794 26.8974 9.03469 26.8635 9.0043C26.8742 9.01365 26.843 8.97937 26.8475 8.98483H26.8457C26.8341 8.97781 26.8457 8.98405 26.8368 8.97859C26.8323 8.9747 26.8261 8.97002 26.8261 8.9708C26.8038 8.95678 26.7663 8.93419 26.7895 8.94821L26.7618 8.93185L15.4046 3.05845C15.3296 3.02028 15.2485 3.00158 15.1673 3.0008L15.1709 3.00002ZM15.1601 3.87492L25.6084 9.29178L15.0174 14.4897L4.56735 9.07286L14.8916 4.00736L15.1601 3.87492ZM3.51654 8.62801C3.51565 8.62879 3.51297 8.63035 3.51119 8.63113C3.50405 8.63736 3.49781 8.64359 3.48532 8.65216C3.49513 8.64515 3.50316 8.64126 3.50762 8.63658C3.51387 8.63191 3.51208 8.63191 3.51654 8.62801ZM26.6887 8.87186C26.6958 8.87809 26.7101 8.89134 26.7092 8.89134C26.7083 8.89134 26.7154 8.89445 26.7163 8.89445C26.7074 8.88744 26.7012 8.88199 26.6887 8.87186ZM26.81 8.87186L26.8243 8.91471L26.8608 8.93029C26.843 8.91004 26.8269 8.89056 26.81 8.87186ZM3.16508 8.95678C3.16419 8.95834 3.15884 8.96379 3.15795 8.96613C3.1526 8.97548 3.13654 8.99262 3.13386 8.99963L3.16152 8.96769C3.1633 8.96379 3.1633 8.96068 3.16508 8.95678ZM26.8278 8.96301L26.8296 8.96613C26.8332 8.96847 26.8359 8.97002 26.8403 8.97236C26.8403 8.97314 26.835 8.96613 26.835 8.96613L26.8278 8.96301ZM3.16776 8.97704C3.16776 8.97782 3.16598 8.97937 3.16598 8.98015H3.16776C3.16776 8.97937 3.16776 8.97782 3.16776 8.97704ZM3.16152 8.98872C3.13475 9.06741 3.08302 9.15934 3.02771 9.20764L3.15349 9.03235L3.15527 9.03079L3.15884 9.00664C3.14011 9.04248 3.12673 9.0604 3.12583 9.06118C3.12494 9.06195 3.13565 9.04715 3.15527 9.00976C3.15706 9.00664 3.15884 9.00197 3.16062 8.99885L3.16152 8.98872ZM3.09818 9.05884L3.08034 9.07442C3.06518 9.09 3.08213 9.08299 3.06161 9.10169L3.09818 9.05884ZM26.95 9.08299L26.9536 9.09935V9.10091L26.9625 9.1087V9.09935C26.9563 9.09234 26.9554 9.09 26.95 9.08299ZM26.9723 9.11493L26.9741 9.12272L26.9831 9.13051C26.9768 9.12428 26.9786 9.12194 26.9723 9.11493ZM4.0919 9.76935L14.5438 15.1909V25.9319L3.94382 20.381L4.08119 10.5788L4.0919 9.76935ZM26.066 10.0023L25.9751 20.7051L15.4679 25.854V15.1979L25.2623 10.3957L26.066 10.0023Z"/>
</mask>
<path d="M15.1709 3.00002C15.0924 2.99925 15.0121 3.01716 14.9336 3.05456L3.40147 8.70904C3.39969 8.70982 3.39077 8.71449 3.3872 8.71683L3.37471 8.74098L3.28551 8.79084V8.7924C3.28462 8.79318 3.28283 8.79318 3.28194 8.79395V8.79551C3.27569 8.80252 3.26053 8.81888 3.25964 8.81966L3.25072 8.83057L3.24715 8.83525L3.24537 8.8368L3.24358 8.83836C3.23199 8.85706 3.22753 8.86563 3.22128 8.87654C3.2195 8.88043 3.21504 8.889 3.21415 8.89056H3.21593C3.21504 8.89134 3.20969 8.89679 3.20879 8.89835C3.2079 8.90069 3.19541 8.91549 3.19452 8.91783L3.19274 8.91938L3.19095 8.92094V8.9225L3.18203 8.94198L3.18025 8.94665L3.17846 8.95289C3.17757 8.95678 3.17936 8.95366 3.17846 8.95756C3.17757 8.9599 3.17579 8.96145 3.1749 8.96379C3.174 8.96613 3.17222 8.96769 3.17133 8.97002L3.16954 8.97626C3.17936 8.95133 3.16865 8.98093 3.16419 8.99418V9.06585L3.00006 20.6062C2.99738 20.748 3.08569 20.8851 3.22307 20.956L14.657 26.9439C14.7266 26.9797 14.8149 27 14.8979 27C14.9809 27 15.054 26.9836 15.1209 26.9501L15.1227 26.9486L26.6619 21.2957C26.8055 21.2263 26.8974 21.09 26.901 20.9427L27 9.31126V9.30191L26.9946 9.28399V9.23491C26.9946 9.23257 26.9911 9.21309 26.9911 9.21543V9.21387C26.9884 9.20686 26.9866 9.19829 26.9839 9.19128C26.9723 9.16323 26.9661 9.14609 26.9652 9.1422C26.9652 9.14142 26.9599 9.13129 26.9599 9.13129L26.9545 9.11727C26.9536 9.11571 26.9536 9.11415 26.9527 9.11259C26.9474 9.10169 26.942 9.09312 26.934 9.08377L26.9447 9.09467L26.9429 9.08844L26.9376 9.08533L26.9304 9.07442C26.9153 9.0565 26.8965 9.03625 26.876 9.01365L26.9215 9.05962C26.9206 9.05884 26.9161 9.04715 26.9144 9.04559C26.9242 9.06118 26.9224 9.06118 26.9367 9.07909L26.926 9.0565C26.9179 9.04481 26.9108 9.03625 26.9054 9.02612C26.9019 9.023 26.8965 9.00197 26.8912 8.99729L26.8787 8.99262L26.8769 8.99106L26.8421 8.97314C26.8519 8.98561 26.8385 8.97158 26.8457 8.97937C26.8591 8.98794 26.876 9.00041 26.8823 9.00352L26.8635 8.99418L26.8528 8.98794C26.8546 8.98794 26.8974 9.03469 26.8635 9.0043C26.8742 9.01365 26.843 8.97937 26.8475 8.98483H26.8457C26.8341 8.97781 26.8457 8.98405 26.8368 8.97859C26.8323 8.9747 26.8261 8.97002 26.8261 8.9708C26.8038 8.95678 26.7663 8.93419 26.7895 8.94821L26.7618 8.93185L15.4046 3.05845C15.3296 3.02028 15.2485 3.00158 15.1673 3.0008L15.1709 3.00002ZM15.1601 3.87492L25.6084 9.29178L15.0174 14.4897L4.56735 9.07286L14.8916 4.00736L15.1601 3.87492ZM3.51654 8.62801C3.51565 8.62879 3.51297 8.63035 3.51119 8.63113C3.50405 8.63736 3.49781 8.64359 3.48532 8.65216C3.49513 8.64515 3.50316 8.64126 3.50762 8.63658C3.51387 8.63191 3.51208 8.63191 3.51654 8.62801ZM26.6887 8.87186C26.6958 8.87809 26.7101 8.89134 26.7092 8.89134C26.7083 8.89134 26.7154 8.89445 26.7163 8.89445C26.7074 8.88744 26.7012 8.88199 26.6887 8.87186ZM26.81 8.87186L26.8243 8.91471L26.8608 8.93029C26.843 8.91004 26.8269 8.89056 26.81 8.87186ZM3.16508 8.95678C3.16419 8.95834 3.15884 8.96379 3.15795 8.96613C3.1526 8.97548 3.13654 8.99262 3.13386 8.99963L3.16152 8.96769C3.1633 8.96379 3.1633 8.96068 3.16508 8.95678ZM26.8278 8.96301L26.8296 8.96613C26.8332 8.96847 26.8359 8.97002 26.8403 8.97236C26.8403 8.97314 26.835 8.96613 26.835 8.96613L26.8278 8.96301ZM3.16776 8.97704C3.16776 8.97782 3.16598 8.97937 3.16598 8.98015H3.16776C3.16776 8.97937 3.16776 8.97782 3.16776 8.97704ZM3.16152 8.98872C3.13475 9.06741 3.08302 9.15934 3.02771 9.20764L3.15349 9.03235L3.15527 9.03079L3.15884 9.00664C3.14011 9.04248 3.12673 9.0604 3.12583 9.06118C3.12494 9.06195 3.13565 9.04715 3.15527 9.00976C3.15706 9.00664 3.15884 9.00197 3.16062 8.99885L3.16152 8.98872ZM3.09818 9.05884L3.08034 9.07442C3.06518 9.09 3.08213 9.08299 3.06161 9.10169L3.09818 9.05884ZM26.95 9.08299L26.9536 9.09935V9.10091L26.9625 9.1087V9.09935C26.9563 9.09234 26.9554 9.09 26.95 9.08299ZM26.9723 9.11493L26.9741 9.12272L26.9831 9.13051C26.9768 9.12428 26.9786 9.12194 26.9723 9.11493ZM4.0919 9.76935L14.5438 15.1909V25.9319L3.94382 20.381L4.08119 10.5788L4.0919 9.76935ZM26.066 10.0023L25.9751 20.7051L15.4679 25.854V15.1979L25.2623 10.3957L26.066 10.0023Z" fill="white"/>
<path d="M15.1709 3.00002C15.0924 2.99925 15.0121 3.01716 14.9336 3.05456L3.40147 8.70904C3.39969 8.70982 3.39077 8.71449 3.3872 8.71683L3.37471 8.74098L3.28551 8.79084V8.7924C3.28462 8.79318 3.28283 8.79318 3.28194 8.79395V8.79551C3.27569 8.80252 3.26053 8.81888 3.25964 8.81966L3.25072 8.83057L3.24715 8.83525L3.24537 8.8368L3.24358 8.83836C3.23199 8.85706 3.22753 8.86563 3.22128 8.87654C3.2195 8.88043 3.21504 8.889 3.21415 8.89056H3.21593C3.21504 8.89134 3.20969 8.89679 3.20879 8.89835C3.2079 8.90069 3.19541 8.91549 3.19452 8.91783L3.19274 8.91938L3.19095 8.92094V8.9225L3.18203 8.94198L3.18025 8.94665L3.17846 8.95289C3.17757 8.95678 3.17936 8.95366 3.17846 8.95756C3.17757 8.9599 3.17579 8.96145 3.1749 8.96379C3.174 8.96613 3.17222 8.96769 3.17133 8.97002L3.16954 8.97626C3.17936 8.95133 3.16865 8.98093 3.16419 8.99418V9.06585L3.00006 20.6062C2.99738 20.748 3.08569 20.8851 3.22307 20.956L14.657 26.9439C14.7266 26.9797 14.8149 27 14.8979 27C14.9809 27 15.054 26.9836 15.1209 26.9501L15.1227 26.9486L26.6619 21.2957C26.8055 21.2263 26.8974 21.09 26.901 20.9427L27 9.31126V9.30191L26.9946 9.28399V9.23491C26.9946 9.23257 26.9911 9.21309 26.9911 9.21543V9.21387C26.9884 9.20686 26.9866 9.19829 26.9839 9.19128C26.9723 9.16323 26.9661 9.14609 26.9652 9.1422C26.9652 9.14142 26.9599 9.13129 26.9599 9.13129L26.9545 9.11727C26.9536 9.11571 26.9536 9.11415 26.9527 9.11259C26.9474 9.10169 26.942 9.09312 26.934 9.08377L26.9447 9.09467L26.9429 9.08844L26.9376 9.08533L26.9304 9.07442C26.9153 9.0565 26.8965 9.03625 26.876 9.01365L26.9215 9.05962C26.9206 9.05884 26.9161 9.04715 26.9144 9.04559C26.9242 9.06118 26.9224 9.06118 26.9367 9.07909L26.926 9.0565C26.9179 9.04481 26.9108 9.03625 26.9054 9.02612C26.9019 9.023 26.8965 9.00197 26.8912 8.99729L26.8787 8.99262L26.8769 8.99106L26.8421 8.97314C26.8519 8.98561 26.8385 8.97158 26.8457 8.97937C26.8591 8.98794 26.876 9.00041 26.8823 9.00352L26.8635 8.99418L26.8528 8.98794C26.8546 8.98794 26.8974 9.03469 26.8635 9.0043C26.8742 9.01365 26.843 8.97937 26.8475 8.98483H26.8457C26.8341 8.97781 26.8457 8.98405 26.8368 8.97859C26.8323 8.9747 26.8261 8.97002 26.8261 8.9708C26.8038 8.95678 26.7663 8.93419 26.7895 8.94821L26.7618 8.93185L15.4046 3.05845C15.3296 3.02028 15.2485 3.00158 15.1673 3.0008L15.1709 3.00002ZM15.1601 3.87492L25.6084 9.29178L15.0174 14.4897L4.56735 9.07286L14.8916 4.00736L15.1601 3.87492ZM3.51654 8.62801C3.51565 8.62879 3.51297 8.63035 3.51119 8.63113C3.50405 8.63736 3.49781 8.64359 3.48532 8.65216C3.49513 8.64515 3.50316 8.64126 3.50762 8.63658C3.51387 8.63191 3.51208 8.63191 3.51654 8.62801ZM26.6887 8.87186C26.6958 8.87809 26.7101 8.89134 26.7092 8.89134C26.7083 8.89134 26.7154 8.89445 26.7163 8.89445C26.7074 8.88744 26.7012 8.88199 26.6887 8.87186ZM26.81 8.87186L26.8243 8.91471L26.8608 8.93029C26.843 8.91004 26.8269 8.89056 26.81 8.87186ZM3.16508 8.95678C3.16419 8.95834 3.15884 8.96379 3.15795 8.96613C3.1526 8.97548 3.13654 8.99262 3.13386 8.99963L3.16152 8.96769C3.1633 8.96379 3.1633 8.96068 3.16508 8.95678ZM26.8278 8.96301L26.8296 8.96613C26.8332 8.96847 26.8359 8.97002 26.8403 8.97236C26.8403 8.97314 26.835 8.96613 26.835 8.96613L26.8278 8.96301ZM3.16776 8.97704C3.16776 8.97782 3.16598 8.97937 3.16598 8.98015H3.16776C3.16776 8.97937 3.16776 8.97782 3.16776 8.97704ZM3.16152 8.98872C3.13475 9.06741 3.08302 9.15934 3.02771 9.20764L3.15349 9.03235L3.15527 9.03079L3.15884 9.00664C3.14011 9.04248 3.12673 9.0604 3.12583 9.06118C3.12494 9.06195 3.13565 9.04715 3.15527 9.00976C3.15706 9.00664 3.15884 9.00197 3.16062 8.99885L3.16152 8.98872ZM3.09818 9.05884L3.08034 9.07442C3.06518 9.09 3.08213 9.08299 3.06161 9.10169L3.09818 9.05884ZM26.95 9.08299L26.9536 9.09935V9.10091L26.9625 9.1087V9.09935C26.9563 9.09234 26.9554 9.09 26.95 9.08299ZM26.9723 9.11493L26.9741 9.12272L26.9831 9.13051C26.9768 9.12428 26.9786 9.12194 26.9723 9.11493ZM4.0919 9.76935L14.5438 15.1909V25.9319L3.94382 20.381L4.08119 10.5788L4.0919 9.76935ZM26.066 10.0023L25.9751 20.7051L15.4679 25.854V15.1979L25.2623 10.3957L26.066 10.0023Z" stroke="white" stroke-width="0.6" stroke-linejoin="round" mask="url(#path-1-outside-1_84_1737)"/>
</svg>
