<svg width="30" height="30" viewBox="0 0 30 30" fill="none" xmlns="http://www.w3.org/2000/svg">
<g clip-path="url(#clip0_618_17)">
<path d="M10.3065 15.1194H12.3892V23.6935C12.3892 23.8628 12.5263 24 12.6956 24H16.2269C16.3962 24 16.5334 23.8628 16.5334 23.6935V15.1598H18.9276C19.0833 15.1598 19.2143 15.043 19.232 14.8883L19.5957 11.7318C19.6057 11.6449 19.5781 11.5579 19.52 11.4928C19.4619 11.4276 19.3786 11.3903 19.2913 11.3903H16.5335V9.41155C16.5335 8.81508 16.8546 8.51261 17.4881 8.51261C17.5784 8.51261 19.2913 8.51261 19.2913 8.51261C19.4606 8.51261 19.5978 8.37538 19.5978 8.20616V5.30872C19.5978 5.13944 19.4606 5.00227 19.2913 5.00227H16.8063C16.7888 5.00141 16.7498 5 16.6925 5C16.2613 5 14.7626 5.08464 13.5787 6.17377C12.2669 7.3807 12.4493 8.8258 12.4929 9.07636V11.3902H10.3065C10.1372 11.3902 10 11.5274 10 11.6966V14.8129C10 14.9822 10.1372 15.1194 10.3065 15.1194Z" fill="white"/>
</g>
<defs>
<clipPath id="clip0_618_17">
<rect width="30" height="30" fill="white"/>
</clipPath>
</defs>
</svg>
