<svg width="100" height="100" viewBox="0 0 100 100" fill="none" xmlns="http://www.w3.org/2000/svg">
<path d="M13 26.5316C13 37.2693 15.6155 72.328 48.0695 91.4769C48.6558 91.8195 49.3219 92 50 92C50.6781 92 51.3442 91.8195 51.9305 91.4769C84.3845 72.319 87 37.2962 87 26.5316C87.0019 25.6496 86.7011 24.794 86.1484 24.1093C85.5957 23.4245 84.8249 22.9527 83.9663 22.7734C69.1272 19.6774 57.1527 11.472 52.3131 7.78533C51.6483 7.2759 50.8357 7 50 7C49.1643 7 48.3517 7.2759 47.6869 7.78533C42.8473 11.472 30.8728 19.6774 16.0337 22.7734C15.1751 22.9527 14.4043 23.4245 13.8516 24.1093C13.2989 24.794 12.9981 25.6496 13 26.5316ZM33.8353 51.0136L36.5042 48.3292C36.8603 47.9772 37.3395 47.78 37.8387 47.78C38.3379 47.78 38.8171 47.9772 39.1731 48.3292L43.5857 52.6332C43.9429 52.983 44.4217 53.1788 44.9202 53.1788C45.4187 53.1788 45.8975 52.983 46.2546 52.6332L64.4032 34.3791C64.7604 34.0293 65.2392 33.8335 65.7377 33.8335C66.2362 33.8335 66.715 34.0293 67.0721 34.3791L69.741 37.0635C70.0888 37.4227 70.2835 37.9043 70.2835 38.4057C70.2835 38.9071 70.0888 39.3887 69.741 39.748L46.2902 63.532C45.9331 63.8818 45.4543 64.0776 44.9558 64.0776C44.4573 64.0776 43.9784 63.8818 43.6213 63.532L33.8353 53.6891C33.4881 53.3314 33.2937 52.8513 33.2937 52.3514C33.2937 51.8514 33.4881 51.3713 33.8353 51.0136Z" fill="url(#paint0_linear_82_1716)"/>
<defs>
<linearGradient id="paint0_linear_82_1716" x1="50" y1="7" x2="48.2524" y2="114.083" gradientUnits="userSpaceOnUse">
<stop offset="0.135" stop-color="white"/>
<stop offset="1" stop-color="#fff"/>
</linearGradient>
</defs>
</svg>
