<svg width="30" height="30" viewBox="0 0 30 30" fill="none" xmlns="http://www.w3.org/2000/svg">
<path d="M25.6999 11.9999C25.6999 7.7475 22.2524 4.3 17.9999 4.3C13.7475 4.3 10.3 7.7475 10.3 11.9999C10.3 16.2524 13.7475 19.6999 17.9999 19.6999C22.2524 19.6999 25.6999 16.2524 25.6999 11.9999Z" stroke="white" stroke-width="1.4"/>
<path d="M19.391 20.1651L19.6785 19.1815L18.6577 19.2714C18.4411 19.2904 18.2216 19.3003 17.9999 19.3003C13.9682 19.3003 10.7 16.0322 10.7 12.0004C10.7 11.7788 10.7099 11.5592 10.729 11.3426L10.8189 10.3219L9.8353 10.6094C6.63736 11.5442 4.3 14.4986 4.3 18.0004C4.3 22.2529 7.7475 25.7004 11.9999 25.7004C15.5017 25.7004 18.4561 23.363 19.391 20.1651Z" stroke="white" stroke-width="1.4"/>
</svg>
