<svg width="100" height="100" viewBox="0 0 100 100" fill="none" xmlns="http://www.w3.org/2000/svg">
<path d="M82.5272 30.7784C82.2779 30.2724 81.931 29.8206 81.5065 29.449C81.0821 29.0775 80.5884 28.7934 80.0538 28.6132C79.5192 28.4331 78.9543 28.3603 78.3916 28.399C77.8288 28.4378 77.2792 28.5874 76.7744 28.8392L36.6339 48.6832C36.4187 48.8021 36.1768 48.8644 35.9309 48.8644C35.6851 48.8644 35.4432 48.8021 35.228 48.6832C35.0119 48.5628 34.8293 48.3904 34.6967 48.1816C34.564 47.9728 34.4856 47.7342 34.4685 47.4874C34.087 42.7918 33.1874 38.1527 31.786 33.6548C30.8978 31.2815 29.4049 29.1814 27.4552 27.5626C26.3419 26.5575 24.9269 25.9494 23.4315 25.8335C23.1538 25.832 22.8771 25.8646 22.6073 25.9305C20.2965 26.5769 19.6986 27.094 21.2823 34.5759C22.0334 38.2966 22.2565 42.1047 21.9448 45.8876C21.7693 47.7915 21.2202 49.642 20.3288 51.3334C18.8716 54.185 17.5978 57.1266 16.5152 60.1404C16.1137 61.2811 15.944 62.4904 16.0162 63.6975C16.0883 64.9046 16.4008 66.0851 16.9353 67.1698L26.8735 87.2724C27.523 88.6019 28.4307 89.7888 29.5436 90.7639C30.6565 91.739 31.9523 92.4829 33.3556 92.9522C34.7589 93.4214 36.2415 93.6067 37.7171 93.4972C39.1927 93.3876 40.6318 92.9855 41.9504 92.3142L74.2696 76.3324C74.7683 76.1123 75.2172 75.7936 75.5895 75.3955C75.9617 74.9974 76.2496 74.5281 76.4357 74.0158C76.6218 73.5035 76.7023 72.9589 76.6724 72.4146C76.6425 71.8704 76.5028 71.3379 76.2616 70.8491C76.0205 70.3603 75.683 69.9253 75.2693 69.5704C74.8557 69.2155 74.3745 68.9479 73.8548 68.7839C73.335 68.6198 72.7874 68.5626 72.245 68.6157C71.7025 68.6688 71.1764 68.8311 70.6984 69.0928L68.2259 70.3048C67.8786 70.4878 67.4729 70.526 67.0974 70.4109C66.722 70.2959 66.4074 70.037 66.2222 69.6908C66.1336 69.5137 66.0808 69.3208 66.067 69.1233C66.0532 68.9257 66.0785 68.7274 66.1416 68.5397C66.2047 68.352 66.3042 68.1786 66.4345 68.0295C66.5648 67.8804 66.7233 67.7585 66.9009 67.6708L71.3448 65.4893C71.8274 65.2506 72.258 64.9186 72.6115 64.5125C72.965 64.1063 73.2345 63.6341 73.4043 63.1232C73.5741 62.6122 73.6409 62.0726 73.6008 61.5357C73.5608 60.9987 73.4146 60.4751 73.1708 59.995C72.9386 59.5174 72.613 59.0911 72.2134 58.7414C71.8137 58.3917 71.348 58.1256 70.8438 57.9589C69.8293 57.6169 68.7211 57.6865 67.7573 58.1528L63.2973 60.3343C62.9394 60.51 62.5264 60.5364 62.1491 60.4076C61.7718 60.2788 61.4611 60.0054 61.2854 59.6475C61.1097 59.2897 61.0833 58.8767 61.2121 58.4994C61.3409 58.1221 61.6143 57.8114 61.9722 57.6357L66.4161 55.438L68.032 54.6946C68.9428 54.2425 69.6366 53.4471 69.9608 52.4833C70.2851 51.5196 70.2133 50.4666 69.7611 49.5559C69.5372 49.1049 69.2267 48.7025 68.8473 48.3715C68.4679 48.0406 68.027 47.7876 67.5498 47.6271C66.5861 47.3028 65.5331 47.3746 64.6223 47.8268L58.6433 50.784C58.4662 50.8726 58.2733 50.9253 58.0758 50.9391C57.8783 50.953 57.6799 50.9276 57.4922 50.8645C57.3045 50.8015 57.1311 50.7019 56.982 50.5716C56.8329 50.4413 56.711 50.2829 56.6233 50.1053C56.5351 49.9294 56.4826 49.7377 56.469 49.5414C56.4554 49.3451 56.4809 49.148 56.544 48.9616C56.6071 48.7752 56.7067 48.6032 56.8368 48.4555C56.9669 48.3079 57.1251 48.1876 57.302 48.1015L80.5881 36.5312C81.593 36.0454 82.3696 35.1877 82.7534 34.1396C82.9487 33.5939 83.0294 33.0137 82.9905 32.4354C82.9516 31.8571 82.7939 31.293 82.5272 30.7784Z" fill="url(#paint0_linear_82_1709)"/>
<path d="M39.3972 20.3394C39.6916 20.64 40.0916 20.8139 40.5122 20.8242C40.8906 20.824 41.2547 20.6795 41.5303 20.4202C41.8095 20.1387 41.9662 19.7583 41.9662 19.3617C41.9662 18.9652 41.8095 18.5848 41.5303 18.3033L36.844 13.2453C36.5659 12.9898 36.2018 12.8484 35.8241 12.8492C35.4465 12.85 35.083 12.993 34.8059 13.2497C34.5289 13.5063 34.3587 13.8579 34.3291 14.2343C34.2995 14.6108 34.4127 14.9847 34.6463 15.2814L39.3972 20.3394Z" fill="url(#paint1_linear_82_1709)"/>
<path d="M52.2277 17.0265C52.6154 17.0268 52.9882 16.8774 53.2682 16.6094C53.5483 16.3414 53.7139 15.9756 53.7306 15.5883L53.9891 8.70429C54.0172 8.4966 54.0016 8.28533 53.9432 8.08405C53.8848 7.88277 53.7849 7.69593 53.65 7.53553C53.5151 7.37514 53.3482 7.24473 53.1599 7.15269C52.9716 7.06064 52.7661 7.009 52.5567 7.00107C52.3473 6.99315 52.1385 7.02912 51.9438 7.10667C51.7491 7.18422 51.5727 7.30164 51.4261 7.45138C51.2795 7.60113 51.1658 7.77988 51.0923 7.97618C51.0189 8.17247 50.9873 8.38195 50.9996 8.59117L50.7249 15.4752C50.7184 15.6766 50.7525 15.8772 50.8251 16.0652C50.8977 16.2531 51.0074 16.4246 51.1476 16.5693C51.2878 16.714 51.4556 16.8291 51.6412 16.9076C51.8268 16.9862 52.0262 17.0266 52.2277 17.0265Z" fill="url(#paint2_linear_82_1709)"/>
<path d="M63.5074 23.1026C63.8814 23.0951 64.2412 22.958 64.5254 22.7148L69.5834 17.98C69.7277 17.8453 69.844 17.6834 69.9258 17.5037C70.0075 17.324 70.0531 17.1299 70.0598 16.9326C70.0666 16.7353 70.0344 16.5385 69.9651 16.3536C69.8959 16.1688 69.7908 15.9993 69.6561 15.855C69.5213 15.7107 69.3595 15.5944 69.1798 15.5126C69 15.4309 68.806 15.3853 68.6087 15.3786C68.4113 15.3718 68.2146 15.404 68.0297 15.4733C67.8448 15.5425 67.6754 15.6476 67.5311 15.7823L62.4893 20.5009C62.2188 20.7859 62.0614 21.1596 62.0466 21.5522C62.0317 21.9448 62.1604 22.3294 62.4085 22.634C62.7015 22.9248 63.0947 23.0925 63.5074 23.1026Z" fill="url(#paint3_linear_82_1709)"/>
<defs>
<linearGradient id="paint0_linear_82_1709" x1="49.5" y1="25.8335" x2="48.2757" y2="111.12" gradientUnits="userSpaceOnUse">
<stop offset="0.135" stop-color="white"/>
<stop offset="1" stop-color="#fff"/>
</linearGradient>
<linearGradient id="paint1_linear_82_1709" x1="38.1454" y1="12.8492" x2="37.9964" y2="22.8965" gradientUnits="userSpaceOnUse">
<stop offset="0.135" stop-color="white"/>
<stop offset="1" stop-color="#fff"/>
</linearGradient>
<linearGradient id="paint2_linear_82_1709" x1="52.3634" y1="7" x2="51.8155" y2="19.6109" gradientUnits="userSpaceOnUse">
<stop offset="0.135" stop-color="white"/>
<stop offset="1" stop-color="#fff"/>
</linearGradient>
<linearGradient id="paint3_linear_82_1709" x1="66.0531" y1="15.3777" x2="65.9198" y2="25.1103" gradientUnits="userSpaceOnUse">
<stop offset="0.135" stop-color="white"/>
<stop offset="1" stop-color="#fff"/>
</linearGradient>
</defs>
</svg>
