<svg width="194" height="58" viewBox="0 0 194 58" fill="none" xmlns="http://www.w3.org/2000/svg">
<mask id="mask0_575_36" style="mask-type:luminance" maskUnits="userSpaceOnUse" x="23" y="9" width="25" height="38">
<path d="M48 9H23V47H48V9Z" fill="white"/>
</mask>
<g mask="url(#mask0_575_36)">
<path d="M35.8838 39.8146L36.6245 38.7443L37.6719 28.599L35.8838 39.8146ZM34.4145 38.7652L35.1538 39.8146L33.2773 28.5493L34.4145 38.7652Z" fill="#00F9FF" stroke="#00F9FF" stroke-width="3.82" stroke-miterlimit="10"/>
<path d="M35.541 9L23 30.4166L35.541 47L48 30.3332L35.541 9ZM33.1318 28.4999L33.501 31.4536L35.1548 39.8148L34.4155 38.7654L28.1025 30.3367L31.7646 26.3156L35.5244 16.6851L39.4131 26.3946L42.7998 30.4359L36.6255 38.7445L35.8848 39.8148L37.4473 31.6998L37.8203 28.4999H33.1318Z" fill="#00F9FF"/>
</g>
<path d="M156.041 31.3389C156.041 33.0186 156.397 34.4248 157.11 35.5576C157.823 36.6904 158.966 37.2568 160.538 37.2568C161.759 37.2568 162.76 36.7344 163.541 35.6895C164.332 34.6348 164.728 33.126 164.728 31.1631C164.728 29.1807 164.322 27.7158 163.512 26.7686C162.701 25.8115 161.7 25.333 160.509 25.333C159.181 25.333 158.102 25.8408 157.271 26.8564C156.451 27.8721 156.041 29.3662 156.041 31.3389ZM160.011 23.0332C161.212 23.0332 162.218 23.2871 163.028 23.7949C163.497 24.0879 164.029 24.6006 164.625 25.333V17.4082H167.159V39H164.786V36.8174C164.171 37.7842 163.443 38.4824 162.604 38.9121C161.764 39.3418 160.802 39.5566 159.718 39.5566C157.97 39.5566 156.456 38.8242 155.177 37.3594C153.897 35.8848 153.258 33.9268 153.258 31.4854C153.258 29.2002 153.839 27.2227 155.001 25.5527C156.173 23.873 157.843 23.0332 160.011 23.0332Z" fill="white"/>
<path d="M139.691 34.8252C139.691 35.5869 139.971 36.1875 140.527 36.627C141.084 37.0664 141.743 37.2861 142.505 37.2861C143.433 37.2861 144.331 37.0713 145.2 36.6416C146.665 35.9287 147.396 34.7617 147.396 33.1406V31.0166C147.074 31.2217 146.66 31.3926 146.152 31.5293C145.645 31.666 145.146 31.7637 144.658 31.8223L143.061 32.0273C142.104 32.1543 141.387 32.3545 140.908 32.6279C140.098 33.0869 139.691 33.8193 139.691 34.8252ZM146.079 29.4932C146.685 29.415 147.09 29.1611 147.295 28.7314C147.412 28.4971 147.471 28.1602 147.471 27.7207C147.471 26.8223 147.148 26.1729 146.504 25.7725C145.869 25.3623 144.956 25.1572 143.765 25.1572C142.388 25.1572 141.411 25.5283 140.835 26.2705C140.513 26.6807 140.302 27.291 140.204 28.1016H137.743C137.792 26.168 138.417 24.8252 139.618 24.0732C140.829 23.3115 142.231 22.9307 143.823 22.9307C145.669 22.9307 147.168 23.2822 148.32 23.9854C149.463 24.6885 150.034 25.7822 150.034 27.2666V36.3047C150.034 36.5781 150.088 36.7979 150.195 36.9639C150.312 37.1299 150.552 37.2129 150.913 37.2129C151.03 37.2129 151.162 37.208 151.309 37.1982C151.455 37.1787 151.611 37.1543 151.777 37.125V39.0732C151.367 39.1904 151.055 39.2637 150.84 39.293C150.625 39.3223 150.332 39.3369 149.961 39.3369C149.053 39.3369 148.393 39.0146 147.982 38.3701C147.768 38.0283 147.617 37.5449 147.529 36.9199C146.992 37.623 146.221 38.2334 145.215 38.751C144.209 39.2686 143.101 39.5273 141.89 39.5273C140.435 39.5273 139.242 39.0879 138.314 38.209C137.396 37.3203 136.938 36.2119 136.938 34.8838C136.938 33.4287 137.393 32.3008 138.301 31.5C139.209 30.6992 140.4 30.2061 141.875 30.0205L146.079 29.4932Z" fill="white"/>
<path d="M127.596 37.2275C128.826 37.2275 129.847 36.7148 130.657 35.6895C131.478 34.6543 131.888 33.1113 131.888 31.0605C131.888 29.8105 131.707 28.7363 131.346 27.8379C130.662 26.1094 129.412 25.2451 127.596 25.2451C125.77 25.2451 124.52 26.1582 123.846 27.9844C123.484 28.9609 123.304 30.2012 123.304 31.7051C123.304 32.916 123.484 33.9463 123.846 34.7959C124.529 36.417 125.779 37.2275 127.596 37.2275ZM120.77 23.3848H123.333V25.4648C123.86 24.752 124.437 24.2002 125.062 23.8096C125.95 23.2236 126.995 22.9307 128.196 22.9307C129.974 22.9307 131.482 23.6143 132.723 24.9814C133.963 26.3389 134.583 28.2822 134.583 30.8115C134.583 34.2295 133.69 36.6709 131.902 38.1357C130.77 39.0635 129.451 39.5273 127.947 39.5273C126.766 39.5273 125.774 39.2686 124.974 38.751C124.505 38.458 123.982 37.9551 123.406 37.2422V45.2549H120.77V23.3848Z" fill="white"/>
<path d="M95.9805 23.3115H98.5879V25.5381C99.2129 24.7666 99.7793 24.2051 100.287 23.8535C101.156 23.2578 102.143 22.96 103.246 22.96C104.496 22.96 105.502 23.2676 106.264 23.8828C106.693 24.2344 107.084 24.752 107.436 25.4355C108.021 24.5957 108.71 23.9756 109.501 23.5752C110.292 23.165 111.181 22.96 112.167 22.96C114.276 22.96 115.712 23.7217 116.474 25.2451C116.884 26.0654 117.089 27.1689 117.089 28.5557V39H114.35V28.1016C114.35 27.0566 114.086 26.3389 113.559 25.9482C113.041 25.5576 112.406 25.3623 111.654 25.3623C110.619 25.3623 109.726 25.709 108.974 26.4023C108.231 27.0957 107.86 28.2529 107.86 29.874V39H105.18V28.7607C105.18 27.6963 105.053 26.9199 104.799 26.4316C104.398 25.6992 103.651 25.333 102.558 25.333C101.561 25.333 100.653 25.7188 99.8331 26.4902C99.0225 27.2617 98.6172 28.6582 98.6172 30.6797V39H95.9805V23.3115Z" fill="white"/>
<path d="M85.8184 22.96C86.9317 22.96 88.0108 23.2236 89.0557 23.751C90.1006 24.2686 90.8965 24.9424 91.4434 25.7725C91.9708 26.5635 92.3223 27.4863 92.4981 28.541C92.6543 29.2637 92.7325 30.416 92.7325 31.998H81.2334C81.2823 33.5898 81.6582 34.8691 82.3614 35.8359C83.0645 36.793 84.1534 37.2715 85.628 37.2715C87.0049 37.2715 88.1036 36.8174 88.9239 35.9092C89.3926 35.3818 89.7247 34.7715 89.92 34.0781H92.5126C92.4443 34.6543 92.2149 35.2988 91.8243 36.0117C91.4434 36.7148 91.0137 37.291 90.5352 37.7402C89.7344 38.5215 88.7432 39.0488 87.5616 39.3223C86.9268 39.4785 86.2089 39.5566 85.4081 39.5566C83.455 39.5566 81.7999 38.8486 80.4424 37.4326C79.085 36.0068 78.4062 34.0146 78.4062 31.4561C78.4062 28.9365 79.0899 26.8906 80.4571 25.3184C81.8243 23.7461 83.6114 22.96 85.8184 22.96ZM90.0225 29.9033C89.9151 28.7607 89.6661 27.8477 89.2754 27.1641C88.5528 25.8945 87.3466 25.2598 85.6572 25.2598C84.4462 25.2598 83.4307 25.6992 82.6104 26.5781C81.7901 27.4473 81.3555 28.5557 81.3067 29.9033H90.0225Z" fill="white"/>
<path d="M65.5859 16.9248C67.6074 16.9248 69.3554 17.3154 70.8301 18.0967C72.9687 19.2197 74.2773 21.1875 74.7558 24H71.8701C71.5185 22.4277 70.791 21.2852 69.6875 20.5723C68.584 19.8496 67.1924 19.4883 65.5127 19.4883C63.5205 19.4883 61.8408 20.2354 60.4736 21.7295C59.1162 23.2236 58.4375 25.4502 58.4375 28.4092C58.4375 30.9678 58.999 33.0527 60.122 34.6641C61.2451 36.2656 63.0761 37.0664 65.6152 37.0664C67.5586 37.0664 69.165 36.5049 70.4345 35.3818C71.7138 34.249 72.3681 32.4229 72.3974 29.9033H65.6592V27.4863H75.1074V39H73.2324L72.5293 36.2314C71.5429 37.3154 70.6689 38.0674 69.9072 38.4873C68.6279 39.21 67.0019 39.5713 65.0293 39.5713C62.4804 39.5713 60.2881 38.7461 58.4521 37.0957C56.4502 35.0254 55.4492 32.1836 55.4492 28.5703C55.4492 24.9668 56.4258 22.1006 58.3789 19.9717C60.2344 17.9404 62.6367 16.9248 65.5859 16.9248Z" fill="white"/>
</svg>
