<svg width="30" height="30" viewBox="0 0 30 30" fill="none" xmlns="http://www.w3.org/2000/svg">
<g clip-path="url(#clip0_618_13)">
<path d="M4.45993 16.1104C3.84669 15.4971 3.84669 14.5029 4.45993 13.8896L13.8896 4.45993C14.5029 3.84669 15.4971 3.84669 16.1104 4.45993L25.5401 13.8896C26.1533 14.5029 26.1533 15.4971 25.5401 16.1104L16.1104 25.5401C15.4971 26.1533 14.5029 26.1533 13.8896 25.5401L4.45993 16.1104Z" fill="white"/>
<path d="M11.9744 6.4054L11.0195 7.36031L13.4858 9.82659C13.386 10.0406 13.3303 10.2794 13.3303 10.5311C13.3303 11.2458 13.7793 11.8556 14.4106 12.0937V18.1269C13.7793 18.3651 13.3303 18.9749 13.3303 19.6895C13.3303 20.6117 14.0778 21.3592 14.9999 21.3592C15.922 21.3592 16.6696 20.6117 16.6696 19.6895C16.6696 19.0416 16.3005 18.4799 15.7611 18.2031V12.102L18.1187 14.4595C18.0237 14.6692 17.9709 14.902 17.9709 15.1472C17.9709 16.0693 18.7185 16.8168 19.6406 16.8168C20.5627 16.8168 21.3102 16.0693 21.3102 15.1472C21.3102 14.2251 20.5627 13.4775 19.6406 13.4775C19.4614 13.4775 19.2888 13.5057 19.127 13.558L16.595 11.026C16.6435 10.8697 16.6696 10.7034 16.6696 10.5311C16.6696 9.60896 15.922 8.86143 14.9999 8.86143C14.8276 8.86143 14.6614 8.88754 14.505 8.93601L11.9744 6.4054Z" fill="black"/>
</g>
<defs>
<clipPath id="clip0_618_13">
<rect width="30" height="30" fill="white"/>
</clipPath>
</defs>
</svg>
