<svg width="30" height="30" viewBox="0 0 30 30" fill="none" xmlns="http://www.w3.org/2000/svg">
<path d="M9.10952 8.67903V21.9493C9.10952 22.0895 9.13709 22.2224 9.1867 22.344C9.23789 22.4705 9.31349 22.5856 9.40722 22.6815C9.50093 22.7773 9.61354 22.8546 9.7364 22.907C9.85532 22.9578 9.98605 22.9859 10.1294 22.9859C10.2664 22.9843 10.3901 22.957 10.5042 22.9094C10.6224 22.8603 10.7303 22.7878 10.8295 22.6895C10.9311 22.5848 11.0075 22.4697 11.0587 22.344C11.1083 22.2224 11.1358 22.0887 11.1358 21.9493V20.7581C11.1358 20.618 11.1918 20.4899 11.2815 20.3989C11.3713 20.3071 11.4965 20.2499 11.6328 20.2499H20.3916V8.13528C20.3916 7.98466 20.3616 7.84048 20.3097 7.71C20.2545 7.57389 20.1726 7.45066 20.0726 7.34836C19.9718 7.24608 19.8521 7.16231 19.719 7.10592C19.5914 7.05196 19.4513 7.02135 19.304 7.02135H8.81258C8.89212 7.15586 8.95749 7.30004 9.0071 7.45064C9.07404 7.65764 9.11027 7.87833 9.11027 8.10547V8.68056L9.10952 8.67903ZM22.8762 22.4576H12.0675C12.0399 22.5679 12.0029 22.6759 11.958 22.779C11.9273 22.8498 11.8927 22.9191 11.8541 22.986H21.9943C22.1313 22.986 22.2613 22.9578 22.381 22.907C22.5054 22.8547 22.6172 22.7774 22.7109 22.6815C22.7606 22.63 22.8054 22.5736 22.8448 22.5124L22.8771 22.4576L22.8762 22.4576ZM6.5594 17.1956V7.14703L6.48773 7.19052C6.42394 7.2316 6.36331 7.28234 6.29952 7.34678C6.19871 7.4547 6.1239 7.57231 6.07271 7.70035C6.02467 7.82439 5.99632 7.96051 5.99632 8.10307V17.1949H6.55862L6.5594 17.1956ZM7.55326 7.1462V17.1956H8.11556V8.10376C8.11556 7.95717 8.08721 7.81703 8.03602 7.68977C7.98247 7.55767 7.90372 7.43765 7.80607 7.3386C7.75094 7.28222 7.6903 7.23228 7.62651 7.1904L7.55406 7.1461L7.55326 7.1462ZM7.05634 6.00328H19.3031C19.5835 6.00328 19.8528 6.06047 20.0985 6.16437C20.3529 6.2723 20.5829 6.43097 20.775 6.62669C20.9664 6.82241 21.1223 7.05759 21.2271 7.31857C21.3295 7.56987 21.3854 7.84533 21.3854 8.13206V20.2467H23.5039C23.6409 20.2467 23.7645 20.3038 23.8543 20.3957C23.9449 20.4883 24 20.6147 24 20.7549V21.9461C24 22.2224 23.9457 22.4882 23.8472 22.7298C23.7448 22.9819 23.596 23.2082 23.4101 23.3967C23.2235 23.586 23.0014 23.739 22.7565 23.8437C22.5202 23.9444 22.2619 24 21.9918 24H10.1206C9.84966 24 9.59058 23.9444 9.35432 23.8437C9.1086 23.739 8.88653 23.5868 8.70224 23.3967C8.51717 23.2074 8.36753 22.9811 8.26516 22.7298C8.1675 22.4882 8.11238 22.2224 8.11238 21.9461V18.2089H5.49693C5.3599 18.2089 5.23468 18.1517 5.14569 18.0599C5.05592 17.9681 5 17.84 5 17.7007V8.10057C5 7.82432 5.05355 7.55851 5.14963 7.31688C5.24965 7.06557 5.39614 6.83765 5.57883 6.64434L5.60324 6.61615C5.79225 6.42285 6.01906 6.26579 6.27028 6.15948C6.51205 6.05638 6.77744 6 7.05386 6L7.05634 6.00328Z" fill="white"/>
</svg>
