<svg width="21" height="21" viewBox="0 0 21 21" fill="none" xmlns="http://www.w3.org/2000/svg">
<path d="M17.8025 13.8182C17.8025 13.5461 18.0226 13.326 18.2947 13.326C18.5668 13.326 18.7869 13.5461 18.7869 13.8182V16.8726C18.7869 18.0101 18.3232 19.0414 17.5757 19.7888C16.8282 20.5363 15.7952 21 14.6594 21H4.1275C2.98992 21 1.95867 20.5363 1.21123 19.7888C0.463723 19.0413 0 18.0084 0 16.8726V6.34152C0 5.20397 0.463744 4.17274 1.21123 3.42531C1.95874 2.67782 2.99168 2.2141 4.1275 2.2141H7.18198C7.45402 2.2141 7.67418 2.43424 7.67418 2.7063C7.67418 2.97833 7.45404 3.19849 7.18198 3.19849H4.1275C3.26196 3.19849 2.47597 3.55172 1.90681 4.12092C1.33766 4.69013 0.984361 5.47611 0.984361 6.34156V16.8726C0.984361 17.7381 1.3376 18.5241 1.90681 19.0933C2.47603 19.6624 3.26286 20.0157 4.1275 20.0157H14.6594C15.5249 20.0157 16.3109 19.6625 16.8801 19.0933C17.4492 18.5241 17.8025 17.7372 17.8025 16.8726L17.8025 13.8182ZM19.2657 2.43081L5.40886 16.2874C5.21634 16.4799 4.90578 16.4799 4.71242 16.2874C4.5199 16.0948 4.5199 15.7835 4.71242 15.5909L18.5692 1.73438C17.9523 1.2648 17.1847 0.984385 16.3526 0.984385H12.5406C12.2686 0.984385 12.0484 0.764249 12.0484 0.492192C12.0484 0.220135 12.2686 0 12.5406 0H16.3526C17.6325 0 18.7951 0.522321 19.6364 1.36356C20.4777 2.2048 21 3.36747 21 4.64727V8.4592C21 8.73123 20.7799 8.95139 20.5078 8.95139C20.2357 8.95139 20.0156 8.73126 20.0156 8.4592V4.64727C20.0156 3.81525 19.7353 3.04693 19.2657 2.43081Z" fill="#15F5BA"/>
</svg>
