<svg width="110" height="110" viewBox="0 0 110 110" fill="none" xmlns="http://www.w3.org/2000/svg">
<circle cx="55" cy="55" r="53.5" stroke="url(#paint0_linear_6_92)" stroke-width="3"/>
<path d="M63.5539 29.0054C63.3845 29.0263 63.2275 29.1048 63.1092 29.2277L29.8596 62.4773C29.6362 62.0742 29.4958 61.6049 29.4958 61.1029V45.2967C29.497 45.1911 29.4758 45.0864 29.4335 44.9897C29.3911 44.893 29.3287 44.8063 29.2503 44.7356C29.1719 44.6648 29.0794 44.6116 28.9788 44.5794C28.8782 44.5472 28.772 44.5368 28.6671 44.5488C28.4827 44.568 28.3121 44.6552 28.1887 44.7936C28.0654 44.9319 27.9981 45.1113 28 45.2967V61.1029C28 63.4648 29.923 65.3879 32.2851 65.3879H48.0913C48.2896 65.3879 48.4799 65.3091 48.6201 65.1689C48.7604 65.0286 48.8391 64.8384 48.8391 64.6401C48.8391 64.4417 48.7604 64.2515 48.6201 64.1113C48.4799 63.971 48.2896 63.8922 48.0913 63.8922H32.2851C31.7787 63.8921 31.316 63.7553 30.9106 63.5284L64.1602 30.2788C64.2723 30.1705 64.3475 30.0297 64.3753 29.8763C64.403 29.723 64.3819 29.5648 64.3149 29.4241C64.2479 29.2833 64.1384 29.1672 64.0018 29.0921C63.8653 29.017 63.7086 28.9867 63.5539 29.0054ZM60.8858 43.5988C60.7876 43.6028 60.6911 43.6261 60.6019 43.6673C60.5126 43.7086 60.4324 43.767 60.3658 43.8392C60.2991 43.9115 60.2474 43.9962 60.2135 44.0885C60.1795 44.1807 60.1641 44.2788 60.1681 44.377C60.1721 44.4752 60.1954 44.5717 60.2367 44.6609C60.2779 44.7502 60.3364 44.8304 60.4087 44.897C60.4809 44.9636 60.5656 45.0154 60.6579 45.0493C60.7502 45.0832 60.8482 45.0986 60.9464 45.0946H76.7526C77.2556 45.0945 77.7208 45.2343 78.1271 45.4584L44.8775 78.708C44.8035 78.7758 44.744 78.858 44.7027 78.9494C44.6613 79.0409 44.6388 79.1398 44.6366 79.2401C44.6345 79.3405 44.6527 79.4402 44.6901 79.5334C44.7275 79.6265 44.7834 79.7112 44.8544 79.7821C44.9253 79.8531 45.01 79.909 45.1031 79.9464C45.1963 79.9838 45.296 80.002 45.3964 79.9998C45.4968 79.9977 45.5956 79.9752 45.6871 79.9338C45.7786 79.8924 45.8607 79.833 45.9285 79.759L79.1781 46.5094C79.4112 46.9168 79.5622 47.3737 79.5622 47.8839V63.6901C79.5486 63.7949 79.5576 63.9015 79.5884 64.0026C79.6193 64.1038 79.6714 64.1972 79.7412 64.2766C79.811 64.356 79.897 64.4196 79.9933 64.4632C80.0897 64.5068 80.1942 64.5294 80.2999 64.5294C80.4057 64.5294 80.5102 64.5068 80.6065 64.4632C80.7029 64.4196 80.7888 64.356 80.8586 64.2766C80.9285 64.1972 80.9805 64.1038 81.0114 64.0026C81.0423 63.9015 81.0512 63.7949 81.0377 63.6901V47.8839C81.0377 45.5219 79.1147 43.5988 76.7526 43.5988H60.9464C60.9262 43.598 60.906 43.598 60.8858 43.5988Z" fill="white"/>
<defs>
<linearGradient id="paint0_linear_6_92" x1="165" y1="-51" x2="21" y2="110" gradientUnits="userSpaceOnUse">
<stop stop-color="#FFF"/>
<stop offset="1"/>
</linearGradient>
</defs>
</svg>
