<svg width="30" height="30" viewBox="0 0 30 30" fill="none" xmlns="http://www.w3.org/2000/svg">
<rect width="30" height="30" rx="15"/>
<path d="M11.8248 12.4738C11.1292 12.4738 10.4997 12.7543 10.0434 13.21C9.8096 13.4436 9.62116 13.7241 9.49296 14.0329H6.95762C6.6937 14.0329 6.45443 14.1403 6.28087 14.3135C6.10749 14.4867 6 14.7278 6 14.9896C6 15.2532 6.10749 15.4941 6.28087 15.6675C6.45425 15.8407 6.6937 15.9481 6.95762 15.9481H9.49296C9.62116 16.2569 9.8096 16.5374 10.0434 16.771C10.4995 17.2267 11.1292 17.5072 11.8248 17.5072C12.5204 17.5072 13.1499 17.2267 13.6062 16.771C14.0623 16.3153 14.3432 15.6865 14.3432 14.9898C14.3432 14.2949 14.0623 13.666 13.6062 13.2102C13.1499 12.7543 12.5204 12.4738 11.8248 12.4738ZM18.1752 18.9647C18.8708 18.9647 19.5003 19.2471 19.9566 19.7028C20.1904 19.9363 20.3788 20.215 20.507 20.5257H23.0424C23.3063 20.5257 23.5458 20.6331 23.7191 20.8063C23.8925 20.9795 24 21.2187 24 21.4823C24 21.746 23.8925 21.9852 23.7191 22.1584C23.5458 22.3316 23.3063 22.439 23.0424 22.439H20.507C20.3788 22.7496 20.1904 23.0283 19.9566 23.2619C19.5005 23.7175 18.8708 24 18.1752 24C17.4796 24 16.8501 23.7175 16.3938 23.2619C15.9377 22.8062 15.6549 22.1772 15.6549 21.4823C15.6549 20.7875 15.9377 20.1586 16.3938 19.703C16.8501 19.2471 17.4796 18.9647 18.1752 18.9647ZM15.3006 22.439H6.95762C6.6937 22.439 6.45443 22.3316 6.28087 22.1584C6.1073 21.9852 6 21.746 6 21.4823C6 21.2187 6.10749 20.9797 6.28087 20.8063C6.45425 20.6331 6.6937 20.5257 6.95762 20.5257H15.3006C15.0934 21.1451 15.0934 21.8193 15.3006 22.439ZM18.1752 6C18.8708 6 19.5003 6.28058 19.9566 6.73623C20.1904 6.9698 20.3788 7.24849 20.507 7.55916H23.0424C23.3063 7.55916 23.5458 7.66654 23.7191 7.83974C23.8925 8.01293 24 8.25402 24 8.51579C24 8.77944 23.8925 9.01846 23.7191 9.19185C23.5458 9.36693 23.3063 9.4743 23.0424 9.4743H20.507C20.3788 9.78309 20.1904 10.0637 19.9566 10.2972C19.5005 10.751 18.8708 11.0335 18.1752 11.0335C17.4796 11.0335 16.8501 10.751 16.3938 10.2972C15.9377 9.84157 15.6549 9.21272 15.6549 8.51598C15.6549 7.82112 15.9377 7.19226 16.3938 6.73642C16.8501 6.28058 17.4796 6 18.1752 6ZM15.3006 9.47412H6.95762C6.6937 9.47412 6.45443 9.36674 6.28087 9.19166C6.10749 9.01846 6 8.77926 6 8.5156C6 8.25383 6.10749 8.01275 6.28087 7.83955C6.45425 7.66635 6.6937 7.55897 6.95762 7.55897H15.3006C15.0934 8.17861 15.0934 8.85278 15.3006 9.47412ZM14.6994 15.9481H23.0424C23.3063 15.9481 23.5458 15.8407 23.7191 15.6675C23.8925 15.4943 24 15.2532 24 14.9896C24 14.7278 23.8925 14.4869 23.7191 14.3135C23.5458 14.1403 23.3063 14.0329 23.0424 14.0329H14.6994C14.9066 14.6526 14.9066 15.3266 14.6994 15.9481Z" fill="white"/>
</svg>
