<svg width="194" height="58" viewBox="0 0 194 58" fill="none" xmlns="http://www.w3.org/2000/svg">
<path d="M45.0275 32.9207L37.8508 20.478C36.2663 17.8916 32.445 17.845 30.9304 20.5945L23.3809 33.5498C21.9828 35.9265 23.7071 38.909 26.5265 38.909H41.6256C44.4683 38.909 46.5887 35.8333 45.0275 32.9207Z" fill="#00B897"/>
<path d="M34.6581 33.8992L34.2154 33.1303C33.796 32.4079 32.8872 30.8701 32.8872 30.8701L26.8057 20.3147C25.594 18.4739 23.1241 17.9846 21.2833 19.1963C20.7008 19.5691 20.2348 20.105 19.9319 20.7341L12.8717 32.9671C11.7765 34.8545 12.429 37.2778 14.3396 38.373C14.9455 38.7225 15.6212 38.9089 16.3202 38.9089H41.5552C37.6639 38.9322 36.429 36.905 34.6581 33.8992Z" fill="#76FCB2"/>
<path d="M34.6583 33.8989L34.2156 33.1299C33.7962 32.4076 32.8874 30.8697 32.8874 30.8697L28.9729 23.9727L23.334 33.5727C21.936 35.9494 23.6602 38.9319 26.4797 38.9319H41.5554C37.6408 38.9086 36.4292 36.9047 34.6583 33.8989Z" fill="url(#paint0_linear_62_1608)"/>
<path d="M180.452 37.9302C179.59 37.9535 178.751 37.7438 178.029 37.3244C177.399 36.9283 177.027 36.2292 177.073 35.4836V23.437H178.681C179.264 23.437 179.753 23.9263 179.753 24.5089V35.1108C179.776 35.4603 179.916 35.7865 180.172 36.0428C180.429 36.2991 180.778 36.439 181.128 36.439H181.431C181.547 36.439 181.664 36.5322 181.664 36.672V37.9768L180.452 37.9302Z" fill="#00B897"/>
<path d="M145.944 37.9301C144.289 37.9301 142.938 37.4873 141.913 36.6019C141.423 36.2058 141.05 35.6932 140.817 35.1106C140.584 34.5514 140.491 33.7592 140.491 32.6873C140.491 31.6155 140.608 30.7999 140.817 30.264C141.05 29.7048 141.423 29.2155 141.889 28.8194C142.915 27.9339 144.266 27.4912 145.92 27.4912C147.575 27.4912 148.926 27.9339 149.951 28.8194C150.417 29.1922 150.79 29.7048 151.023 30.264C151.28 31.0563 151.396 31.8718 151.349 32.7106C151.349 33.7825 151.233 34.598 151.023 35.1339C150.79 35.7165 150.417 36.2291 149.928 36.6252C148.973 37.4873 147.598 37.9301 145.944 37.9301ZM145.944 29.0291C144.126 29.0291 143.217 30.264 143.217 32.7339C143.217 35.2038 144.126 36.4621 145.944 36.4621C147.761 36.4621 148.67 35.2271 148.67 32.7572C148.67 30.2873 147.738 29.0291 145.944 29.0291Z" fill="#00B897"/>
<path d="M157.384 37.9302C156.009 37.9535 154.658 37.5574 153.493 36.7885C153.306 36.6254 153.097 36.4856 152.887 36.3691C152.817 36.3224 152.771 36.2525 152.771 36.1826V23.437H154.402C154.984 23.437 155.473 23.9263 155.473 24.5089V28.237L155.963 27.9574C156.545 27.6545 157.314 27.5147 158.316 27.5147C160.064 27.5147 161.392 28.0506 162.254 29.0525C163.023 29.9613 163.419 31.1729 163.419 32.6642C163.419 34.1555 162.976 35.3671 162.091 36.2525C161.089 37.3943 159.481 37.9302 157.384 37.9302ZM157.64 29.0292C157.035 29.0292 156.336 29.2623 155.567 29.7283L155.45 29.7749V35.7632L155.567 35.8564C156.196 36.2525 156.895 36.439 157.64 36.439C158.572 36.4623 159.458 35.9962 159.924 35.204C160.39 34.4584 160.646 33.5962 160.623 32.7108C160.623 30.2642 159.621 29.0292 157.64 29.0292Z" fill="#00B897"/>
<path d="M169.804 37.9065C166.775 37.9065 164.864 35.926 164.864 32.6871C164.864 29.4483 166.728 27.491 169.757 27.491C170.806 27.4677 171.855 27.7706 172.717 28.3764L172.88 28.4929V27.7007H175C175.117 27.7007 175.21 27.7939 175.21 27.9104V37.7201H172.833V36.8347L172.67 36.9745C172.018 37.5803 170.969 37.9065 169.804 37.9065ZM170.34 29.2619C168.429 29.2619 167.311 30.7298 167.311 32.6871C167.311 34.6444 168.453 36.159 170.34 36.159C170.946 36.159 171.994 36.1124 172.833 35.2735L172.856 35.2502V30.2172L172.833 30.1939C172.274 29.5415 171.412 29.2619 170.34 29.2619Z" fill="#00B897"/>
<path d="M71.7295 37.8137V23.437H83.6829V24.3457C83.6829 25.0681 83.1004 25.6506 82.378 25.6506H74.6887V29.4953H82.378V31.7089H74.6887V35.5768H82.378C83.1004 35.5768 83.6829 36.1593 83.6829 36.8817V37.7904L71.7295 37.8137Z" fill="white"/>
<path d="M100.834 23.4136H98.0141C97.5015 23.4136 97.0122 23.6466 96.686 24.0427L93.3073 28.3301L89.9054 24.066C89.5792 23.6699 89.0899 23.4369 88.5772 23.4369H85.7578L91.4666 30.6136L85.7578 37.7903H88.5772C89.0899 37.7903 89.5792 37.5573 89.9054 37.1611L93.3073 32.9204L96.7326 37.2078C97.0588 37.6039 97.5481 37.8369 98.0607 37.8369H100.88L95.1481 30.6602L100.834 23.4136Z" fill="white"/>
<path d="M62.3635 36.2758L66.278 29.4253V37.767H69.2605V23.3903H67.4198C66.8372 23.3903 66.3013 23.6932 66.0217 24.2059L61.3382 32.7573L56.6547 24.2059C56.3751 23.6932 55.8392 23.367 55.2567 23.3903H53.3926V37.767H56.3751V29.4253L60.2897 36.2758H62.3635Z" fill="white"/>
<path d="M108.616 37.9767C104.538 38.0699 101.16 34.8311 101.09 30.7534C101.09 30.7068 101.09 30.6835 101.09 30.6369C101.09 28.3767 101.789 26.4893 103.07 25.2078C104.352 23.9262 106.239 23.2505 108.476 23.2505C111.109 23.2505 113.16 24.1592 114.651 25.9301L113.719 26.7223C113.136 27.2117 112.274 27.2349 111.645 26.7689C110.76 26.1165 109.688 25.7903 108.593 25.8369C105.657 25.8369 103.933 27.6078 103.933 30.5903C103.933 33.5728 105.727 35.4602 108.593 35.4602C109.688 35.4835 110.76 35.1573 111.645 34.5282C112.274 34.0621 113.113 34.0854 113.719 34.5748L114.651 35.367C113.183 37.0913 111.179 37.9767 108.616 37.9767Z" fill="white"/>
<path d="M126.977 37.9533C122.34 37.9533 119.474 35.1339 119.474 30.6135C119.474 26.0931 122.34 23.2737 126.93 23.2737C129.144 23.2737 130.984 23.9028 132.429 25.2077L131.73 25.9766C131.241 26.5125 130.472 26.6523 129.819 26.3261C128.911 25.8834 127.932 25.6504 126.93 25.6504C123.948 25.6504 122.107 27.5611 122.107 30.6135C122.107 33.6659 124.041 35.5999 127.14 35.5999C128.631 35.5999 129.796 35.3203 130.635 34.7145L130.682 34.6912V31.7319H127.396V30.7766C127.396 30.0543 127.979 29.4717 128.701 29.4717H132.755C132.872 29.4717 132.988 29.5649 132.988 29.7048V36.0892C131.567 37.3242 129.54 37.9533 126.977 37.9533Z" fill="#00B897"/>
<path d="M138.301 37.9302C137.439 37.9535 136.6 37.7438 135.878 37.3244C135.249 36.9283 134.876 36.2292 134.899 35.4836V23.437H136.507C137.113 23.437 137.579 23.9263 137.579 24.5089V35.1108C137.602 35.4603 137.742 35.7865 137.998 36.0428C138.255 36.2991 138.604 36.439 138.954 36.439H139.257C139.373 36.439 139.49 36.5322 139.49 36.672V37.9768L138.301 37.9302Z" fill="#00B897"/>
<defs>
<linearGradient id="paint0_linear_62_1608" x1="21.3459" y1="29.2121" x2="38.7914" y2="35.6572" gradientUnits="userSpaceOnUse">
<stop stop-color="#53E57A" stop-opacity="0"/>
<stop offset="1" stop-color="#00A977"/>
</linearGradient>
</defs>
</svg>
