<svg width="110" height="110" viewBox="0 0 110 110" fill="none" xmlns="http://www.w3.org/2000/svg">
<circle cx="55" cy="55" r="53.5" stroke="url(#paint0_linear_51_1545)" stroke-width="3"/>
<path d="M55.4375 79.0833C45.2698 79.0833 37 73.2939 37 66.177C37 65.4985 37.5507 64.9479 38.2292 64.9479C38.9077 64.9479 39.4583 65.4985 39.4583 66.177C39.4583 71.9369 46.6268 76.625 55.4375 76.625C64.2482 76.625 71.4167 71.9369 71.4167 66.177C71.4167 60.4172 64.2482 55.7291 55.4375 55.7291C45.2698 55.7291 37 49.9398 37 42.8229C37 35.706 45.2698 29.9166 55.4375 29.9166C65.6052 29.9166 73.875 35.706 73.875 42.8229C73.875 43.5014 73.3243 44.052 72.6458 44.052C71.9673 44.052 71.4167 43.5014 71.4167 42.8229C71.4167 37.063 64.2482 32.375 55.4375 32.375C46.6268 32.375 39.4583 37.063 39.4583 42.8229C39.4583 48.5828 46.6268 53.2708 55.4375 53.2708C65.6052 53.2708 73.875 59.0602 73.875 66.177C73.875 73.2939 65.6052 79.0833 55.4375 79.0833Z" fill="white"/>
<path d="M55.4377 84C54.7592 84 54.2085 83.4493 54.2085 82.7708V26.2292C54.2085 25.5507 54.7592 25 55.4377 25C56.1162 25 56.6668 25.5507 56.6668 26.2292V82.7708C56.6668 83.4493 56.1162 84 55.4377 84Z" fill="white"/>
<defs>
<linearGradient id="paint0_linear_51_1545" x1="165" y1="-51" x2="21" y2="110" gradientUnits="userSpaceOnUse">
<stop stop-color="#FFF"/>
<stop offset="1"/>
</linearGradient>
</defs>
</svg>
