<svg width="194" height="58" viewBox="0 0 194 58" fill="none" xmlns="http://www.w3.org/2000/svg">
<g clip-path="url(#clip0_575_62)">
<mask id="mask0_575_62" style="mask-type:luminance" maskUnits="userSpaceOnUse" x="0" y="0" width="194" height="58">
<path d="M194 0H0V58H194V0Z" fill="white"/>
</mask>
<g mask="url(#mask0_575_62)">
<path d="M74.7105 40.9963L71.5365 31.1723C74.2126 30.1711 75.6752 27.8559 76.0797 25.2591C77.0755 19.0331 73.3413 17.4062 67.8334 17.4062H61.7031L58 40.9963H64.3481L65.3439 34.7076C65.5306 33.55 65.624 32.3924 65.7796 31.2348L65.8729 31.1723L67.8334 40.9963H74.7105ZM66.3397 28.2939L67.2733 22.4746C69.0159 22.3808 70.1361 23.2568 69.7938 25.3217C69.5449 26.8547 68.4246 28.3252 66.7443 28.3252L66.3397 28.2939Z" fill="white"/>
<path d="M76.7812 40.9963H88.5752L89.4465 35.4272H84.0008L84.5609 31.8293H89.4465L90.3178 26.2603H85.4322L85.9613 22.9753H91.407L92.2783 17.4062H80.4844L76.7812 40.9963Z" fill="white"/>
<path d="M102.266 40.9963L112.349 17.4062H105.471L102.204 27.105C101.582 29.0135 101.177 30.8907 100.586 32.7992H100.524C100.586 30.8907 100.741 29.0135 100.741 27.105L100.773 17.4062H94.1133L95.7937 40.9963H102.266Z" fill="white"/>
<path d="M111.661 29.2017C110.728 34.9584 112.252 41.4034 118.694 41.4034C125.135 41.4034 128.652 34.9584 129.585 29.2017C130.488 23.445 128.963 17 122.522 17C116.08 17 112.564 23.445 111.661 29.2017ZM118.134 29.2017C118.352 27.7312 119.192 22.9444 121.588 22.9444C123.984 22.9444 123.331 27.7312 123.113 29.2017C122.864 30.6722 122.024 35.459 119.628 35.459C117.231 35.459 117.885 30.6722 118.134 29.2017Z" fill="white"/>
<path d="M147.896 40.9963L144.162 28.7945L151.008 17.4062H144.318L139.245 27.4492H139.152V27.5119L139.214 27.4492L140.801 17.4062H134.453L130.75 40.9963H137.098L138.81 30.1712H138.872H138.841L141.081 40.9963H147.896Z" fill="white"/>
<path d="M150.504 40.9963H162.298L163.169 35.4272H157.723L158.283 31.8293H163.169L164.04 26.2603H159.155L159.684 22.9753H165.13L166.001 17.4062H154.207L150.504 40.9963Z" fill="white"/>
<path d="M31.3878 11.0277C30.9987 11.1124 30.6703 11.3626 30.3234 11.5456C29.6455 11.903 28.9694 12.2541 28.2571 12.5406C26.3483 13.3083 24.3548 13.7549 22.3087 13.8965C21.4984 13.9527 20.6772 14.0051 19.8667 13.9089C19.4928 13.8645 19.1152 13.8635 18.7396 13.8182C17.8587 13.7119 16.6836 13.3088 16.1724 14.3317C15.881 14.9147 16.0472 15.834 16.0472 16.472V21.3194C16.0472 23.6371 15.9055 26.0052 16.1903 28.3072C16.8746 33.836 19.8235 38.9677 24.0619 42.519C25.7787 43.9576 27.6349 45.1962 29.6346 46.2014C30.299 46.5354 31.1764 47.1376 31.9514 46.9716C32.5982 46.8331 33.2423 46.4338 33.8298 46.1385C35.2293 45.4348 36.5846 44.6027 37.8372 43.6597C42.4467 40.1896 45.9182 35.268 46.9524 29.5033C47.3754 27.145 47.292 24.7761 47.292 22.3896V16.472C47.292 15.7513 47.4979 14.6788 47.0082 14.0856C46.3349 13.2702 45.0943 13.7892 44.2239 13.8878C42.0496 14.134 39.8416 14.0249 37.7119 13.4896C36.2439 13.1206 34.8592 12.5568 33.5167 11.8602C32.8642 11.5216 32.1753 10.8563 31.3878 11.0277Z" fill="black"/>
<path d="M31.5139 13.6615C31.2271 13.751 30.9657 13.9585 30.6999 14.0964C30.0459 14.4358 29.3848 14.7667 28.6963 15.0303C26.4601 15.8862 24.1917 16.2531 21.8086 16.2531C20.9718 16.2531 20.1285 16.222 19.304 16.0642C19.0522 16.016 18.6145 15.9019 18.4739 16.2045C18.3987 16.3663 18.4275 16.5833 18.4274 16.7567V17.9528V22.0448C18.4274 24.5123 18.3291 26.9729 18.767 29.4103C19.5085 33.5359 21.8163 37.2632 24.8768 40.0541C26.3903 41.4343 28.1195 42.6391 29.9486 43.5592C30.3425 43.7573 30.7351 43.9539 31.1382 44.1325C31.3626 44.2319 31.5747 44.3535 31.827 44.289C32.3394 44.1582 32.8588 43.8277 33.3298 43.5903C34.5089 42.996 35.6553 42.284 36.711 41.4893C40.7751 38.4297 43.7161 34.1614 44.6246 29.0955C44.9722 27.1569 44.9135 25.2027 44.9135 23.2409V17.9528L44.9134 16.6308C44.9126 16.4628 44.9339 16.2411 44.8044 16.1109C44.6557 15.9615 44.409 16.0115 44.2247 16.0377C43.7451 16.106 43.267 16.1954 42.7846 16.2424C40.9965 16.4165 39.1546 16.3513 37.3997 15.9458C35.956 15.6122 34.5186 15.1383 33.2045 14.4412C32.8662 14.2617 32.5298 14.0721 32.2027 13.8728C31.9869 13.7412 31.7777 13.5792 31.5139 13.6615Z" fill="white"/>
<path d="M19.3117 16.7945V23.7694C19.3117 25.6142 19.2579 27.4286 19.5973 29.2497C20.7949 35.6757 25.7705 41.0029 31.7 43.4487V14.4902C31.2672 14.6486 30.8725 14.9081 30.4612 15.1149C29.7679 15.4634 29.0289 15.7785 28.2932 16.025C26.1671 16.7377 23.8482 17.1399 21.6035 17.0411C20.8349 17.0073 20.0749 16.8915 19.3117 16.7945Z" fill="black"/>
<path d="M31.7004 29.2376V33.6494L24.668 29.1994L31.7004 16.6934V29.2376ZM31.7004 35.0784L24.668 30.6284L31.7004 41.2451C31.7004 39.1895 31.7004 37.1339 31.7004 35.0784Z" fill="white"/>
<path d="M31.6992 29.2383V33.6503L38.7316 29.2001L31.6992 16.6934V29.2383ZM31.6992 35.0794L38.7316 30.6292L31.6992 41.2464C31.6992 39.1908 31.6992 37.1351 31.6992 35.0794Z" fill="black"/>
</g>
</g>
<defs>
<clipPath id="clip0_575_62">
<rect width="194" height="58" fill="white"/>
</clipPath>
</defs>
</svg>
