<svg width="194" height="58" viewBox="0 0 194 58" fill="none" xmlns="http://www.w3.org/2000/svg">
<path fill-rule="evenodd" clip-rule="evenodd" d="M44.052 34.2901L38.9913 41.4595C38.7798 41.7592 38.3935 41.8796 38.0498 41.7531L21.7527 35.7568C21.7426 35.7531 21.733 35.7493 21.7237 35.7454L34.2918 31.6776L44.052 34.2901ZM43.6535 19.3032L47.798 26.7267C47.9333 26.9691 47.9347 27.2641 47.8016 27.5082L44.6964 33.2056L34.9088 30.5858L35.2605 23.9836L43.6535 19.3032ZM21.303 34.6065L24.9755 21.5389L34.0404 24.0711L33.6927 30.5965L21.303 34.6065ZM25.4689 20.416L28.9759 15.7126C29.1676 15.4555 29.4928 15.3355 29.8053 15.4066L42.826 18.3693C42.8288 18.37 42.8316 18.3706 42.8344 18.3713L34.5959 22.9656L25.4689 20.416Z" fill="#8572FF"/>
<path d="M161.778 23.332C163.253 23.332 164.436 23.8711 165.327 24.9492C166.226 26.0273 166.675 27.6296 166.675 29.7559C166.675 31.1634 166.465 32.3501 166.046 33.3159C165.634 34.2743 165.054 35.0005 164.305 35.4946C163.564 35.9813 162.699 36.2246 161.711 36.2246C161.082 36.2246 160.535 36.1423 160.071 35.9775C159.607 35.8128 159.21 35.5994 158.881 35.3374C158.551 35.0679 158.274 34.7759 158.05 34.4614H157.893C157.93 34.7609 157.964 35.0941 157.994 35.4609C158.031 35.8203 158.05 36.1497 158.05 36.4492V41.5142H155.399V23.5679H157.556L157.926 25.2861H158.05C158.282 24.9342 158.563 24.6086 158.892 24.3091C159.229 24.0096 159.633 23.7738 160.105 23.6016C160.584 23.4219 161.142 23.332 161.778 23.332ZM161.071 25.4883C160.345 25.4883 159.761 25.6343 159.319 25.9263C158.885 26.2108 158.566 26.6413 158.364 27.2178C158.17 27.7943 158.065 28.5168 158.05 29.3853V29.7559C158.05 30.6768 158.143 31.4591 158.331 32.103C158.525 32.7394 158.843 33.2261 159.285 33.563C159.734 33.8924 160.341 34.0571 161.104 34.0571C161.748 34.0571 162.28 33.8812 162.699 33.5293C163.126 33.1774 163.444 32.6758 163.654 32.0244C163.863 31.373 163.968 30.6056 163.968 29.7222C163.968 28.382 163.729 27.3413 163.25 26.6001C162.778 25.8589 162.052 25.4883 161.071 25.4883Z" fill="white" fill-opacity="1"/>
<path d="M146.932 23.332C148.504 23.332 149.691 23.6802 150.492 24.3765C151.3 25.0728 151.705 26.1584 151.705 27.6333V36H149.829L149.324 34.2368H149.234C148.882 34.686 148.519 35.0566 148.145 35.3486C147.77 35.6406 147.336 35.8577 146.842 36C146.355 36.1497 145.76 36.2246 145.056 36.2246C144.315 36.2246 143.652 36.0898 143.068 35.8203C142.484 35.5433 142.024 35.124 141.687 34.5625C141.35 34.001 141.182 33.2897 141.182 32.4287C141.182 31.1484 141.657 30.1864 142.608 29.5425C143.566 28.8986 145.011 28.543 146.943 28.4756L149.099 28.397V27.7456C149.099 26.8846 148.897 26.2707 148.493 25.9038C148.096 25.5369 147.534 25.3535 146.808 25.3535C146.187 25.3535 145.584 25.4434 145 25.623C144.416 25.8027 143.847 26.0236 143.293 26.2856L142.439 24.4214C143.046 24.0994 143.735 23.8374 144.506 23.6353C145.285 23.4331 146.093 23.332 146.932 23.332ZM149.088 30.0591L147.482 30.1152C146.164 30.1602 145.24 30.3848 144.708 30.7891C144.176 31.1934 143.911 31.7474 143.911 32.4512C143.911 33.0651 144.094 33.5143 144.461 33.7988C144.828 34.0758 145.311 34.2144 145.91 34.2144C146.823 34.2144 147.579 33.9561 148.178 33.4395C148.785 32.9154 149.088 32.1479 149.088 31.1372V30.0591Z" fill="white" fill-opacity="1"/>
<path d="M133.466 35.9888L131.894 30.2051C131.819 29.9206 131.729 29.5762 131.625 29.1719C131.52 28.7676 131.415 28.3521 131.31 27.9253C131.205 27.491 131.108 27.0905 131.018 26.7236C130.936 26.3568 130.872 26.0723 130.827 25.8701H130.737C130.7 26.0723 130.64 26.3568 130.558 26.7236C130.475 27.0905 130.382 27.491 130.277 27.9253C130.172 28.3595 130.067 28.7826 129.962 29.1943C129.865 29.6061 129.775 29.958 129.693 30.25L128.042 35.9888H125.145L121.663 23.5566H124.336L125.953 29.7334C126.058 30.1527 126.159 30.6056 126.256 31.0923C126.361 31.5789 126.451 32.0431 126.526 32.4849C126.601 32.9266 126.657 33.2897 126.694 33.5742H126.784C126.814 33.3721 126.855 33.1175 126.908 32.8105C126.96 32.4961 127.02 32.1704 127.087 31.8335C127.155 31.4891 127.222 31.1672 127.29 30.8677C127.357 30.5607 127.421 30.3136 127.48 30.1265L129.39 23.5566H132.276L134.106 30.1265C134.189 30.411 134.279 30.7703 134.376 31.2046C134.473 31.6313 134.559 32.0618 134.634 32.4961C134.717 32.9229 134.769 33.2785 134.792 33.563H134.881C134.911 33.3084 134.964 32.964 135.039 32.5298C135.121 32.0881 135.215 31.6201 135.319 31.126C135.424 30.6243 135.533 30.1602 135.645 29.7334L137.296 23.5566H139.924L136.42 35.9888H133.466Z" fill="white" fill-opacity="1"/>
<path d="M120.451 32.4512C120.451 33.2673 120.252 33.9561 119.855 34.5176C119.459 35.0791 118.878 35.5059 118.115 35.7979C117.359 36.0824 116.43 36.2246 115.33 36.2246C114.461 36.2246 113.712 36.161 113.083 36.0337C112.462 35.9139 111.874 35.7267 111.32 35.4722V33.1924C111.912 33.4694 112.574 33.709 113.308 33.9111C114.049 34.1133 114.749 34.2144 115.408 34.2144C116.277 34.2144 116.902 34.0796 117.284 33.8101C117.666 33.533 117.856 33.1662 117.856 32.7095C117.856 32.4399 117.778 32.2004 117.621 31.9907C117.471 31.7736 117.186 31.5527 116.767 31.3281C116.355 31.096 115.749 30.819 114.948 30.4971C114.162 30.1826 113.499 29.8682 112.96 29.5537C112.421 29.2393 112.013 28.8612 111.736 28.4194C111.459 27.9702 111.32 27.3975 111.32 26.7012C111.32 25.6006 111.755 24.7658 112.623 24.1968C113.499 23.6203 114.656 23.332 116.093 23.332C116.857 23.332 117.576 23.4106 118.25 23.5679C118.931 23.7176 119.597 23.9385 120.249 24.2305L119.417 26.2183C118.856 25.9712 118.291 25.769 117.722 25.6118C117.16 25.4471 116.587 25.3647 116.003 25.3647C115.322 25.3647 114.802 25.4696 114.442 25.6792C114.09 25.8888 113.915 26.1883 113.915 26.5776C113.915 26.8696 114.001 27.1167 114.173 27.3188C114.345 27.521 114.641 27.7231 115.06 27.9253C115.487 28.1274 116.078 28.3783 116.834 28.6777C117.576 28.9622 118.216 29.2617 118.755 29.5762C119.301 29.8831 119.721 30.2612 120.013 30.7104C120.305 31.1597 120.451 31.7399 120.451 32.4512Z" fill="white" fill-opacity="1"/>
<path d="M101.549 18.5254V26.9707C101.549 27.3525 101.534 27.7718 101.504 28.2285C101.474 28.6777 101.444 29.1007 101.415 29.4976H101.471C101.665 29.2355 101.897 28.9285 102.167 28.5767C102.444 28.2248 102.706 27.9178 102.953 27.6558L106.749 23.5679H109.781L104.806 28.9136L110.107 36H107.007L103.032 30.542L101.549 31.811V36H98.9102V18.5254H101.549Z" fill="white" fill-opacity="1"/>
<path d="M92.4868 36.2246C91.3114 36.2246 90.2931 35.9963 89.4321 35.5396C88.5711 35.0828 87.9085 34.3828 87.4443 33.4395C86.9801 32.4961 86.748 31.2982 86.748 29.8457C86.748 28.3333 87.0026 27.098 87.5117 26.1396C88.0208 25.1813 88.7246 24.4738 89.623 24.0171C90.529 23.5604 91.5659 23.332 92.7339 23.332C93.4751 23.332 94.1452 23.4069 94.7441 23.5566C95.3506 23.6989 95.8634 23.8748 96.2827 24.0845L95.4966 26.1958C95.0399 26.0086 94.5719 25.8514 94.0928 25.7241C93.6136 25.5968 93.1532 25.5332 92.7114 25.5332C91.9852 25.5332 91.3787 25.6942 90.8921 26.0161C90.4129 26.3381 90.0535 26.8172 89.814 27.4536C89.5819 28.09 89.4658 28.8799 89.4658 29.8232C89.4658 30.7367 89.5856 31.5078 89.8252 32.1367C90.0648 32.7581 90.4204 33.2298 90.8921 33.5518C91.3638 33.8662 91.944 34.0234 92.6328 34.0234C93.3141 34.0234 93.9243 33.9411 94.4634 33.7764C95.0024 33.6117 95.5116 33.3983 95.9907 33.1362V35.4272C95.519 35.6968 95.0137 35.8952 94.4746 36.0225C93.9355 36.1572 93.2729 36.2246 92.4868 36.2246Z" fill="white" fill-opacity="1"/>
<path d="M84.4448 29.7559C84.4448 30.7891 84.3101 31.7062 84.0405 32.5073C83.771 33.3084 83.3779 33.986 82.8613 34.54C82.3447 35.0866 81.7233 35.5059 80.9971 35.7979C80.2708 36.0824 79.451 36.2246 78.5376 36.2246C77.6841 36.2246 76.9017 36.0824 76.1904 35.7979C75.4792 35.5059 74.8615 35.0866 74.3374 34.54C73.8208 33.986 73.4202 33.3084 73.1357 32.5073C72.8512 31.7062 72.709 30.7891 72.709 29.7559C72.709 28.3857 72.9448 27.2253 73.4165 26.2744C73.8957 25.3161 74.577 24.5861 75.4604 24.0845C76.3439 23.5828 77.3958 23.332 78.6162 23.332C79.7617 23.332 80.7725 23.5828 81.6484 24.0845C82.5244 24.5861 83.2095 25.3161 83.7036 26.2744C84.1978 27.2327 84.4448 28.3932 84.4448 29.7559ZM75.4268 29.7559C75.4268 30.6618 75.5353 31.4367 75.7524 32.0806C75.9771 32.7244 76.3215 33.2186 76.7856 33.563C77.2498 33.8999 77.8488 34.0684 78.5825 34.0684C79.3162 34.0684 79.9152 33.8999 80.3794 33.563C80.8436 33.2186 81.1842 32.7244 81.4014 32.0806C81.6185 31.4367 81.7271 30.6618 81.7271 29.7559C81.7271 28.8499 81.6185 28.0825 81.4014 27.4536C81.1842 26.8172 80.8436 26.3343 80.3794 26.0049C79.9152 25.668 79.3125 25.4995 78.5713 25.4995C77.4782 25.4995 76.6808 25.8664 76.1792 26.6001C75.6776 27.3338 75.4268 28.3857 75.4268 29.7559Z" fill="white" fill-opacity="1"/>
<path d="M63.6353 19.5811C65.0503 19.5811 66.2183 19.7533 67.1392 20.0977C68.0675 20.4421 68.7563 20.9661 69.2056 21.6699C69.6623 22.3737 69.8906 23.2684 69.8906 24.354C69.8906 25.1626 69.7409 25.8514 69.4414 26.4204C69.1419 26.9894 68.7489 27.4611 68.2622 27.8354C67.7756 28.2098 67.2552 28.5093 66.7012 28.7339L71.3618 36H68.3184L64.354 29.4189H61.7148V36H59.0195V19.5811H63.6353ZM63.4556 21.8271H61.7148V27.1953H63.5791C64.8294 27.1953 65.7354 26.9632 66.2969 26.499C66.8659 26.0348 67.1504 25.3498 67.1504 24.4438C67.1504 23.493 66.8472 22.8192 66.2407 22.4224C65.6418 22.0256 64.7134 21.8271 63.4556 21.8271Z" fill="white" fill-opacity="1"/>
</svg>
