<svg width="194" height="58" viewBox="0 0 194 58" fill="none" xmlns="http://www.w3.org/2000/svg">
<g clip-path="url(#clip0_607_56)">
<mask id="mask0_607_56" style="mask-type:luminance" maskUnits="userSpaceOnUse" x="0" y="0" width="194" height="58">
<path d="M194 0H0V58H194V0Z" fill="white"/>
</mask>
<g mask="url(#mask0_607_56)">
<mask id="mask1_607_56" style="mask-type:luminance" maskUnits="userSpaceOnUse" x="0" y="0" width="194" height="58">
<path d="M194 0H0V58H194V0Z" fill="white"/>
</mask>
<g mask="url(#mask1_607_56)">
<path d="M92.5735 27.4495C91.1801 26.8906 89.4783 26.4247 87.4681 26.0509H87.4254C85.4724 25.707 84.0073 25.3913 83.0308 25.1037C82.0543 24.8179 81.2862 24.4304 80.7258 23.9423C80.1654 23.4551 79.886 22.7809 79.886 21.9199C79.886 20.6578 80.3602 19.697 81.3076 19.0374C82.2559 18.3777 83.5049 18.0475 85.0555 18.0475C86.7505 18.0475 88.1208 18.4776 89.1699 19.3386C90.1114 20.1117 90.688 21.0939 90.8999 22.2834C90.9418 22.5207 91.1425 22.6956 91.3834 22.6982L96.1505 22.734C96.4427 22.7366 96.6768 22.4857 96.6478 22.1947C96.488 20.6032 95.9626 19.156 95.0724 17.8538C94.0814 16.4057 92.717 15.2793 90.9793 14.4754C89.2417 13.6724 87.2673 13.2705 85.0555 13.2705C82.959 13.2705 81.071 13.6579 79.3905 14.4328C77.7109 15.2076 76.4038 16.2828 75.47 17.6601C74.5363 19.0374 74.0698 20.5862 74.0698 22.3073C74.0698 24.2009 74.4859 25.7215 75.3188 26.8684C76.1518 28.0162 77.2428 28.884 78.5926 29.4719C79.9424 30.0599 81.5647 30.5258 83.4605 30.8706L83.6758 30.9132C85.6851 31.2861 87.187 31.6164 88.178 31.9031C89.169 32.1907 89.9507 32.5917 90.5257 33.108C91.0998 33.6243 91.3869 34.3274 91.3869 35.2166C91.3869 36.4795 90.87 37.4686 89.8363 38.1854C88.8025 38.903 87.4664 39.2614 85.8295 39.2614C83.8757 39.2614 82.2969 38.7665 81.0906 37.7766C79.9928 36.8763 79.3469 35.7201 79.153 34.3087C79.1197 34.0646 78.9164 33.8794 78.6703 33.876L73.9092 33.8043C73.6196 33.8001 73.3855 34.0441 73.4077 34.3325C73.5427 36.0682 74.086 37.6324 75.0378 39.025C76.086 40.5602 77.5289 41.7651 79.3674 42.6398C81.2051 43.5153 83.3161 43.9522 85.7005 43.9522C87.9115 43.9522 89.8935 43.5511 91.6457 42.7473C93.3971 41.9443 94.7691 40.8324 95.7601 39.4125C96.7511 37.9925 97.2466 36.3934 97.2466 34.6141C97.2466 32.7206 96.8152 31.1931 95.9541 30.0309C95.0929 28.8686 93.9652 28.0085 92.5727 27.4487L92.5735 27.4495Z" fill="white" fill-opacity="1"/>
<path d="M121.846 39.0477H121.102C120.671 39.0477 120.333 38.9333 120.09 38.7029C119.845 38.4742 119.723 38.1005 119.723 37.5842V29.3649C119.723 26.7545 118.89 24.768 117.225 23.4052C115.559 22.0432 113.598 21.3486 110.525 21.3486C107.623 21.3486 105.357 21.9784 103.577 23.2115C101.953 24.3362 100.975 25.8764 100.64 27.8348C100.588 28.1395 100.819 28.4185 101.127 28.4185H105.506C105.725 28.4185 105.922 28.2743 105.98 28.0627C106.18 27.3382 106.62 26.7468 107.302 26.2886C108.092 25.7578 109.03 25.4924 110.265 25.4924C112.595 25.4924 114.251 26.9269 114.251 29.0636V29.7318C114.251 30.0049 114.03 30.2259 113.757 30.2259H109.791C106.574 30.2259 104.133 30.8574 102.468 32.1194C100.802 33.3824 99.9688 35.1752 99.9688 37.498C99.9688 39.5068 100.73 41.0846 102.252 42.2315C103.395 43.0916 104.76 43.5883 106.165 43.8059C107.239 43.9723 108.342 44.0329 109.418 43.8605C110.546 43.6804 111.462 43.2162 112.379 42.554C113.202 41.9601 113.889 41.1989 114.516 40.2705C114.822 39.7457 115.624 39.9565 115.624 40.5632V41.2928C115.623 42.6189 116.699 43.6941 118.027 43.6941H121.846C122.12 43.6941 122.341 43.4731 122.341 43.2V39.5409C122.341 39.2678 122.12 39.0468 121.846 39.0468V39.0477ZM114.252 34.6154C114.252 35.677 114.029 36.602 113.584 37.3905C112.651 39.0443 110.982 39.9078 109.103 39.9078C108.011 39.9078 107.136 39.6501 106.475 39.1339C105.814 38.6176 105.484 37.9289 105.484 37.0679C105.484 36.0934 105.851 35.3399 106.583 34.8092C107.315 34.2792 108.356 34.013 109.706 34.013H113.757C114.031 34.013 114.252 34.234 114.252 34.5071V34.6154Z" fill="white" fill-opacity="1"/>
<path d="M137.812 13.5859H132.114C129.109 13.5859 126.672 16.0197 126.672 19.0217V21.4102C126.672 21.6832 126.451 21.9043 126.178 21.9043H122.924C122.651 21.9043 122.43 22.1253 122.43 22.3983V26.1001C122.43 26.3732 122.651 26.5942 122.924 26.5942H126.178C126.451 26.5942 126.672 26.8152 126.672 27.0883V43.201C126.672 43.474 126.894 43.695 127.167 43.695H131.606C131.879 43.695 132.101 43.474 132.101 43.201V27.0883C132.101 26.8152 132.322 26.5942 132.595 26.5942H137.768C138.042 26.5942 138.263 26.3732 138.263 26.1001V22.3983C138.263 22.1253 138.042 21.9043 137.768 21.9043H132.595C132.322 21.9043 132.101 21.6832 132.101 21.4102V19.264C132.101 18.7179 132.544 18.2759 133.09 18.2759H137.811C138.084 18.2759 138.305 18.0549 138.305 17.7818V14.08C138.305 13.807 138.084 13.5859 137.811 13.5859H137.812Z" fill="white" fill-opacity="1"/>
<path d="M159.556 26.3536C158.594 24.7476 157.279 23.5137 155.614 22.6527C153.948 21.7925 152.023 21.3496 149.841 21.3496C147.659 21.3496 145.776 21.8283 144.111 22.7602C142.445 23.6929 141.153 25.0121 140.234 26.7188C139.315 28.4263 138.855 30.4265 138.855 32.722C138.855 35.0175 139.33 36.9324 140.277 38.639C141.225 40.3457 142.582 41.6581 144.348 42.5763C146.114 43.4945 148.189 43.9536 150.573 43.9536C152.411 43.9536 154.056 43.6166 155.506 42.9424C156.956 42.2691 158.126 41.3433 159.017 40.1674C159.779 39.1604 160.299 38.0579 160.577 36.8607C160.65 36.5501 160.415 36.2514 160.096 36.2514H155.636C155.422 36.2514 155.235 36.3897 155.167 36.5919C154.853 37.5195 154.298 38.2525 153.503 38.7901C152.612 39.3925 151.506 39.6938 150.185 39.6938C149.094 39.6938 148.139 39.4642 147.321 39.0051C146.502 38.5469 145.857 37.9009 145.382 37.0689C145.195 36.7404 145.042 36.3931 144.92 36.0355C144.79 35.6515 144.696 35.2556 144.631 34.8545C144.608 34.7146 144.588 34.5729 144.571 34.4312C144.538 34.1394 144.769 33.8843 145.063 33.8843H160.442C160.691 33.8843 160.905 33.6999 160.933 33.4516C160.954 33.2699 160.969 33.0847 160.976 32.8944C160.991 32.5505 160.998 32.2348 160.998 31.948C160.998 29.8258 160.517 27.9613 159.555 26.3544L159.556 26.3536ZM154.935 30.1398H145.303C144.987 30.1398 144.749 29.8471 144.819 29.5391C144.972 28.8641 145.239 28.2548 145.618 27.7087C146.106 27.0064 146.738 26.4679 147.514 26.095C148.29 25.7221 149.136 25.5352 150.056 25.5352C151.549 25.5352 152.784 25.9371 153.761 26.7401C154.599 27.4296 155.151 28.3615 155.418 29.5365C155.488 29.8454 155.252 30.1398 154.935 30.1398Z" fill="white" fill-opacity="1"/>
<path d="M62.3319 28.6309H58.1098C56.8489 28.6309 55.8271 29.6514 55.8271 30.911V37.032C55.8271 38.2915 54.8053 39.3121 53.5444 39.3121H36.7476C35.4866 39.3121 34.4648 40.3327 34.4648 41.5922V45.8094C34.4648 47.0689 35.4866 48.0895 36.7476 48.0895H54.5166C55.7775 48.0895 56.7848 47.0689 56.7848 45.8094V42.4259C56.7848 41.1664 57.8066 40.2729 59.0675 40.2729H62.331C63.592 40.2729 64.6138 39.2523 64.6138 37.9928V30.8845C64.6138 29.625 63.592 28.6309 62.331 28.6309H62.3319Z" fill="#12FF80"/>
<path d="M34.4633 20.2528C34.4633 18.9933 35.4851 17.9727 36.7461 17.9727H53.5326C54.7935 17.9727 55.8153 16.9521 55.8153 15.6926V11.4754C55.8153 10.2159 54.7935 9.19531 53.5326 9.19531H35.773C34.512 9.19531 33.4902 10.2159 33.4902 11.4754V14.7249C33.4902 15.9845 32.4685 17.005 31.2075 17.005H27.9585C26.6975 17.005 25.6758 18.0256 25.6758 19.2852V26.4011C25.6758 27.6606 26.7018 28.63 27.9628 28.63H32.1848C33.4458 28.63 34.4676 27.6094 34.4676 26.3499L34.4633 20.2537V20.2528Z" fill="#12FF80"/>
<path d="M43.1594 24.1973H47.2149C48.5365 24.1973 49.6087 25.2691 49.6087 26.5883V30.6391C49.6087 31.9592 48.5357 33.0301 47.2149 33.0301H43.1594C41.8378 33.0301 40.7656 31.9584 40.7656 30.6391V26.5883C40.7656 25.2682 41.8386 24.1973 43.1594 24.1973Z" fill="#12FF80"/>
</g>
</g>
</g>
<defs>
<clipPath id="clip0_607_56">
<rect width="194" height="58" fill="white"/>
</clipPath>
</defs>
</svg>
