<svg width="30" height="30" viewBox="0 0 30 30" fill="none" xmlns="http://www.w3.org/2000/svg">
<rect width="30" height="30" fill="101217"/>
<path d="M23.7693 14.8175H21.4922C20.8121 14.8175 20.2611 15.3856 20.2611 16.0867V19.4934C20.2611 20.1945 19.71 20.7625 19.0299 20.7625H9.97084C9.29076 20.7625 8.73975 21.3305 8.73975 22.0316V24.3788C8.73975 25.0799 9.29076 25.6479 9.97084 25.6479H19.5542C20.2344 25.6479 20.7776 25.0799 20.7776 24.3788V22.4957C20.7776 21.7946 21.3287 21.2973 22.0088 21.2973H23.7689C24.449 21.2973 25.0001 20.7293 25.0001 20.0282V16.0719C25.0001 15.3709 24.4494 14.8175 23.7693 14.8175Z" fill="white"/>
<path d="M8.73937 10.1544C8.73937 9.45339 9.29047 8.88536 9.97056 8.88536H19.0241C19.7042 8.88536 20.2552 8.31733 20.2552 7.61629V5.26907C20.2552 4.56804 19.7042 4 19.0241 4H9.44572C8.76564 4 8.21463 4.56804 8.21463 5.26907V7.07769C8.21463 7.77872 7.66352 8.34674 6.98344 8.34674H5.23116C4.55107 8.34674 4 8.91477 4 9.6158V13.5765C4 14.2775 4.55337 14.817 5.23346 14.817H7.51055C8.19063 14.817 8.74173 14.249 8.74173 13.5479L8.73937 10.1544Z" fill="white"/>
<path d="M13.4285 12.3502H15.6158C16.3285 12.3502 16.9069 12.9467 16.9069 13.681V15.9356C16.9069 16.6704 16.3281 17.2664 15.6158 17.2664H13.4285C12.7157 17.2664 12.1375 16.6699 12.1375 15.9356V13.681C12.1375 12.9463 12.7162 12.3502 13.4285 12.3502Z" fill="white"/>
</svg>
