<svg width="194" height="58" viewBox="0 0 194 58" fill="none" xmlns="http://www.w3.org/2000/svg">
<path d="M30.0787 36.908L29.7365 37.2092L29.6142 37.3171L29.1496 37.7261L28.7338 38.092L28.4303 40.3388L28.2984 41.3116L28.1544 42.3751L28.0249 43.3357L28.8112 44.0278L29.1496 44.326L29.6142 44.735L29.6823 44.7947L30.0787 45.144L30.4786 45.4964L30.543 45.5527V42.6469V39.6852V37.9194V36.8664V36.499L30.3344 36.6826L30.0787 36.908Z" fill="#E3BF52"/>
<path d="M26.8812 36.4609L26.5993 37.0342L26.2862 37.6712L25.5095 39.2509L25.3228 39.6303L24.868 40.5559L25.4018 41.0256L25.5095 41.1206L26.4599 41.9577L27.1337 39.8055L27.2653 39.3849L27.3835 39.008L27.6115 38.2785L27.8981 37.3627L27.9 37.3577L26.8942 36.472L26.8812 36.4609Z" fill="#E3BF52"/>
<path d="M25.7711 36.374L26.0978 35.7708L25.6061 34.5326L25.5097 34.6558L25.2339 35.0096L25.2307 35.0136L23.7675 36.8882L23.1342 37.6998L23.7675 39.2946L23.9461 39.7435L25.5097 36.8563L25.7711 36.374Z" fill="#E3BF52"/>
<path d="M33.716 41.3116L33.5842 40.3388L33.2806 38.092L32.8648 37.7261L32.4002 37.3171L32.2779 37.2092L31.9357 36.908L31.68 36.6826L31.4714 36.499V36.8664V37.9194V39.6852V42.6469V45.5527L31.5358 45.4964L31.9357 45.144L32.3322 44.7947L32.4002 44.735L32.8648 44.326L33.2032 44.0278L33.9895 43.3357L33.86 42.3751L33.716 41.3116Z" fill="#E3BF52"/>
<path d="M36.5056 39.2509L35.7288 37.6712L35.4157 37.0342L35.1338 36.4609L35.1209 36.472L34.115 37.3577L34.117 37.3627L34.4035 38.2785L34.6315 39.008L34.7497 39.3849L34.8813 39.8055L35.5551 41.9577L36.5056 41.1206L36.6132 41.0256L37.147 40.5559L36.6922 39.6303L36.5056 39.2509Z" fill="#E3BF52"/>
<path d="M36.7841 35.0136L36.7809 35.0096L36.505 34.6558L36.4087 34.5326L35.917 35.7708L36.2437 36.374L36.505 36.8563L38.0687 39.7435L38.2473 39.2946L38.8806 37.6998L38.2473 36.8882L36.7841 35.0136Z" fill="#E3BF52"/>
<path d="M30.0787 36.908L29.7365 37.2092L29.6142 37.3171L29.1496 37.7261L28.7338 38.092L28.4303 40.3388L28.2984 41.3116L28.1544 42.3751L28.0249 43.3357L28.8112 44.0278L29.1496 44.326L29.6142 44.735L29.6823 44.7947L30.0787 45.144L30.4786 45.4964L30.543 45.5527V42.6469V39.6852V37.9194V36.8664V36.499L30.3344 36.6826L30.0787 36.908Z" fill="#E3BF52"/>
<path d="M26.8812 36.4609L26.5993 37.0342L26.2862 37.6712L25.5095 39.2509L25.3228 39.6303L24.868 40.5559L25.4018 41.0256L25.5095 41.1206L26.4599 41.9577L27.1337 39.8055L27.2653 39.3849L27.3835 39.008L27.6115 38.2785L27.8981 37.3627L27.9 37.3577L26.8942 36.472L26.8812 36.4609Z" fill="#E3BF52"/>
<path d="M25.7711 36.374L26.0978 35.7708L25.6061 34.5326L25.5097 34.6558L25.2339 35.0096L25.2307 35.0136L23.7675 36.8882L23.1342 37.6998L23.7675 39.2946L23.9461 39.7435L25.5097 36.8563L25.7711 36.374Z" fill="#E3BF52"/>
<path d="M33.716 41.3116L33.5842 40.3388L33.2806 38.092L32.8648 37.7261L32.4002 37.3171L32.2779 37.2092L31.9357 36.908L31.68 36.6826L31.4714 36.499V36.8664V37.9194V39.6852V42.6469V45.5527L31.5358 45.4964L31.9357 45.144L32.3322 44.7947L32.4002 44.735L32.8648 44.326L33.2032 44.0278L33.9895 43.3357L33.86 42.3751L33.716 41.3116Z" fill="#E3BF52"/>
<path d="M36.5056 39.2509L35.7288 37.6712L35.4157 37.0342L35.1338 36.4609L35.1209 36.472L34.115 37.3577L34.117 37.3627L34.4035 38.2785L34.6315 39.008L34.7497 39.3849L34.8813 39.8055L35.5551 41.9577L36.5056 41.1206L36.6132 41.0256L37.147 40.5559L36.6922 39.6303L36.5056 39.2509Z" fill="#E3BF52"/>
<path d="M36.7841 35.0136L36.7809 35.0096L36.505 34.6558L36.4087 34.5326L35.917 35.7708L36.2437 36.374L36.505 36.8563L38.0687 39.7435L38.2473 39.2946L38.8806 37.6998L38.2473 36.8882L36.7841 35.0136Z" fill="#E3BF52"/>
<path d="M41.8594 13.1884L41.0347 12.4619H41.0345H41.0341L39.7089 12.9975L39.3632 13.1369L39.0291 13.272L38.2471 13.5882L37.5102 13.8857L36.6642 15.2872L36.6339 15.3374L36.5046 15.5516L33.4828 20.5585L32.8653 21.5818H32.865V21.5821V22.9741L33.2311 23.2967L34.8181 24.6942L34.9012 24.7674L34.8086 24.7193L32.9564 23.7511L32.8647 23.703L32.4001 23.4604V22.565V22.3517V21.5821V21.5818L32.8647 20.6126L33.0664 20.1916L35.1176 15.9122L35.6373 14.8285L35.4345 14.7247L34.6176 14.3073L34.2938 15.1855L33.8347 16.4307L32.865 19.062L32.6001 19.7811L32.4004 20.3226L31.9362 21.5818L31.9359 21.5827V22.1563V22.5512V23.1215V23.2176V23.7357L32.4004 24.1448L32.6087 24.328L32.865 24.5539L33.6683 25.2614L32.865 24.8412L32.4348 24.6163L32.4004 24.5986L31.9359 24.3556L31.4716 24.1129V23.8905V23.5198V23.3264V22.975V22.8417V21.7472V21.5815L31.9359 19.3598L31.9651 19.2213L32.4007 17.136L32.4293 16.9987L32.6714 15.8409L32.8653 14.9122L33.1486 13.5557L32.8653 13.4111L32.4007 13.1734L31.9362 12.9356L31.4713 12.6991L31.007 12.4619H31.0068H31.0065L30.5423 12.6991L30.078 12.9362L29.6134 13.174L29.1488 13.4117L28.8655 13.5564L29.1488 14.9128L29.3427 15.8415L29.5848 16.9993L29.6134 17.1366L30.0491 19.2219L30.0782 19.3605L30.5425 21.5821V21.7479V22.8423V22.9756V23.3271V23.5204V23.8911V24.1135L30.0782 24.3562L29.6137 24.5992L29.5793 24.6169L29.1492 24.8419L28.3458 25.2619L29.1492 24.5544L29.4054 24.3286L29.6137 24.1454L30.0782 23.7364V23.2182V23.1221V22.5518V22.1563V21.5827L30.078 21.5818L29.6137 20.3226L29.414 19.7811L29.1492 19.062L28.1794 16.4307L27.7197 15.1858L27.396 14.3076L26.5791 14.725L26.3762 14.8288L26.8959 15.9125L28.9471 20.192L29.1488 20.613L29.6134 21.5821V21.5824V22.3521V22.5653V23.4606L29.1488 23.7033L29.0571 23.7514L27.205 24.7196L27.1123 24.7677L27.1954 24.6945L28.7824 23.297L29.1486 22.9743V21.5824V21.5821H29.1482L28.5308 20.5587L25.5089 15.5519L25.3796 15.3377L25.3493 15.2875L24.5033 13.886L23.7667 13.5885L22.9847 13.2723L22.6506 13.1372L22.3049 12.9978L20.9794 12.4619H20.9791H20.9788L20.1541 13.1884L19.895 13.416V15.1193V17.3741V18.1413V18.8525V20.0713V20.1564V20.9479V21.5818L20.1466 22.2157L20.69 23.5829L20.9791 23.8378L21.5605 24.3501L22.3569 25.0514L21.5648 23.0571L21.175 22.0748L20.9791 21.5818V21.026V18.645V18.5705V17.587V14.1649L21.4797 13.7243L23.4438 14.5178L23.7667 15.3938L24.0053 16.0406L25.5092 20.1203V21.5821V23.2195L25.1514 23.5348L24.4898 24.1173L24.0324 24.5198L23.992 24.5557L23.7667 24.7539V25.5885V26.1799V26.293V26.5167V27.5614V27.6549V27.7147V28.6007L23.9095 28.9605L23.9707 29.1145L25.1716 32.1384L25.3562 32.3007L25.5089 32.4353L26.5364 33.3401L27.0111 33.7583L27.0858 33.9458L27.5469 35.1068L27.6545 35.3773L28.332 35.9741L28.9033 36.4773L28.9576 36.4295L29.1486 36.2612L29.5017 35.9509L29.6131 35.8522L30.0776 35.4432L30.5419 35.0344L30.8928 34.7256L31.0068 34.6254L31.1207 34.7256L31.4716 35.0344L31.9359 35.4432L32.4004 35.8522L32.5118 35.9509L32.865 36.2612L33.056 36.4295L33.1103 36.4773L33.6816 35.9741L34.359 35.3773L34.4667 35.1068L34.9277 33.9458L35.0025 33.7583L35.4772 33.3401L36.5046 32.4353L36.6572 32.3007L36.842 32.1384L38.0429 29.1145L38.1041 28.9605L38.2469 28.6007V27.7147V27.6549V27.5614V26.5167V26.293V26.1799V25.5885V24.7539L38.0215 24.5557L37.9811 24.5198L37.5237 24.1173L36.8622 23.5348L36.5044 23.2195V21.5821V20.1203L38.0082 16.0406L38.2469 15.3938L38.5697 14.5178L40.5339 13.7243L41.0345 14.1649V17.587V18.5705V18.645V21.0263V21.5821L40.8385 22.0751L40.4487 23.0574L39.6567 25.0517L40.4531 24.3504L41.0345 23.8381L41.3236 23.5832L41.8666 22.2161L42.1182 21.5821V20.9482V20.1568V20.0716V18.8527V18.1416V17.3744V15.1193V13.416L41.8594 13.1884ZM25.8361 26.1795H26.5883H26.8316L27.1129 26.3465L27.9976 26.8711L29.1486 28.2199V28.2202V28.9595V29.0965V29.9924V29.9936L29.1482 29.9927L28.7677 28.9595H26.7955L25.5089 27.8265V27.7591V26.7437V26.1795H25.8361ZM36.5046 26.7437V27.7591V27.8265L35.2181 28.9595H33.2458L32.8653 29.9927L32.865 29.9936V29.9924V29.0965V28.9595V28.2202V28.2199L34.016 26.8711L34.9006 26.3465L35.182 26.1795H35.4252H36.1774H36.5046V26.7437ZM32.4001 32.7095L31.9356 33.1185L31.6058 33.4093L31.4713 33.5273L31.0068 33.9363L30.5423 33.5273L30.4078 33.4093L30.078 33.1185L29.6134 32.7095L29.4772 32.5894L29.4103 32.5303L29.1488 32.3005V32.3001H29.4821H29.5162H29.6134H29.9989H30.078H30.5423H30.5889H31.0068H31.4245H31.4713H31.9356H32.0146H32.4001H32.4973H32.5315H32.8647V32.3005L32.6033 32.5303L32.5363 32.5894L32.4001 32.7095Z" fill="#DADEEF"/>
<mask id="path-15-outside-1_62_1626" maskUnits="userSpaceOnUse" x="51.7634" y="19.0613" width="131" height="22" fill="black">
<rect fill="white" x="51.7634" y="19.0613" width="131" height="22"/>
<path d="M62.0896 24.2303C61.997 23.4479 61.6212 22.8406 60.9624 22.4083C60.3036 21.9759 59.4956 21.7598 58.5382 21.7598C57.8383 21.7598 57.2258 21.873 56.7008 22.0994C56.181 22.3259 55.7744 22.6373 55.481 23.0336C55.1928 23.4299 55.0486 23.8803 55.0486 24.3847C55.0486 24.8067 55.149 25.1696 55.3497 25.4732C55.5556 25.7718 55.8181 26.0214 56.1372 26.2221C56.4563 26.4177 56.7909 26.5798 57.1409 26.7085C57.4909 26.832 57.8125 26.9324 58.1059 27.0096L59.7117 27.4419C60.1235 27.55 60.5816 27.6993 61.086 27.8897C61.5955 28.0801 62.0819 28.3401 62.5451 28.6695C63.0135 28.9937 63.3995 29.4106 63.7032 29.9202C64.0068 30.4297 64.1587 31.055 64.1587 31.7962C64.1587 32.6506 63.9348 33.4226 63.487 34.1123C63.0443 34.802 62.3958 35.3501 61.5415 35.7567C60.6922 36.1633 59.6603 36.3666 58.4456 36.3666C57.3133 36.3666 56.3328 36.1839 55.5041 35.8185C54.6806 35.4531 54.0321 34.9435 53.5586 34.2899C53.0903 33.6362 52.8252 32.877 52.7634 32.0124H54.7398C54.7913 32.6094 54.992 33.1035 55.342 33.4947C55.6972 33.8807 56.1449 34.1689 56.6854 34.3594C57.2309 34.5446 57.8177 34.6373 58.4456 34.6373C59.1765 34.6373 59.8327 34.5189 60.4143 34.2821C60.9959 34.0402 61.4565 33.7057 61.7962 33.2785C62.1359 32.8462 62.3058 32.3418 62.3058 31.7653C62.3058 31.2403 62.1591 30.8131 61.8657 30.4837C61.5723 30.1543 61.1863 29.8867 60.7077 29.6808C60.229 29.4749 59.7117 29.2948 59.1559 29.1404L57.2103 28.5845C55.9751 28.2294 54.9972 27.7224 54.2766 27.0636C53.556 26.4048 53.1958 25.5427 53.1958 24.4773C53.1958 23.592 53.4351 22.82 53.9138 22.1612C54.3976 21.4973 55.0461 20.9826 55.8593 20.6171C56.6776 20.2466 57.5912 20.0613 58.6 20.0613C59.6191 20.0613 60.5249 20.244 61.3176 20.6094C62.1102 20.9697 62.7381 21.4638 63.2013 22.0917C63.6697 22.7197 63.9167 23.4325 63.9425 24.2303H62.0896Z"/>
<path d="M67.0596 40.5356V24.2303H68.8198V26.114H69.036C69.1698 25.9082 69.3551 25.6457 69.5918 25.3266C69.8337 25.0023 70.1786 24.7141 70.6264 24.4619C71.0793 24.2045 71.6918 24.0759 72.4638 24.0759C73.4623 24.0759 74.3424 24.3255 75.1042 24.8247C75.8659 25.324 76.4604 26.0317 76.8876 26.9478C77.3148 27.864 77.5284 28.9448 77.5284 30.1904C77.5284 31.4462 77.3148 32.5348 76.8876 33.4561C76.4604 34.3722 75.8685 35.0825 75.1119 35.5869C74.3553 36.0861 73.4829 36.3358 72.4947 36.3358C71.733 36.3358 71.123 36.2097 70.665 35.9575C70.2069 35.7001 69.8543 35.4093 69.6073 35.0851C69.3602 34.7557 69.1698 34.4829 69.036 34.2667H68.8816V40.5356H67.0596ZM68.8507 30.1595C68.8507 31.055 68.9819 31.8451 69.2444 32.5296C69.5069 33.209 69.8904 33.7417 70.3948 34.1277C70.8992 34.5086 71.5168 34.699 72.2476 34.699C73.0094 34.699 73.645 34.4983 74.1546 34.0969C74.6693 33.6903 75.0553 33.1447 75.3126 32.4601C75.5751 31.7705 75.7064 31.0036 75.7064 30.1595C75.7064 29.3257 75.5777 28.5742 75.3203 27.9051C75.0681 27.2309 74.6847 26.6982 74.17 26.307C73.6605 25.9107 73.0197 25.7126 72.2476 25.7126C71.5065 25.7126 70.8837 25.9004 70.3793 26.2762C69.8749 26.6467 69.4941 27.1666 69.2367 27.8357C68.9794 28.4996 68.8507 29.2742 68.8507 30.1595Z"/>
<path d="M82.1297 28.9551V36.0887H80.3077V20.2774H82.1297V26.0831H82.2841C82.562 25.4707 82.9789 24.9843 83.5348 24.624C84.0958 24.2586 84.8421 24.0759 85.7737 24.0759C86.5817 24.0759 87.2894 24.238 87.8968 24.5622C88.5041 24.8813 88.975 25.3729 89.3096 26.0368C89.6493 26.6956 89.8191 27.5346 89.8191 28.5537V36.0887H87.9971V28.6772C87.9971 27.7353 87.7527 27.007 87.2637 26.4923C86.7799 25.9725 86.1082 25.7126 85.2487 25.7126C84.6517 25.7126 84.1164 25.8387 83.6429 26.0909C83.1745 26.3431 82.8039 26.7111 82.5311 27.1949C82.2635 27.6787 82.1297 28.2654 82.1297 28.9551Z"/>
<path d="M93.9013 40.5356C93.5925 40.5356 93.3171 40.5099 93.0752 40.4584C92.8333 40.4121 92.666 40.3658 92.5734 40.3195L93.0366 38.7136C93.4792 38.8269 93.8704 38.868 94.2101 38.8372C94.5498 38.8063 94.8509 38.6544 95.1134 38.3817C95.381 38.114 95.6255 37.6791 95.8468 37.0769L96.1865 36.1505L91.8013 24.2303H93.7777L97.0512 33.68H97.1747L100.448 24.2303H102.425L97.3909 37.8181C97.1644 38.4305 96.8839 38.9375 96.5493 39.339C96.2148 39.7456 95.8262 40.0467 95.3836 40.2423C94.9461 40.4378 94.452 40.5356 93.9013 40.5356Z"/>
<path d="M106.651 28.9551V36.0887H104.829V24.2303H106.59V26.0831H106.744C107.022 25.481 107.444 24.9972 108.01 24.6317C108.576 24.2611 109.307 24.0759 110.203 24.0759C111.006 24.0759 111.708 24.2406 112.31 24.57C112.913 24.8942 113.381 25.3883 113.716 26.0523C114.05 26.7111 114.217 27.5449 114.217 28.5537V36.0887H112.395V28.6772C112.395 27.7456 112.153 27.0199 111.67 26.5C111.186 25.9751 110.522 25.7126 109.678 25.7126C109.096 25.7126 108.576 25.8387 108.118 26.0909C107.665 26.3431 107.308 26.7111 107.045 27.1949C106.783 27.6787 106.651 28.2654 106.651 28.9551Z"/>
<path d="M118.906 24.2303L121.747 29.0786L124.588 24.2303H126.688L122.858 30.1595L126.688 36.0887H124.588L121.747 31.4874L118.906 36.0887H116.806L120.573 30.1595L116.806 24.2303H118.906Z"/>
<path d="M135.649 36.0887V20.2774H137.564V34.3902H144.913V36.0887H135.649Z"/>
<path d="M151.121 36.3666C150.369 36.3666 149.687 36.2251 149.075 35.942C148.462 35.6538 147.976 35.2395 147.616 34.699C147.255 34.1535 147.075 33.4947 147.075 32.7226C147.075 32.0432 147.209 31.4925 147.477 31.0705C147.744 30.6433 148.102 30.3087 148.55 30.0668C148.997 29.8249 149.492 29.6448 150.032 29.5264C150.578 29.4029 151.126 29.3051 151.676 29.233C152.397 29.1404 152.981 29.0709 153.429 29.0246C153.882 28.9731 154.211 28.8882 154.417 28.7698C154.628 28.6514 154.734 28.4456 154.734 28.1522V28.0904C154.734 27.3287 154.525 26.7368 154.108 26.3148C153.697 25.8927 153.071 25.6817 152.232 25.6817C151.362 25.6817 150.681 25.8721 150.186 26.253C149.692 26.6339 149.345 27.0405 149.144 27.4728L147.415 26.8552C147.724 26.1346 148.135 25.5736 148.65 25.1721C149.17 24.7655 149.736 24.4825 150.349 24.3229C150.966 24.1582 151.574 24.0759 152.171 24.0759C152.551 24.0759 152.989 24.1222 153.483 24.2148C153.982 24.3023 154.463 24.485 154.927 24.763C155.395 25.0409 155.784 25.4604 156.092 26.0214C156.401 26.5824 156.556 27.3338 156.556 28.2757V36.0887H154.734V34.4829H154.641C154.518 34.7402 154.312 35.0156 154.023 35.309C153.735 35.6023 153.352 35.852 152.873 36.0578C152.394 36.2637 151.81 36.3666 151.121 36.3666ZM151.399 34.7299C152.119 34.7299 152.726 34.5884 153.221 34.3053C153.72 34.0222 154.095 33.6568 154.348 33.209C154.605 32.7612 154.734 32.2903 154.734 31.7962V30.1286C154.656 30.2212 154.487 30.3062 154.224 30.3834C153.967 30.4554 153.668 30.5198 153.329 30.5764C152.994 30.6279 152.667 30.6742 152.348 30.7154C152.034 30.7514 151.779 30.7823 151.584 30.808C151.11 30.8698 150.668 30.9701 150.256 31.1091C149.849 31.2429 149.52 31.4462 149.268 31.719C149.021 31.9866 148.897 32.3521 148.897 32.8153C148.897 33.4484 149.131 33.927 149.6 34.2513C150.073 34.5704 150.673 34.7299 151.399 34.7299Z"/>
<path d="M160.128 36.0887V20.2774H161.95V26.114H162.105C162.239 25.9082 162.424 25.6457 162.661 25.3266C162.902 25.0023 163.247 24.7141 163.695 24.4619C164.148 24.2045 164.76 24.0759 165.533 24.0759C166.531 24.0759 167.411 24.3255 168.173 24.8247C168.935 25.324 169.529 26.0317 169.956 26.9478C170.383 27.864 170.597 28.9448 170.597 30.1904C170.597 31.4462 170.383 32.5348 169.956 33.4561C169.529 34.3722 168.937 35.0825 168.181 35.5869C167.424 36.0861 166.552 36.3358 165.563 36.3358C164.802 36.3358 164.192 36.2097 163.734 35.9575C163.276 35.7001 162.923 35.4093 162.676 35.0851C162.429 34.7557 162.239 34.4829 162.105 34.2667H161.889V36.0887H160.128ZM161.919 30.1595C161.919 31.055 162.051 31.8451 162.313 32.5296C162.576 33.209 162.959 33.7417 163.463 34.1277C163.968 34.5086 164.585 34.699 165.316 34.699C166.078 34.699 166.714 34.4983 167.223 34.0969C167.738 33.6903 168.124 33.1447 168.381 32.4601C168.644 31.7705 168.775 31.0036 168.775 30.1595C168.775 29.3257 168.646 28.5742 168.389 27.9051C168.137 27.2309 167.753 26.6982 167.239 26.307C166.729 25.9107 166.088 25.7126 165.316 25.7126C164.575 25.7126 163.952 25.9004 163.448 26.2762C162.944 26.6467 162.563 27.1666 162.305 27.8357C162.048 28.4996 161.919 29.2742 161.919 30.1595Z"/>
<path d="M181.784 26.8861L180.147 27.3493C180.044 27.0765 179.892 26.8114 179.692 26.5541C179.496 26.2916 179.228 26.0754 178.889 25.9056C178.549 25.7357 178.114 25.6508 177.584 25.6508C176.858 25.6508 176.254 25.8181 175.77 26.1526C175.291 26.482 175.052 26.9015 175.052 27.411C175.052 27.864 175.216 28.2217 175.546 28.4842C175.875 28.7467 176.39 28.9654 177.09 29.1404L178.85 29.5727C179.91 29.8301 180.7 30.2238 181.22 30.754C181.74 31.2789 182 31.9558 182 32.7844C182 33.4638 181.804 34.0711 181.413 34.6064C181.027 35.1417 180.487 35.5637 179.792 35.8725C179.097 36.1814 178.289 36.3358 177.368 36.3358C176.158 36.3358 175.157 36.0733 174.365 35.5483C173.572 35.0233 173.07 34.2564 172.859 33.2476L174.588 32.8153C174.753 33.4535 175.065 33.9322 175.523 34.2513C175.986 34.5704 176.591 34.7299 177.337 34.7299C178.186 34.7299 178.86 34.5498 179.36 34.1895C179.864 33.8241 180.116 33.3866 180.116 32.877C180.116 32.4653 179.972 32.1205 179.684 31.8425C179.396 31.5594 178.953 31.3484 178.356 31.2095L176.38 30.7462C175.294 30.4889 174.496 30.09 173.986 29.5496C173.482 29.004 173.23 28.322 173.23 27.5037C173.23 26.8346 173.418 26.2427 173.793 25.728C174.174 25.2133 174.691 24.8093 175.345 24.5159C176.004 24.2225 176.75 24.0759 177.584 24.0759C178.757 24.0759 179.679 24.3332 180.348 24.8479C181.022 25.3626 181.501 26.042 181.784 26.8861Z"/>
</mask>
<path d="M62.0896 24.2303C61.997 23.4479 61.6212 22.8406 60.9624 22.4083C60.3036 21.9759 59.4956 21.7598 58.5382 21.7598C57.8383 21.7598 57.2258 21.873 56.7008 22.0994C56.181 22.3259 55.7744 22.6373 55.481 23.0336C55.1928 23.4299 55.0486 23.8803 55.0486 24.3847C55.0486 24.8067 55.149 25.1696 55.3497 25.4732C55.5556 25.7718 55.8181 26.0214 56.1372 26.2221C56.4563 26.4177 56.7909 26.5798 57.1409 26.7085C57.4909 26.832 57.8125 26.9324 58.1059 27.0096L59.7117 27.4419C60.1235 27.55 60.5816 27.6993 61.086 27.8897C61.5955 28.0801 62.0819 28.3401 62.5451 28.6695C63.0135 28.9937 63.3995 29.4106 63.7032 29.9202C64.0068 30.4297 64.1587 31.055 64.1587 31.7962C64.1587 32.6506 63.9348 33.4226 63.487 34.1123C63.0443 34.802 62.3958 35.3501 61.5415 35.7567C60.6922 36.1633 59.6603 36.3666 58.4456 36.3666C57.3133 36.3666 56.3328 36.1839 55.5041 35.8185C54.6806 35.4531 54.0321 34.9435 53.5586 34.2899C53.0903 33.6362 52.8252 32.877 52.7634 32.0124H54.7398C54.7913 32.6094 54.992 33.1035 55.342 33.4947C55.6972 33.8807 56.1449 34.1689 56.6854 34.3594C57.2309 34.5446 57.8177 34.6373 58.4456 34.6373C59.1765 34.6373 59.8327 34.5189 60.4143 34.2821C60.9959 34.0402 61.4565 33.7057 61.7962 33.2785C62.1359 32.8462 62.3058 32.3418 62.3058 31.7653C62.3058 31.2403 62.1591 30.8131 61.8657 30.4837C61.5723 30.1543 61.1863 29.8867 60.7077 29.6808C60.229 29.4749 59.7117 29.2948 59.1559 29.1404L57.2103 28.5845C55.9751 28.2294 54.9972 27.7224 54.2766 27.0636C53.556 26.4048 53.1958 25.5427 53.1958 24.4773C53.1958 23.592 53.4351 22.82 53.9138 22.1612C54.3976 21.4973 55.0461 20.9826 55.8593 20.6171C56.6776 20.2466 57.5912 20.0613 58.6 20.0613C59.6191 20.0613 60.5249 20.244 61.3176 20.6094C62.1102 20.9697 62.7381 21.4638 63.2013 22.0917C63.6697 22.7197 63.9167 23.4325 63.9425 24.2303H62.0896Z" fill="white"/>
<path d="M67.0596 40.5356V24.2303H68.8198V26.114H69.036C69.1698 25.9082 69.3551 25.6457 69.5918 25.3266C69.8337 25.0023 70.1786 24.7141 70.6264 24.4619C71.0793 24.2045 71.6918 24.0759 72.4638 24.0759C73.4623 24.0759 74.3424 24.3255 75.1042 24.8247C75.8659 25.324 76.4604 26.0317 76.8876 26.9478C77.3148 27.864 77.5284 28.9448 77.5284 30.1904C77.5284 31.4462 77.3148 32.5348 76.8876 33.4561C76.4604 34.3722 75.8685 35.0825 75.1119 35.5869C74.3553 36.0861 73.4829 36.3358 72.4947 36.3358C71.733 36.3358 71.123 36.2097 70.665 35.9575C70.2069 35.7001 69.8543 35.4093 69.6073 35.0851C69.3602 34.7557 69.1698 34.4829 69.036 34.2667H68.8816V40.5356H67.0596ZM68.8507 30.1595C68.8507 31.055 68.9819 31.8451 69.2444 32.5296C69.5069 33.209 69.8904 33.7417 70.3948 34.1277C70.8992 34.5086 71.5168 34.699 72.2476 34.699C73.0094 34.699 73.645 34.4983 74.1546 34.0969C74.6693 33.6903 75.0553 33.1447 75.3126 32.4601C75.5751 31.7705 75.7064 31.0036 75.7064 30.1595C75.7064 29.3257 75.5777 28.5742 75.3203 27.9051C75.0681 27.2309 74.6847 26.6982 74.17 26.307C73.6605 25.9107 73.0197 25.7126 72.2476 25.7126C71.5065 25.7126 70.8837 25.9004 70.3793 26.2762C69.8749 26.6467 69.4941 27.1666 69.2367 27.8357C68.9794 28.4996 68.8507 29.2742 68.8507 30.1595Z" fill="white"/>
<path d="M82.1297 28.9551V36.0887H80.3077V20.2774H82.1297V26.0831H82.2841C82.562 25.4707 82.9789 24.9843 83.5348 24.624C84.0958 24.2586 84.8421 24.0759 85.7737 24.0759C86.5817 24.0759 87.2894 24.238 87.8968 24.5622C88.5041 24.8813 88.975 25.3729 89.3096 26.0368C89.6493 26.6956 89.8191 27.5346 89.8191 28.5537V36.0887H87.9971V28.6772C87.9971 27.7353 87.7527 27.007 87.2637 26.4923C86.7799 25.9725 86.1082 25.7126 85.2487 25.7126C84.6517 25.7126 84.1164 25.8387 83.6429 26.0909C83.1745 26.3431 82.8039 26.7111 82.5311 27.1949C82.2635 27.6787 82.1297 28.2654 82.1297 28.9551Z" fill="white"/>
<path d="M93.9013 40.5356C93.5925 40.5356 93.3171 40.5099 93.0752 40.4584C92.8333 40.4121 92.666 40.3658 92.5734 40.3195L93.0366 38.7136C93.4792 38.8269 93.8704 38.868 94.2101 38.8372C94.5498 38.8063 94.8509 38.6544 95.1134 38.3817C95.381 38.114 95.6255 37.6791 95.8468 37.0769L96.1865 36.1505L91.8013 24.2303H93.7777L97.0512 33.68H97.1747L100.448 24.2303H102.425L97.3909 37.8181C97.1644 38.4305 96.8839 38.9375 96.5493 39.339C96.2148 39.7456 95.8262 40.0467 95.3836 40.2423C94.9461 40.4378 94.452 40.5356 93.9013 40.5356Z" fill="white"/>
<path d="M106.651 28.9551V36.0887H104.829V24.2303H106.59V26.0831H106.744C107.022 25.481 107.444 24.9972 108.01 24.6317C108.576 24.2611 109.307 24.0759 110.203 24.0759C111.006 24.0759 111.708 24.2406 112.31 24.57C112.913 24.8942 113.381 25.3883 113.716 26.0523C114.05 26.7111 114.217 27.5449 114.217 28.5537V36.0887H112.395V28.6772C112.395 27.7456 112.153 27.0199 111.67 26.5C111.186 25.9751 110.522 25.7126 109.678 25.7126C109.096 25.7126 108.576 25.8387 108.118 26.0909C107.665 26.3431 107.308 26.7111 107.045 27.1949C106.783 27.6787 106.651 28.2654 106.651 28.9551Z" fill="white"/>
<path d="M118.906 24.2303L121.747 29.0786L124.588 24.2303H126.688L122.858 30.1595L126.688 36.0887H124.588L121.747 31.4874L118.906 36.0887H116.806L120.573 30.1595L116.806 24.2303H118.906Z" fill="white"/>
<path d="M135.649 36.0887V20.2774H137.564V34.3902H144.913V36.0887H135.649Z" fill="white"/>
<path d="M151.121 36.3666C150.369 36.3666 149.687 36.2251 149.075 35.942C148.462 35.6538 147.976 35.2395 147.616 34.699C147.255 34.1535 147.075 33.4947 147.075 32.7226C147.075 32.0432 147.209 31.4925 147.477 31.0705C147.744 30.6433 148.102 30.3087 148.55 30.0668C148.997 29.8249 149.492 29.6448 150.032 29.5264C150.578 29.4029 151.126 29.3051 151.676 29.233C152.397 29.1404 152.981 29.0709 153.429 29.0246C153.882 28.9731 154.211 28.8882 154.417 28.7698C154.628 28.6514 154.734 28.4456 154.734 28.1522V28.0904C154.734 27.3287 154.525 26.7368 154.108 26.3148C153.697 25.8927 153.071 25.6817 152.232 25.6817C151.362 25.6817 150.681 25.8721 150.186 26.253C149.692 26.6339 149.345 27.0405 149.144 27.4728L147.415 26.8552C147.724 26.1346 148.135 25.5736 148.65 25.1721C149.17 24.7655 149.736 24.4825 150.349 24.3229C150.966 24.1582 151.574 24.0759 152.171 24.0759C152.551 24.0759 152.989 24.1222 153.483 24.2148C153.982 24.3023 154.463 24.485 154.927 24.763C155.395 25.0409 155.784 25.4604 156.092 26.0214C156.401 26.5824 156.556 27.3338 156.556 28.2757V36.0887H154.734V34.4829H154.641C154.518 34.7402 154.312 35.0156 154.023 35.309C153.735 35.6023 153.352 35.852 152.873 36.0578C152.394 36.2637 151.81 36.3666 151.121 36.3666ZM151.399 34.7299C152.119 34.7299 152.726 34.5884 153.221 34.3053C153.72 34.0222 154.095 33.6568 154.348 33.209C154.605 32.7612 154.734 32.2903 154.734 31.7962V30.1286C154.656 30.2212 154.487 30.3062 154.224 30.3834C153.967 30.4554 153.668 30.5198 153.329 30.5764C152.994 30.6279 152.667 30.6742 152.348 30.7154C152.034 30.7514 151.779 30.7823 151.584 30.808C151.11 30.8698 150.668 30.9701 150.256 31.1091C149.849 31.2429 149.52 31.4462 149.268 31.719C149.021 31.9866 148.897 32.3521 148.897 32.8153C148.897 33.4484 149.131 33.927 149.6 34.2513C150.073 34.5704 150.673 34.7299 151.399 34.7299Z" fill="white"/>
<path d="M160.128 36.0887V20.2774H161.95V26.114H162.105C162.239 25.9082 162.424 25.6457 162.661 25.3266C162.902 25.0023 163.247 24.7141 163.695 24.4619C164.148 24.2045 164.76 24.0759 165.533 24.0759C166.531 24.0759 167.411 24.3255 168.173 24.8247C168.935 25.324 169.529 26.0317 169.956 26.9478C170.383 27.864 170.597 28.9448 170.597 30.1904C170.597 31.4462 170.383 32.5348 169.956 33.4561C169.529 34.3722 168.937 35.0825 168.181 35.5869C167.424 36.0861 166.552 36.3358 165.563 36.3358C164.802 36.3358 164.192 36.2097 163.734 35.9575C163.276 35.7001 162.923 35.4093 162.676 35.0851C162.429 34.7557 162.239 34.4829 162.105 34.2667H161.889V36.0887H160.128ZM161.919 30.1595C161.919 31.055 162.051 31.8451 162.313 32.5296C162.576 33.209 162.959 33.7417 163.463 34.1277C163.968 34.5086 164.585 34.699 165.316 34.699C166.078 34.699 166.714 34.4983 167.223 34.0969C167.738 33.6903 168.124 33.1447 168.381 32.4601C168.644 31.7705 168.775 31.0036 168.775 30.1595C168.775 29.3257 168.646 28.5742 168.389 27.9051C168.137 27.2309 167.753 26.6982 167.239 26.307C166.729 25.9107 166.088 25.7126 165.316 25.7126C164.575 25.7126 163.952 25.9004 163.448 26.2762C162.944 26.6467 162.563 27.1666 162.305 27.8357C162.048 28.4996 161.919 29.2742 161.919 30.1595Z" fill="white"/>
<path d="M181.784 26.8861L180.147 27.3493C180.044 27.0765 179.892 26.8114 179.692 26.5541C179.496 26.2916 179.228 26.0754 178.889 25.9056C178.549 25.7357 178.114 25.6508 177.584 25.6508C176.858 25.6508 176.254 25.8181 175.77 26.1526C175.291 26.482 175.052 26.9015 175.052 27.411C175.052 27.864 175.216 28.2217 175.546 28.4842C175.875 28.7467 176.39 28.9654 177.09 29.1404L178.85 29.5727C179.91 29.8301 180.7 30.2238 181.22 30.754C181.74 31.2789 182 31.9558 182 32.7844C182 33.4638 181.804 34.0711 181.413 34.6064C181.027 35.1417 180.487 35.5637 179.792 35.8725C179.097 36.1814 178.289 36.3358 177.368 36.3358C176.158 36.3358 175.157 36.0733 174.365 35.5483C173.572 35.0233 173.07 34.2564 172.859 33.2476L174.588 32.8153C174.753 33.4535 175.065 33.9322 175.523 34.2513C175.986 34.5704 176.591 34.7299 177.337 34.7299C178.186 34.7299 178.86 34.5498 179.36 34.1895C179.864 33.8241 180.116 33.3866 180.116 32.877C180.116 32.4653 179.972 32.1205 179.684 31.8425C179.396 31.5594 178.953 31.3484 178.356 31.2095L176.38 30.7462C175.294 30.4889 174.496 30.09 173.986 29.5496C173.482 29.004 173.23 28.322 173.23 27.5037C173.23 26.8346 173.418 26.2427 173.793 25.728C174.174 25.2133 174.691 24.8093 175.345 24.5159C176.004 24.2225 176.75 24.0759 177.584 24.0759C178.757 24.0759 179.679 24.3332 180.348 24.8479C181.022 25.3626 181.501 26.042 181.784 26.8861Z" fill="white"/>
<path d="M62.0896 24.2303C61.997 23.4479 61.6212 22.8406 60.9624 22.4083C60.3036 21.9759 59.4956 21.7598 58.5382 21.7598C57.8383 21.7598 57.2258 21.873 56.7008 22.0994C56.181 22.3259 55.7744 22.6373 55.481 23.0336C55.1928 23.4299 55.0486 23.8803 55.0486 24.3847C55.0486 24.8067 55.149 25.1696 55.3497 25.4732C55.5556 25.7718 55.8181 26.0214 56.1372 26.2221C56.4563 26.4177 56.7909 26.5798 57.1409 26.7085C57.4909 26.832 57.8125 26.9324 58.1059 27.0096L59.7117 27.4419C60.1235 27.55 60.5816 27.6993 61.086 27.8897C61.5955 28.0801 62.0819 28.3401 62.5451 28.6695C63.0135 28.9937 63.3995 29.4106 63.7032 29.9202C64.0068 30.4297 64.1587 31.055 64.1587 31.7962C64.1587 32.6506 63.9348 33.4226 63.487 34.1123C63.0443 34.802 62.3958 35.3501 61.5415 35.7567C60.6922 36.1633 59.6603 36.3666 58.4456 36.3666C57.3133 36.3666 56.3328 36.1839 55.5041 35.8185C54.6806 35.4531 54.0321 34.9435 53.5586 34.2899C53.0903 33.6362 52.8252 32.877 52.7634 32.0124H54.7398C54.7913 32.6094 54.992 33.1035 55.342 33.4947C55.6972 33.8807 56.1449 34.1689 56.6854 34.3594C57.2309 34.5446 57.8177 34.6373 58.4456 34.6373C59.1765 34.6373 59.8327 34.5189 60.4143 34.2821C60.9959 34.0402 61.4565 33.7057 61.7962 33.2785C62.1359 32.8462 62.3058 32.3418 62.3058 31.7653C62.3058 31.2403 62.1591 30.8131 61.8657 30.4837C61.5723 30.1543 61.1863 29.8867 60.7077 29.6808C60.229 29.4749 59.7117 29.2948 59.1559 29.1404L57.2103 28.5845C55.9751 28.2294 54.9972 27.7224 54.2766 27.0636C53.556 26.4048 53.1958 25.5427 53.1958 24.4773C53.1958 23.592 53.4351 22.82 53.9138 22.1612C54.3976 21.4973 55.0461 20.9826 55.8593 20.6171C56.6776 20.2466 57.5912 20.0613 58.6 20.0613C59.6191 20.0613 60.5249 20.244 61.3176 20.6094C62.1102 20.9697 62.7381 21.4638 63.2013 22.0917C63.6697 22.7197 63.9167 23.4325 63.9425 24.2303H62.0896Z" stroke="white" stroke-width="0.8" mask="url(#path-15-outside-1_62_1626)"/>
<path d="M67.0596 40.5356V24.2303H68.8198V26.114H69.036C69.1698 25.9082 69.3551 25.6457 69.5918 25.3266C69.8337 25.0023 70.1786 24.7141 70.6264 24.4619C71.0793 24.2045 71.6918 24.0759 72.4638 24.0759C73.4623 24.0759 74.3424 24.3255 75.1042 24.8247C75.8659 25.324 76.4604 26.0317 76.8876 26.9478C77.3148 27.864 77.5284 28.9448 77.5284 30.1904C77.5284 31.4462 77.3148 32.5348 76.8876 33.4561C76.4604 34.3722 75.8685 35.0825 75.1119 35.5869C74.3553 36.0861 73.4829 36.3358 72.4947 36.3358C71.733 36.3358 71.123 36.2097 70.665 35.9575C70.2069 35.7001 69.8543 35.4093 69.6073 35.0851C69.3602 34.7557 69.1698 34.4829 69.036 34.2667H68.8816V40.5356H67.0596ZM68.8507 30.1595C68.8507 31.055 68.9819 31.8451 69.2444 32.5296C69.5069 33.209 69.8904 33.7417 70.3948 34.1277C70.8992 34.5086 71.5168 34.699 72.2476 34.699C73.0094 34.699 73.645 34.4983 74.1546 34.0969C74.6693 33.6903 75.0553 33.1447 75.3126 32.4601C75.5751 31.7705 75.7064 31.0036 75.7064 30.1595C75.7064 29.3257 75.5777 28.5742 75.3203 27.9051C75.0681 27.2309 74.6847 26.6982 74.17 26.307C73.6605 25.9107 73.0197 25.7126 72.2476 25.7126C71.5065 25.7126 70.8837 25.9004 70.3793 26.2762C69.8749 26.6467 69.4941 27.1666 69.2367 27.8357C68.9794 28.4996 68.8507 29.2742 68.8507 30.1595Z" stroke="white" stroke-width="0.8" mask="url(#path-15-outside-1_62_1626)"/>
<path d="M82.1297 28.9551V36.0887H80.3077V20.2774H82.1297V26.0831H82.2841C82.562 25.4707 82.9789 24.9843 83.5348 24.624C84.0958 24.2586 84.8421 24.0759 85.7737 24.0759C86.5817 24.0759 87.2894 24.238 87.8968 24.5622C88.5041 24.8813 88.975 25.3729 89.3096 26.0368C89.6493 26.6956 89.8191 27.5346 89.8191 28.5537V36.0887H87.9971V28.6772C87.9971 27.7353 87.7527 27.007 87.2637 26.4923C86.7799 25.9725 86.1082 25.7126 85.2487 25.7126C84.6517 25.7126 84.1164 25.8387 83.6429 26.0909C83.1745 26.3431 82.8039 26.7111 82.5311 27.1949C82.2635 27.6787 82.1297 28.2654 82.1297 28.9551Z" stroke="white" stroke-width="0.8" mask="url(#path-15-outside-1_62_1626)"/>
<path d="M93.9013 40.5356C93.5925 40.5356 93.3171 40.5099 93.0752 40.4584C92.8333 40.4121 92.666 40.3658 92.5734 40.3195L93.0366 38.7136C93.4792 38.8269 93.8704 38.868 94.2101 38.8372C94.5498 38.8063 94.8509 38.6544 95.1134 38.3817C95.381 38.114 95.6255 37.6791 95.8468 37.0769L96.1865 36.1505L91.8013 24.2303H93.7777L97.0512 33.68H97.1747L100.448 24.2303H102.425L97.3909 37.8181C97.1644 38.4305 96.8839 38.9375 96.5493 39.339C96.2148 39.7456 95.8262 40.0467 95.3836 40.2423C94.9461 40.4378 94.452 40.5356 93.9013 40.5356Z" stroke="white" stroke-width="0.8" mask="url(#path-15-outside-1_62_1626)"/>
<path d="M106.651 28.9551V36.0887H104.829V24.2303H106.59V26.0831H106.744C107.022 25.481 107.444 24.9972 108.01 24.6317C108.576 24.2611 109.307 24.0759 110.203 24.0759C111.006 24.0759 111.708 24.2406 112.31 24.57C112.913 24.8942 113.381 25.3883 113.716 26.0523C114.05 26.7111 114.217 27.5449 114.217 28.5537V36.0887H112.395V28.6772C112.395 27.7456 112.153 27.0199 111.67 26.5C111.186 25.9751 110.522 25.7126 109.678 25.7126C109.096 25.7126 108.576 25.8387 108.118 26.0909C107.665 26.3431 107.308 26.7111 107.045 27.1949C106.783 27.6787 106.651 28.2654 106.651 28.9551Z" stroke="white" stroke-width="0.8" mask="url(#path-15-outside-1_62_1626)"/>
<path d="M118.906 24.2303L121.747 29.0786L124.588 24.2303H126.688L122.858 30.1595L126.688 36.0887H124.588L121.747 31.4874L118.906 36.0887H116.806L120.573 30.1595L116.806 24.2303H118.906Z" stroke="white" stroke-width="0.8" mask="url(#path-15-outside-1_62_1626)"/>
<path d="M135.649 36.0887V20.2774H137.564V34.3902H144.913V36.0887H135.649Z" stroke="white" stroke-width="0.8" mask="url(#path-15-outside-1_62_1626)"/>
<path d="M151.121 36.3666C150.369 36.3666 149.687 36.2251 149.075 35.942C148.462 35.6538 147.976 35.2395 147.616 34.699C147.255 34.1535 147.075 33.4947 147.075 32.7226C147.075 32.0432 147.209 31.4925 147.477 31.0705C147.744 30.6433 148.102 30.3087 148.55 30.0668C148.997 29.8249 149.492 29.6448 150.032 29.5264C150.578 29.4029 151.126 29.3051 151.676 29.233C152.397 29.1404 152.981 29.0709 153.429 29.0246C153.882 28.9731 154.211 28.8882 154.417 28.7698C154.628 28.6514 154.734 28.4456 154.734 28.1522V28.0904C154.734 27.3287 154.525 26.7368 154.108 26.3148C153.697 25.8927 153.071 25.6817 152.232 25.6817C151.362 25.6817 150.681 25.8721 150.186 26.253C149.692 26.6339 149.345 27.0405 149.144 27.4728L147.415 26.8552C147.724 26.1346 148.135 25.5736 148.65 25.1721C149.17 24.7655 149.736 24.4825 150.349 24.3229C150.966 24.1582 151.574 24.0759 152.171 24.0759C152.551 24.0759 152.989 24.1222 153.483 24.2148C153.982 24.3023 154.463 24.485 154.927 24.763C155.395 25.0409 155.784 25.4604 156.092 26.0214C156.401 26.5824 156.556 27.3338 156.556 28.2757V36.0887H154.734V34.4829H154.641C154.518 34.7402 154.312 35.0156 154.023 35.309C153.735 35.6023 153.352 35.852 152.873 36.0578C152.394 36.2637 151.81 36.3666 151.121 36.3666ZM151.399 34.7299C152.119 34.7299 152.726 34.5884 153.221 34.3053C153.72 34.0222 154.095 33.6568 154.348 33.209C154.605 32.7612 154.734 32.2903 154.734 31.7962V30.1286C154.656 30.2212 154.487 30.3062 154.224 30.3834C153.967 30.4554 153.668 30.5198 153.329 30.5764C152.994 30.6279 152.667 30.6742 152.348 30.7154C152.034 30.7514 151.779 30.7823 151.584 30.808C151.11 30.8698 150.668 30.9701 150.256 31.1091C149.849 31.2429 149.52 31.4462 149.268 31.719C149.021 31.9866 148.897 32.3521 148.897 32.8153C148.897 33.4484 149.131 33.927 149.6 34.2513C150.073 34.5704 150.673 34.7299 151.399 34.7299Z" stroke="white" stroke-width="0.8" mask="url(#path-15-outside-1_62_1626)"/>
<path d="M160.128 36.0887V20.2774H161.95V26.114H162.105C162.239 25.9082 162.424 25.6457 162.661 25.3266C162.902 25.0023 163.247 24.7141 163.695 24.4619C164.148 24.2045 164.76 24.0759 165.533 24.0759C166.531 24.0759 167.411 24.3255 168.173 24.8247C168.935 25.324 169.529 26.0317 169.956 26.9478C170.383 27.864 170.597 28.9448 170.597 30.1904C170.597 31.4462 170.383 32.5348 169.956 33.4561C169.529 34.3722 168.937 35.0825 168.181 35.5869C167.424 36.0861 166.552 36.3358 165.563 36.3358C164.802 36.3358 164.192 36.2097 163.734 35.9575C163.276 35.7001 162.923 35.4093 162.676 35.0851C162.429 34.7557 162.239 34.4829 162.105 34.2667H161.889V36.0887H160.128ZM161.919 30.1595C161.919 31.055 162.051 31.8451 162.313 32.5296C162.576 33.209 162.959 33.7417 163.463 34.1277C163.968 34.5086 164.585 34.699 165.316 34.699C166.078 34.699 166.714 34.4983 167.223 34.0969C167.738 33.6903 168.124 33.1447 168.381 32.4601C168.644 31.7705 168.775 31.0036 168.775 30.1595C168.775 29.3257 168.646 28.5742 168.389 27.9051C168.137 27.2309 167.753 26.6982 167.239 26.307C166.729 25.9107 166.088 25.7126 165.316 25.7126C164.575 25.7126 163.952 25.9004 163.448 26.2762C162.944 26.6467 162.563 27.1666 162.305 27.8357C162.048 28.4996 161.919 29.2742 161.919 30.1595Z" stroke="white" stroke-width="0.8" mask="url(#path-15-outside-1_62_1626)"/>
<path d="M181.784 26.8861L180.147 27.3493C180.044 27.0765 179.892 26.8114 179.692 26.5541C179.496 26.2916 179.228 26.0754 178.889 25.9056C178.549 25.7357 178.114 25.6508 177.584 25.6508C176.858 25.6508 176.254 25.8181 175.77 26.1526C175.291 26.482 175.052 26.9015 175.052 27.411C175.052 27.864 175.216 28.2217 175.546 28.4842C175.875 28.7467 176.39 28.9654 177.09 29.1404L178.85 29.5727C179.91 29.8301 180.7 30.2238 181.22 30.754C181.74 31.2789 182 31.9558 182 32.7844C182 33.4638 181.804 34.0711 181.413 34.6064C181.027 35.1417 180.487 35.5637 179.792 35.8725C179.097 36.1814 178.289 36.3358 177.368 36.3358C176.158 36.3358 175.157 36.0733 174.365 35.5483C173.572 35.0233 173.07 34.2564 172.859 33.2476L174.588 32.8153C174.753 33.4535 175.065 33.9322 175.523 34.2513C175.986 34.5704 176.591 34.7299 177.337 34.7299C178.186 34.7299 178.86 34.5498 179.36 34.1895C179.864 33.8241 180.116 33.3866 180.116 32.877C180.116 32.4653 179.972 32.1205 179.684 31.8425C179.396 31.5594 178.953 31.3484 178.356 31.2095L176.38 30.7462C175.294 30.4889 174.496 30.09 173.986 29.5496C173.482 29.004 173.23 28.322 173.23 27.5037C173.23 26.8346 173.418 26.2427 173.793 25.728C174.174 25.2133 174.691 24.8093 175.345 24.5159C176.004 24.2225 176.75 24.0759 177.584 24.0759C178.757 24.0759 179.679 24.3332 180.348 24.8479C181.022 25.3626 181.501 26.042 181.784 26.8861Z" stroke="white" stroke-width="0.8" mask="url(#path-15-outside-1_62_1626)"/>
</svg>
