<svg width="30" height="30" viewBox="0 0 30 30" fill="none" xmlns="http://www.w3.org/2000/svg">
<rect width="30" height="30" rx="15"/>
<path d="M6.96373 15.6103C7.11762 15.7258 7.30724 15.7833 7.49931 15.7728C7.69139 15.7624 7.87365 15.6846 8.01411 15.5532L11.5146 12.2782C11.5858 12.2116 11.6784 12.1726 11.7758 12.1682C11.8732 12.1638 11.969 12.1943 12.0459 12.2542L15.3767 14.8489C15.517 14.9582 15.6891 15.0188 15.8669 15.0217C16.0447 15.0245 16.2186 14.9693 16.3623 14.8645L20.9778 11.4986L21.7209 12.2418C21.8293 12.3502 21.9659 12.426 22.1152 12.4605C22.2646 12.4951 22.4206 12.487 22.5656 12.4373C22.7105 12.3875 22.8386 12.2981 22.9353 12.1792C23.0319 12.0602 23.0932 11.9165 23.1122 11.7644L23.5928 7.92025C23.6083 7.79653 23.5953 7.67091 23.5548 7.55298C23.5144 7.43504 23.4475 7.32791 23.3593 7.23976C23.2711 7.1516 23.164 7.08474 23.0461 7.04429C22.9281 7.00384 22.8025 6.99085 22.6788 7.00633L18.8347 7.48686C18.6826 7.50587 18.5389 7.56718 18.42 7.66382C18.301 7.76047 18.2116 7.88856 18.1618 8.03353C18.1121 8.1785 18.104 8.33452 18.1386 8.48384C18.1731 8.63317 18.2489 8.76979 18.3573 8.87817L19.2034 9.72429L16.118 11.8891C16.0448 11.9404 15.9568 11.9664 15.8675 11.963C15.7781 11.9597 15.6923 11.9271 15.6232 11.8704L12.3257 9.1631C12.172 9.03693 11.9777 8.971 11.779 8.9776C11.5803 8.9842 11.3908 9.06289 11.2459 9.19898L6.25841 13.8814C6.17129 13.9632 6.10312 14.063 6.0587 14.174C6.01427 14.2849 5.99466 14.4042 6.00124 14.5235C6.00783 14.6428 6.04044 14.7592 6.0968 14.8646C6.15316 14.9699 6.2319 15.0617 6.32749 15.1334L6.96373 15.6103Z" fill="white"/>
<path d="M6.6769 22H22.9224C23.1019 22 23.2741 21.9287 23.4011 21.8017C23.528 21.6748 23.5993 21.5026 23.5993 21.3231C23.5993 21.1436 23.528 20.9714 23.4011 20.8445C23.2741 20.7175 23.1019 20.6462 22.9224 20.6462H22.584V13.1259C22.489 13.1508 22.3911 13.1622 22.2929 13.1597C22.0976 13.1595 21.9043 13.1204 21.7242 13.0449C21.5441 12.9694 21.3808 12.8589 21.2437 12.7197L20.9053 12.3881L19.1995 13.6336V20.6462H18.5226V14.1277L16.7626 15.4138C16.5061 15.5979 16.1985 15.6973 15.8828 15.6981C15.6207 15.699 15.3634 15.6288 15.1381 15.495V20.6462H14.4612V14.9941L11.8078 12.9296L11.0767 13.6132V20.6462H10.3998V14.2495L8.47755 16.0501C8.19926 16.3072 7.83417 16.4499 7.45526 16.4494C7.30594 16.4507 7.15739 16.4278 7.01534 16.3818V20.6462H6.6769C6.49737 20.6462 6.3252 20.7175 6.19826 20.8445C6.07132 20.9714 6 21.1436 6 21.3231C6 21.5026 6.07132 21.6748 6.19826 21.8017C6.3252 21.9287 6.49737 22 6.6769 22Z" fill="white"/>
</svg>
