<svg width="30" height="30" viewBox="0 0 30 30" fill="none" xmlns="http://www.w3.org/2000/svg">
<path d="M22.2373 16.9499C21.685 16.2281 21.0222 15.5952 20.2675 15.0666C19.7198 14.6824 19.133 14.3626 18.5139 14.1094C19.9568 13.0523 20.8266 11.3933 20.8266 9.62548C20.8266 6.52292 18.2125 4 14.9977 4C11.7829 4 9.16876 6.52292 9.16876 9.62548C9.16876 11.3955 10.0386 13.0523 11.4815 14.1094C10.8624 14.3626 10.2756 14.6846 9.72795 15.0666C8.97545 15.593 8.31271 16.2259 7.75812 16.9499C6.60752 18.4512 6 20.2324 6 22.1024V25.0806C6 25.5869 6.42802 26 6.9527 26H23.0542C23.0565 26 23.0588 26 23.0611 26C23.5789 25.9933 24 25.5803 24 25.0806V22.1024C23.9977 20.2346 23.3902 18.4512 22.2373 16.9499ZM14.9954 15.2465C18.9097 15.2465 22.0946 18.3202 22.0946 22.0979V24.1611H7.89619V22.0979C7.89619 18.3202 11.0811 15.2465 14.9954 15.2465ZM11.0672 9.62326C11.0672 7.53341 12.83 5.83222 14.9954 5.83222C17.1608 5.83222 18.9235 7.53341 18.9235 9.62326C18.9235 11.7131 17.1608 13.4143 14.9954 13.4143C12.83 13.4143 11.0672 11.7131 11.0672 9.62326Z" fill="white"/>
</svg>
