<svg width="30" height="30" viewBox="0 0 30 30" fill="none" xmlns="http://www.w3.org/2000/svg">
<g clip-path="url(#clip0_618_20)">
<path fill-rule="evenodd" clip-rule="evenodd" d="M24.7902 6.68163L10.6911 20.8192L10.6733 23.0947C10.669 23.6851 11.0284 24.2171 11.5782 24.4332C12.1273 24.6492 12.7526 24.5045 13.1512 24.0688L15.1935 21.839L20.3962 23.5611C20.7877 23.6901 21.2162 23.6438 21.5706 23.4341C21.9258 23.2245 22.1718 22.8708 22.2466 22.4658L24.9763 7.68495C25.0412 7.33268 24.9706 6.97613 24.7902 6.68163ZM10.515 19.9857L24.2775 6.18532C23.8539 5.94501 23.3319 5.93646 22.897 6.17107C19.3044 8.10923 9.32767 13.493 5.7487 15.4241C5.26737 15.6836 4.97716 16.1963 5.00141 16.7433C5.02565 17.2895 5.36079 17.7737 5.86352 17.9897L10.515 19.9857Z" fill="white"/>
</g>
<defs>
<clipPath id="clip0_618_20">
<rect width="30" height="30" fill="white"/>
</clipPath>
</defs>
</svg>
