<svg width="19" height="15" viewBox="0 0 19 15" fill="none" xmlns="http://www.w3.org/2000/svg">
<path d="M14.5721 0H4.4224C4.01652 0 3.6875 0.329025 3.6875 0.734898C3.6875 1.14077 4.01653 1.4698 4.4224 1.4698H14.5721C14.978 1.4698 15.307 1.14077 15.307 0.734898C15.307 0.329025 14.978 0 14.5721 0Z" fill="white"/>
<path d="M14.5721 13.53H4.4224C4.01653 13.53 3.6875 13.8591 3.6875 14.2649C3.6875 14.6708 4.01653 14.9998 4.4224 14.9998H14.5721C14.978 14.9998 15.307 14.6708 15.307 14.2649C15.307 13.8591 14.978 13.53 14.5721 13.53Z" fill="white"/>
<path d="M18.2651 6.76514H0.734898C0.329025 6.76514 0 7.09416 0 7.50003C0 7.90591 0.329025 8.23493 0.734898 8.23493H18.2651C18.671 8.23493 19 7.90591 19 7.50003C19 7.09416 18.671 6.76514 18.2651 6.76514Z" fill="url(#paint0_linear_532_47)"/>
<defs>
<linearGradient id="paint0_linear_532_47" x1="0" y1="7.50003" x2="19" y2="7.50003" gradientUnits="userSpaceOnUse">
<stop stop-color="#892CDC"/>
<stop offset="1" stop-color="#BB6FFF"/>
</linearGradient>
</defs>
</svg>
