<svg width="110" height="110" viewBox="0 0 110 110" fill="none" xmlns="http://www.w3.org/2000/svg">
<circle cx="55" cy="55" r="53.5" stroke="url(#paint0_linear_51_1544)" stroke-width="3"/>
<path fill-rule="evenodd" clip-rule="evenodd" d="M40.7491 38.743C41.3832 38.743 41.9 38.2246 41.9 37.5832C41.9 30.2678 47.772 24.324 54.9915 24.324C62.2237 24.324 68.1043 30.2678 68.1043 37.5832C68.1043 38.2246 68.621 38.743 69.2552 38.743C69.8894 38.743 70.4019 38.2246 70.4019 37.5832C70.4019 28.9892 63.4921 22 54.9915 22C46.5079 22 39.6024 28.9892 39.6024 37.5832C39.6024 38.2225 40.1149 38.743 40.7491 38.743ZM54.9957 84.676C42.4808 84.676 32.2997 74.3737 32.2997 61.7106C32.2997 54.1901 35.9703 47.1274 42.1221 42.8251C49.7579 37.4838 60.2464 37.4795 67.8822 42.8294H67.8908C74.034 47.1361 77.7046 54.1944 77.7046 61.7106C77.7046 74.3758 67.5149 84.676 54.9957 84.676ZM69.1954 40.9222H69.1869C60.7781 35.0324 49.2134 35.0281 40.811 40.9093C40.8067 40.9136 40.8067 40.9136 40.8067 40.9179C34.0378 45.6544 30 53.4298 30 61.7106C30 75.6523 41.2146 87 54.9936 87C68.7812 87 80 75.6523 80 61.7106C80.0021 53.4298 75.96 45.6609 69.1954 40.9222ZM57.4364 59.9525C57.0819 60.1598 56.8598 60.5421 56.8598 60.9568V70.7646C56.8641 71.2613 56.6719 71.73 56.326 72.0799C55.9716 72.4428 55.4997 72.6415 54.9915 72.6415C53.9729 72.6415 53.1444 71.797 53.1444 70.7603V60.9568C53.1444 60.5443 52.9224 60.1598 52.5679 59.9525C51.0412 59.054 50.1273 57.4687 50.1273 55.7084C50.1273 54.3672 50.6739 53.1058 51.6625 52.1555C52.5893 51.2657 53.7765 50.7754 55.0064 50.7754C56.2321 50.7754 57.4129 51.2657 58.3396 52.1555C59.3282 53.1037 59.8749 54.365 59.8749 55.7084C59.8749 57.4687 58.9588 59.054 57.4364 59.9525ZM50.0824 50.4687C48.6304 51.8639 47.8297 53.7257 47.8297 55.7084C47.8297 58.0367 48.9678 60.2354 50.8447 61.5896V70.7603C50.8447 73.0799 52.7088 74.9654 54.9893 74.9654C56.1104 74.9654 57.1631 74.5227 57.951 73.7214C58.7346 72.9287 59.1596 71.8747 59.1553 70.7603V61.5896C61.0322 60.2354 62.1703 58.0367 62.1703 55.7084C62.1703 53.7257 61.3696 51.8661 59.9218 50.473C57.2228 47.8661 52.7857 47.8704 50.0824 50.4687Z" fill="white"/>
<defs>
<linearGradient id="paint0_linear_51_1544" x1="165" y1="-51" x2="21" y2="110" gradientUnits="userSpaceOnUse">
<stop stop-color="#FFF"/>
<stop offset="1"/>
</linearGradient>
</defs>
</svg>
