<svg width="30" height="30" viewBox="0 0 30 30" fill="none" xmlns="http://www.w3.org/2000/svg">
<g clip-path="url(#clip0_618_23)">
<path d="M15.3921 11.614L21.4371 4.20823C21.523 4.08279 21.6674 4 21.8305 4H24.5237C24.6307 4.00251 24.7378 4.03763 24.8262 4.11164C25.0292 4.27973 25.0591 4.58331 24.891 4.78777L17.2051 14.2032L24.2385 24.2409C24.3904 24.4579 24.3381 24.7578 24.1227 24.9108C24.0393 24.9697 23.9434 24.9986 23.8488 24.9986L20.1883 24.9998C20.0165 24.9998 19.8658 24.9083 19.7812 24.7715L14.6079 17.3869L8.56293 24.7918C8.47702 24.9172 8.33259 25 8.16947 25H5.47633C5.36925 24.9975 5.26217 24.9624 5.17377 24.8884C4.97082 24.7203 4.94093 24.4167 5.10902 24.2122L12.7949 14.7981L5.7615 4.75906C5.6096 4.54205 5.66189 4.24224 5.87729 4.08922C5.96071 4.03027 6.05659 4.00141 6.15121 4.00141H9.81169C9.98351 4.00141 10.1342 4.09299 10.2188 4.22972L15.3933 11.6156L15.3921 11.614Z" fill="white"/>
</g>
<defs>
<clipPath id="clip0_618_23">
<rect width="30" height="30" fill="white"/>
</clipPath>
</defs>
</svg>
