<svg width="194" height="58" viewBox="0 0 194 58" fill="none" xmlns="http://www.w3.org/2000/svg">
<path d="M22.7978 26.3C23.5978 27.7 21.7978 28.1 20.9978 28.2C19.7978 28.3 19.4978 27.6 19.6978 26.7C19.7978 26.4 19.9978 26.1 20.1978 25.9C20.3978 25.7 20.7978 25.5 21.0978 25.5C21.3978 25.5 21.7978 25.5 21.9978 25.7C22.3978 25.8 22.5978 26 22.7978 26.3Z" fill="#EB1A6B"/>
<path d="M27.6022 23.7998C26.7022 30.7998 38.9021 29.2998 38.7021 34.7998C39.9021 33.1998 40.4022 28.9998 36.9022 26.7998C33.7022 24.7998 29.6022 25.8998 27.6022 23.7998Z" fill="#EB1A6B"/>
<path d="M34.7 21.0994C34.6 20.9994 34.5 20.9994 34.5 20.8994C34.5 20.9994 34.6 21.0994 34.7 21.0994Z" fill="#EB1A6B"/>
<path d="M37.5023 26.1999C37.4023 25.9999 37.3023 25.7999 37.1023 25.5999C36.7023 24.9999 36.1023 24.5999 35.4023 24.4999C35.0023 24.3999 34.5023 24.2999 34.0023 24.2999C33.5023 24.2999 33.1023 24.1999 32.6023 24.1999C31.6023 24.0999 30.7023 23.9999 29.7023 23.7999C29.5023 23.6999 29.2023 23.6999 29.0023 23.5999C28.9023 23.5999 28.8023 23.4999 28.6023 23.4999C28.5023 23.3999 28.4023 23.3999 28.2023 23.2999C27.7023 23.0999 27.3023 22.6999 27.0023 22.3999C26.3023 21.6999 25.7023 20.8999 25.1023 20.1999C24.5023 19.3999 24.0023 18.6999 23.3023 17.9999C22.7023 17.2999 21.9023 16.6999 21.1023 16.2999C20.3023 15.8999 19.3023 15.5999 18.4023 15.4999C19.4023 15.3999 20.4023 15.4999 21.3023 15.8999C22.2023 16.2999 23.1023 16.7999 23.8023 17.4999C24.3023 17.8999 24.7023 18.3999 25.1023 18.8999C28.2023 18.2999 30.6023 18.7999 32.5023 19.8999C33.1023 20.1999 33.7023 20.5999 34.2023 21.0999C34.3023 21.1999 34.4023 21.1999 34.4023 21.2999C34.8023 21.6999 35.2023 22.0999 35.5023 22.4999C36.9023 23.7999 37.5023 25.2999 37.5023 26.1999Z" fill="#EB1A6B"/>
<path d="M18.6977 16.2998C19.4977 16.3998 20.2977 16.6998 20.7977 17.2998C21.2977 17.8998 21.4977 18.6998 21.6977 19.3998C21.7977 19.9998 21.8977 20.5998 22.0977 21.0998C22.1977 21.3998 22.3977 21.5998 22.4977 21.7998C22.5977 21.9998 22.7977 22.1998 22.8977 22.3998V22.4998V22.5998C22.5977 22.8998 21.8977 22.5998 21.5977 22.3998C21.0977 22.1998 20.6977 21.7998 20.2977 21.3998C19.1977 20.1998 18.5977 18.3998 18.5977 16.7998C18.5977 16.6998 18.6977 16.4998 18.6977 16.2998Z" fill="#EB1A6B"/>
<path d="M31.7012 30.2998C30.0012 34.9998 37.7012 38.1998 34.8012 42.9998C37.7012 41.7998 39.1012 38.0998 37.9012 35.1998C36.9012 32.5998 33.7012 31.5998 31.7012 30.2998Z" fill="#EB1A6B"/>
<path d="M21.5977 36.4002C22.0977 36.1002 22.5977 35.8002 23.0977 35.5002C23.5977 35.3002 24.1977 35.1002 24.7977 35.0002C25.8977 34.8002 27.0977 34.7002 27.9977 34.3002C28.4977 34.1002 28.8977 33.9002 29.2977 33.5002C29.6977 33.2002 29.8977 32.8002 30.0977 32.3002C30.2977 31.8002 30.2977 31.3002 30.2977 30.8002C30.2977 30.2002 30.0977 29.7002 29.8977 29.2002C30.2977 29.6002 30.5977 30.2002 30.7977 30.8002C30.9977 31.4002 30.9977 32.0002 30.8977 32.6002C30.7977 33.2002 30.3977 33.8002 29.9977 34.3002C29.5977 34.7002 28.9977 35.1002 28.3977 35.3002C27.7977 35.5002 27.1977 35.6002 26.5977 35.7002C25.9977 35.7002 25.4977 35.8002 24.8977 35.8002C23.7977 35.8002 22.6977 36.0002 21.5977 36.4002Z" fill="#EB1A6B"/>
<path d="M32.3992 44.7002C32.1992 44.8002 32.0992 45.0002 31.8992 45.1002C31.6992 45.2002 31.4992 45.3002 31.2992 45.4002C30.8992 45.6002 30.3992 45.7002 29.8992 45.7002C28.5992 45.7002 27.6992 44.7002 27.1992 43.6002C26.7992 42.9002 26.5992 42.1002 26.1992 41.4002C25.5992 40.4002 24.4992 39.6002 23.2992 39.7002C22.7992 39.8002 22.2992 40.0002 22.0992 40.4002C21.3992 41.5002 22.3992 43.1002 23.7992 42.9002C23.8992 42.9002 23.9992 42.9002 24.0992 42.8002C24.1992 42.8002 24.2992 42.7002 24.3992 42.6002C24.5992 42.4002 24.6992 42.2002 24.7992 42.0002C24.8992 41.8002 24.8992 41.5002 24.8992 41.2002C24.7992 40.9002 24.6992 40.7002 24.4992 40.6002C24.7992 40.7002 24.9992 40.9002 25.0992 41.2002C24.9992 41.7002 24.9992 42.0002 24.9992 42.3002C24.8992 42.6002 24.7992 42.9002 24.5992 43.1002C24.4992 43.2002 24.3992 43.3002 24.1992 43.4002C24.0992 43.5002 23.8992 43.6002 23.7992 43.6002C23.4992 43.7002 23.1992 43.7002 22.8992 43.7002C22.4992 43.6002 21.9992 43.5002 21.6992 43.2002C21.2992 42.9002 20.9992 42.4002 20.5992 42.1002C20.1992 41.6002 19.6992 41.3002 19.0992 41.0002C18.6992 40.8002 18.2992 40.7002 17.8992 40.6002C17.6992 40.6002 17.4992 40.5002 17.2992 40.5002C17.1992 40.5002 16.6992 40.4002 16.6992 40.4002C17.3992 39.8002 18.0992 39.3002 18.7992 38.8002C19.5992 38.3002 20.3992 38.0002 21.2992 37.7002C22.1992 37.4002 23.0992 37.4002 24.0992 37.5002C24.5992 37.6002 24.9992 37.7002 25.4992 37.9002C25.9992 38.1002 26.3992 38.4002 26.7992 38.7002C27.1992 39.1002 27.4992 39.5002 27.6992 39.9002C27.8992 40.3002 27.9992 40.8002 28.0992 41.3002C28.3992 42.7002 28.2992 44.9002 30.0992 45.2002C30.1992 45.2002 30.2992 45.2002 30.3992 45.2002H30.6992C30.8992 45.2002 31.0992 45.2002 31.2992 45.1002C31.5992 45.1002 31.9992 44.9002 32.3992 44.7002Z" fill="#EB1A6B"/>
<path d="M20.1008 23.4C20.0008 23.7 19.9008 23.9 19.8008 24.1C19.5008 24.5 19.1008 24.8 18.7008 25C18.3008 25.2 17.9008 25.3 17.4008 25.3C17.3008 25.3 17.2008 25.3 17.1008 25.3C16.8008 25.3 16.6008 25.4 16.3008 25.6C16.1008 25.8 15.9008 26 15.9008 26.3C15.9008 26.4 15.8008 26.6 15.8008 26.7C15.8008 27.1 15.7008 27.4 15.7008 27.9C15.6008 28.7 15.4008 29.4 15.1008 30.1C14.7008 31 14.2008 31.8 14.3008 32.8C14.4008 33.5 14.7008 34 15.2008 34.4C16.0008 35.3 17.9008 35.7 17.5008 37.8C17.2008 39.1 15.1008 40.4 12.2008 40.9C12.5008 40.9 11.8008 39.7 11.8008 39.6C11.5008 39.1 11.1008 38.6 10.9008 38.1C10.4008 37.1 10.2008 35.8 10.4008 34.7C10.6008 33.5 11.5008 32.6 12.2008 31.6C13.1008 30.5 14.0008 29.1 14.2008 27.6C14.2008 27.3 14.3008 26.8 14.4008 26.4C14.5008 25.9 14.6008 25.5 14.8008 25C14.9008 24.7 15.1008 24.5 15.4008 24.2C15.5008 24.1 15.6008 23.9 15.6008 23.8C15.6008 23.6 15.6008 23.5 15.5008 23.3L10.8008 14.8L17.6008 23.2C17.7008 23.3 17.8008 23.4 17.9008 23.4C18.0008 23.5 18.1008 23.5 18.3008 23.5C18.4008 23.5 18.5008 23.5 18.7008 23.4C18.8008 23.3 18.9008 23.3 19.0008 23.2C19.1008 23.1 19.1008 23 19.1008 22.8C19.1008 22.7 19.1008 22.5 19.0008 22.4C18.6008 21.8 18.1008 21.3 17.6008 20.7L15.9008 18.6L12.5008 14.4L7.80078 8.5L12.9008 14L16.5008 18L18.3008 20C18.9008 20.7 19.5008 21.3 20.1008 22.1L20.2008 22.2V22.4C20.2008 22.8 20.2008 23.1 20.1008 23.4Z" fill="#EB1A6B"/>
<path d="M21.7008 43.1002C21.4008 42.8002 21.1008 42.5002 20.8008 42.2002C21.1008 42.6002 21.3008 42.9002 21.7008 43.1002Z" fill="#EB1A6B"/>
<path fill-rule="evenodd" clip-rule="evenodd" d="M109.801 20.5005C106.501 21.3005 105.001 23.9005 105.901 27.0005C106.301 28.3005 107.501 29.7005 109.301 30.7005C112.401 32.5005 113.401 33.2005 113.901 34.3005C114.301 35.2005 114.401 35.5005 114.201 36.4005C113.701 38.4005 112.301 39.4005 110.301 39.4005C108.301 39.4005 106.901 38.3005 106.501 36.4005C106.401 35.6005 106.201 35.4005 105.901 35.4005C105.501 35.4005 105.401 35.6005 105.401 37.5005V39.6005L106.701 40.0005C108.801 40.7005 111.701 40.6005 113.401 39.8005C116.801 38.2005 118.101 35.1005 116.601 32.2005C116.001 31.1005 114.601 29.9005 112.201 28.4005C109.601 26.8005 108.501 25.7005 108.301 24.6005C108.001 22.8005 109.601 21.4005 111.801 21.4005C113.501 21.4005 114.201 21.8005 114.801 23.1005C115.201 23.9005 115.401 24.2005 115.901 24.2005C116.401 24.2005 116.501 24.1005 116.301 23.6005C116.201 23.3005 116.101 22.5005 116.101 21.9005C116.101 21.1005 116.001 20.7005 115.701 20.6005C115.001 20.3005 110.701 20.2005 109.801 20.5005ZM43.8008 21.2005C43.8008 21.6005 44.0008 21.7005 44.4008 21.7005C45.6008 21.7005 45.7008 22.0005 45.8008 29.3005C45.9008 35.6005 46.0008 36.1005 46.5008 37.1005C47.2008 38.4005 48.2008 39.3005 49.7008 40.0005C50.7008 40.5005 51.4008 40.6005 53.5008 40.6005C55.7008 40.6005 56.2008 40.5005 57.4008 39.9005C58.2008 39.5005 59.2008 38.8005 59.6008 38.3005C61.0008 36.6005 61.2008 35.7005 61.3008 28.7005C61.5008 21.9005 61.5008 21.8005 62.6008 21.8005C62.9008 21.8005 63.0008 21.6005 63.0008 21.3005C63.0008 20.8005 62.8008 20.8005 60.0008 20.8005C57.2008 20.8005 57.0008 20.8005 57.0008 21.3005C57.0008 21.7005 57.2008 21.8005 57.8008 21.9005C59.1008 22.0005 59.2008 22.5005 59.2008 28.7005C59.2008 35.0005 59.0008 36.2005 57.6008 37.5005C56.4008 38.7005 55.4008 39.1005 53.7008 39.1005C51.3008 39.1005 49.5008 38.0005 49.0008 36.0005C48.8008 35.3005 48.7008 32.9005 48.8008 28.6005L48.9008 22.2005L49.8008 21.9005C50.3008 21.7005 50.7008 21.4005 50.8008 21.2005C50.9008 20.8005 50.5008 20.8005 47.4008 20.8005C44.0008 20.7005 43.8008 20.7005 43.8008 21.2005ZM67.1008 21.2005C67.1008 21.6005 67.3008 21.7005 67.8008 21.7005C69.1008 21.7005 69.8008 22.2005 70.1008 23.3005C70.3008 23.9005 70.3008 26.8005 70.3008 30.9005C70.2008 38.3005 70.1008 38.8005 68.6008 39.1005C68.1008 39.2005 67.9008 39.4005 67.9008 39.7005C67.9008 40.1005 68.1008 40.2005 71.4008 40.2005C74.6008 40.2005 74.9008 40.2005 74.9008 39.8005C74.9008 39.5005 74.6008 39.3005 73.8008 39.1005C72.8008 38.8005 72.7008 38.7005 72.4008 37.9005C72.0008 36.7005 72.0008 25.4005 72.3008 25.5005C72.4008 25.5005 73.4008 26.5005 74.5008 27.8005C75.6008 29.1005 78.5008 32.4005 81.1008 35.1005C85.1008 39.4005 85.8008 40.2005 86.4008 40.2005H87.1008L87.2008 31.4005C87.3008 25.1005 87.4008 22.5005 87.6008 22.3005C87.8008 22.1005 88.3008 21.9005 88.7008 21.8005C89.2008 21.7005 89.5008 21.5005 89.5008 21.3005C89.5008 21.0005 88.9008 20.9005 86.1008 20.9005C82.8008 20.8005 82.7008 20.8005 82.7008 21.3005C82.7008 21.7005 82.9008 21.8005 83.3008 21.8005C83.6008 21.8005 84.2008 22.1005 84.6008 22.4005L85.3008 23.0005L85.4008 29.0005C85.4008 32.4005 85.4008 35.0005 85.3008 35.0005C85.2008 35.0005 84.4008 34.2005 83.6008 33.3005C82.8008 32.4005 80.5008 29.8005 78.5008 27.6005C76.5008 25.4005 74.3008 23.0005 73.6008 22.2005L72.4008 20.8005H69.8008C67.2008 20.7005 67.1008 20.7005 67.1008 21.2005ZM93.3008 21.2005C93.3008 21.6005 93.5008 21.7005 94.0008 21.7005C94.4008 21.7005 94.9008 21.9005 95.2008 22.1005C95.7008 22.4005 95.7008 22.9005 95.8008 29.8005C95.9008 38.4005 95.8008 38.9005 94.3008 39.1005C93.6008 39.2005 93.3008 39.4005 93.3008 39.7005C93.3008 40.1005 93.6008 40.2005 97.1008 40.2005C100.701 40.2005 100.901 40.2005 100.901 39.7005C100.901 39.3005 100.701 39.2005 100.301 39.2005C100.001 39.2005 99.5008 39.0005 99.2008 38.8005C98.7008 38.5005 98.7008 38.0005 98.6008 30.6005C98.5008 23.0005 98.5008 22.7005 99.0008 22.2005C99.3008 21.9005 99.8008 21.7005 100.101 21.7005C100.601 21.7005 100.701 21.6005 100.701 21.2005C100.701 20.7005 100.501 20.7005 96.9008 20.7005C93.5008 20.7005 93.3008 20.7005 93.3008 21.2005ZM119.601 21.2005C119.701 21.5005 119.901 21.7005 120.301 21.7005C120.601 21.7005 121.101 22.0005 121.401 22.3005C121.701 22.6005 123.401 26.7005 125.301 31.6005L128.601 40.3005L129.501 40.4005L130.401 40.5005L132.701 34.3005C134.001 30.9005 135.201 27.8005 135.301 27.5005C135.601 26.9005 135.601 27.0005 136.401 29.0005C136.801 30.2005 138.001 33.2005 139.001 35.8005L140.801 40.5005H141.601C142.001 40.5005 142.401 40.4005 142.501 40.2005C142.601 40.0005 143.701 37.1005 145.101 33.7005C146.401 30.3005 147.901 26.5005 148.401 25.3005C149.501 22.5005 149.701 22.2005 150.501 21.9005C150.901 21.8005 151.201 21.5005 151.201 21.3005C151.201 21.0005 150.701 20.9005 148.201 20.9005C145.401 20.9005 145.201 20.9005 145.201 21.4005C145.201 21.8005 145.401 21.9005 145.801 21.9005C146.801 21.9005 147.201 22.2005 147.201 22.8005C147.201 23.3005 142.401 36.2005 142.101 36.5005C141.901 36.7005 137.601 24.7005 137.501 23.5005C137.301 22.4005 137.801 21.9005 138.901 21.9005C139.301 21.9005 139.501 21.8005 139.501 21.4005C139.501 20.9005 139.301 20.9005 135.601 20.9005C131.901 20.9005 131.701 20.9005 131.701 21.4005C131.701 21.7005 131.901 21.9005 132.101 21.9005C132.901 21.9005 133.901 22.7005 134.201 23.4005C134.601 24.5005 134.301 25.6005 132.001 31.6005L130.101 36.7005L129.701 35.7005C129.501 35.2005 128.301 32.0005 127.101 28.7005C124.701 22.2005 124.701 21.9005 126.301 21.9005C126.901 21.9005 127.001 21.8005 127.001 21.4005C127.001 20.9005 126.801 20.9005 123.301 20.9005C119.501 20.7005 119.401 20.7005 119.601 21.2005ZM170.201 21.4005C170.201 21.4005 170.201 21.7005 170.201 21.8005C170.201 21.9005 170.501 21.9005 170.501 21.9005C170.701 21.9005 170.801 22.0005 171.001 22.0005C171.801 22.2005 172.301 22.3005 172.501 22.8005C172.601 23.1005 172.701 24.3005 172.701 30.6005C172.701 37.2005 172.701 38.0005 172.501 38.4005C172.301 38.9005 171.901 39.2005 170.901 39.5005C170.901 39.5005 170.501 39.6005 170.401 39.7005C170.301 39.8005 170.301 40.0005 170.301 40.0005C170.301 40.0005 170.301 40.2005 170.401 40.3005C170.501 40.4005 170.801 40.4005 170.801 40.4005H173.301H177.501C177.501 40.4005 177.701 40.4005 177.801 40.3005C177.901 40.2005 177.901 40.0005 177.901 40.0005C177.901 40.0005 177.901 39.8005 177.801 39.7005C177.701 39.6005 177.301 39.5005 177.301 39.5005C176.401 39.3005 175.901 39.0005 175.701 38.5005C175.501 38.1005 175.501 37.2005 175.501 35.1005V32.1005C175.601 32.2005 175.701 32.2005 175.801 32.3005C176.301 32.6005 176.901 33.1005 179.101 33.1005C181.801 33.2005 183.401 32.0005 184.401 30.6005C185.401 29.2005 185.701 27.0005 185.001 24.6005C184.301 22.3005 182.201 20.8005 179.301 20.7005C177.801 20.6005 175.501 20.7005 174.301 20.8005H174.001C172.901 20.8005 171.501 21.0005 170.801 21.0005C170.601 21.0005 170.601 21.0005 170.501 21.1005C170.201 21.3005 170.201 21.4005 170.201 21.4005ZM181.301 30.6005C182.401 29.6005 182.401 28.0005 182.401 26.9005C182.301 25.3005 181.601 22.2005 178.001 22.2005C177.101 22.2005 175.401 22.3005 175.301 23.5005C175.201 23.7005 175.201 25.2005 175.201 27.4005V31.0005L175.601 31.2005C175.801 31.3005 176.101 31.4005 176.501 31.5005C178.001 31.9005 180.201 31.6005 181.301 30.6005ZM158.301 21.0005C158.601 20.9005 158.801 20.8005 158.801 20.8005C158.801 20.8005 159.201 20.6005 159.301 20.8005C159.301 20.9005 159.501 21.2005 159.901 22.2005C160.001 22.4005 160.101 22.6005 160.101 22.8005C160.601 24.2005 161.401 26.2005 161.801 27.3005C162.201 28.4005 163.001 30.4005 163.601 32.0005C164.201 33.5005 164.901 35.4005 165.301 36.3005C165.601 37.2005 166.101 38.0005 166.201 38.2005C166.301 38.3005 166.301 38.4005 166.401 38.5005C166.701 38.9005 167.001 39.5005 167.701 39.6005C167.701 39.6005 168.201 39.7005 168.301 39.8005C168.401 39.9005 168.401 40.0005 168.401 40.0005V40.3005C168.401 40.3005 168.401 40.4005 168.301 40.4005C168.301 40.5005 168.101 40.4005 168.101 40.4005H163.901H160.901C160.901 40.4005 160.801 40.4005 160.701 40.4005C160.601 40.4005 160.601 40.2005 160.601 40.2005V40.0005C160.601 40.0005 160.601 39.8005 160.701 39.7005C160.801 39.6005 161.301 39.5005 161.301 39.5005C162.201 39.4005 162.601 38.7005 162.701 38.3005V38.2005C162.901 37.8005 162.801 37.5005 161.901 35.4005C161.301 34.0005 161.101 33.6005 161.001 33.5005C160.901 33.5005 159.301 33.5005 157.601 33.5005H154.301L154.101 34.0005C153.501 35.6005 153.001 37.1005 153.001 37.5005C152.801 38.3005 153.101 39.3005 154.301 39.5005C154.301 39.5005 154.801 39.6005 154.901 39.7005C155.001 39.8005 155.101 40.0005 155.101 40.0005V40.2005C155.101 40.2005 155.101 40.3005 155.001 40.4005C154.901 40.5005 154.701 40.4005 154.701 40.4005H151.601H148.601C148.601 40.4005 148.501 40.4005 148.401 40.3005C148.301 40.2005 148.301 40.1005 148.301 40.1005V39.9005C148.301 39.9005 148.301 39.8005 148.501 39.6005C148.701 39.4005 149.101 39.4005 149.101 39.4005C149.901 39.3005 150.401 38.4005 150.701 37.9005C150.701 37.9005 150.701 37.8005 150.801 37.8005C150.901 37.6005 151.401 36.5005 151.901 35.3005C152.401 34.1005 152.901 32.7005 153.101 32.3005C153.701 30.8005 154.301 29.4005 155.201 27.2005C155.701 26.0005 156.401 24.2005 156.801 23.2005L157.501 21.4005L158.301 21.0005ZM158.101 25.3005C158.301 25.7005 158.501 26.3005 158.601 26.6005C158.701 26.9005 159.101 27.8005 159.401 28.6005C159.701 29.4005 160.101 30.3005 160.301 30.7005C160.501 31.1005 160.601 31.4005 160.601 31.4005C160.601 31.4005 159.401 31.4005 157.901 31.4005C156.201 31.4005 155.201 31.4005 155.201 31.3005C155.201 31.3005 155.301 31.1005 155.301 30.9005C155.401 30.6005 156.001 29.0005 157.201 25.6005C157.401 25.1005 157.601 24.6005 157.601 24.5005C157.701 24.5005 157.801 24.6005 158.101 25.3005Z" fill="white"/>
</svg>
