<svg width="194" height="58" viewBox="0 0 194 58" fill="none" xmlns="http://www.w3.org/2000/svg">
<path d="M22.7997 26.3C23.5997 27.7 21.7997 28.1 20.9997 28.2C19.7997 28.3 19.4997 27.6 19.6997 26.7C19.7997 26.4 19.9997 26.1 20.1997 25.9C20.3997 25.7 20.7997 25.5 21.0997 25.5C21.3997 25.5 21.7997 25.5 21.9997 25.7C22.3997 25.8 22.5997 26 22.7997 26.3Z" fill="#EB1A6B"/>
<path d="M27.6002 23.7998C26.7002 30.7998 38.9002 29.2998 38.7002 34.7998C39.9002 33.1998 40.4002 28.9998 36.9002 26.7998C33.7002 24.7998 29.6002 25.8998 27.6002 23.7998Z" fill="#EB1A6B"/>
<path d="M34.7 21.0999C34.6 20.9999 34.5 20.9999 34.5 20.8999C34.5 20.9999 34.6 21.0999 34.7 21.0999Z" fill="#EB1A6B"/>
<path d="M37.5004 26.1999C37.4004 25.9999 37.3004 25.7999 37.1004 25.5999C36.7004 24.9999 36.1004 24.5999 35.4004 24.4999C35.0004 24.3999 34.5004 24.2999 34.0004 24.2999C33.5004 24.2999 33.1004 24.1999 32.6004 24.1999C31.6004 24.0999 30.7004 23.9999 29.7004 23.7999C29.5004 23.6999 29.2004 23.6999 29.0004 23.5999C28.9004 23.5999 28.8004 23.4999 28.6004 23.4999C28.5004 23.3999 28.4004 23.3999 28.2004 23.2999C27.7004 23.0999 27.3004 22.6999 27.0004 22.3999C26.3004 21.6999 25.7004 20.8999 25.1004 20.1999C24.5004 19.3999 24.0004 18.6999 23.3004 17.9999C22.7004 17.2999 21.9004 16.6999 21.1004 16.2999C20.3004 15.8999 19.3004 15.5999 18.4004 15.4999C19.4004 15.3999 20.4004 15.4999 21.3004 15.8999C22.2004 16.2999 23.1004 16.7999 23.8004 17.4999C24.3004 17.8999 24.7004 18.3999 25.1004 18.8999C28.2004 18.2999 30.6004 18.7999 32.5004 19.8999C33.1004 20.1999 33.7004 20.5999 34.2004 21.0999C34.3004 21.1999 34.4004 21.1999 34.4004 21.2999C34.8004 21.6999 35.2004 22.0999 35.5004 22.4999C36.9004 23.7999 37.5004 25.2999 37.5004 26.1999Z" fill="#EB1A6B"/>
<path d="M18.6996 16.2998C19.4996 16.3998 20.2996 16.6998 20.7996 17.2998C21.2996 17.8998 21.4996 18.6998 21.6996 19.3998C21.7996 19.9998 21.8996 20.5998 22.0996 21.0998C22.1996 21.3998 22.3996 21.5998 22.4996 21.7998C22.5996 21.9998 22.7996 22.1998 22.8996 22.3998V22.4998V22.5998C22.5996 22.8998 21.8996 22.5998 21.5996 22.3998C21.0996 22.1998 20.6996 21.7998 20.2996 21.3998C19.1996 20.1998 18.5996 18.3998 18.5996 16.7998C18.5996 16.6998 18.6996 16.4998 18.6996 16.2998Z" fill="#EB1A6B"/>
<path d="M31.7002 30.2998C30.0002 34.9998 37.7002 38.1998 34.8002 42.9998C37.7002 41.7998 39.1002 38.0998 37.9002 35.1998C36.9002 32.5998 33.7002 31.5998 31.7002 30.2998Z" fill="#EB1A6B"/>
<path d="M21.5996 36.4002C22.0996 36.1002 22.5996 35.8002 23.0996 35.5002C23.5996 35.3002 24.1996 35.1002 24.7996 35.0002C25.8996 34.8002 27.0996 34.7002 27.9996 34.3002C28.4996 34.1002 28.8996 33.9002 29.2996 33.5002C29.6996 33.2002 29.8996 32.8002 30.0996 32.3002C30.2996 31.8002 30.2996 31.3002 30.2996 30.8002C30.2996 30.2002 30.0996 29.7002 29.8996 29.2002C30.2996 29.6002 30.5996 30.2002 30.7996 30.8002C30.9996 31.4002 30.9996 32.0002 30.8996 32.6002C30.7996 33.2002 30.3996 33.8002 29.9996 34.3002C29.5996 34.7002 28.9996 35.1002 28.3996 35.3002C27.7996 35.5002 27.1996 35.6002 26.5996 35.7002C25.9996 35.7002 25.4996 35.8002 24.8996 35.8002C23.7996 35.8002 22.6996 36.0002 21.5996 36.4002Z" fill="#EB1A6B"/>
<path d="M32.4002 44.7002C32.2002 44.8002 32.1002 45.0002 31.9002 45.1002C31.7002 45.2002 31.5002 45.3002 31.3002 45.4002C30.9002 45.6002 30.4002 45.7002 29.9002 45.7002C28.6002 45.7002 27.7002 44.7002 27.2002 43.6002C26.8002 42.9002 26.6002 42.1002 26.2002 41.4002C25.6002 40.4002 24.5002 39.6002 23.3002 39.7002C22.8002 39.8002 22.3002 40.0002 22.1002 40.4002C21.4002 41.5002 22.4002 43.1002 23.8002 42.9002C23.9002 42.9002 24.0002 42.9002 24.1002 42.8002C24.2002 42.8002 24.3002 42.7002 24.4002 42.6002C24.6002 42.4002 24.7002 42.2002 24.8002 42.0002C24.9002 41.8002 24.9002 41.5002 24.9002 41.2002C24.8002 40.9002 24.7002 40.7002 24.5002 40.6002C24.8002 40.7002 25.0002 40.9002 25.1002 41.2002C25.0002 41.7002 25.0002 42.0002 25.0002 42.3002C24.9002 42.6002 24.8002 42.9002 24.6002 43.1002C24.5002 43.2002 24.4002 43.3002 24.2002 43.4002C24.1002 43.5002 23.9002 43.6002 23.8002 43.6002C23.5002 43.7002 23.2002 43.7002 22.9002 43.7002C22.5002 43.6002 22.0002 43.5002 21.7002 43.2002C21.3002 42.9002 21.0002 42.4002 20.6002 42.1002C20.2002 41.6002 19.7002 41.3002 19.1002 41.0002C18.7002 40.8002 18.3002 40.7002 17.9002 40.6002C17.7002 40.6002 17.5002 40.5002 17.3002 40.5002C17.2002 40.5002 16.7002 40.4002 16.7002 40.4002C17.4002 39.8002 18.1002 39.3002 18.8002 38.8002C19.6002 38.3002 20.4002 38.0002 21.3002 37.7002C22.2002 37.4002 23.1002 37.4002 24.1002 37.5002C24.6002 37.6002 25.0002 37.7002 25.5002 37.9002C26.0002 38.1002 26.4002 38.4002 26.8002 38.7002C27.2002 39.1002 27.5002 39.5002 27.7002 39.9002C27.9002 40.3002 28.0002 40.8002 28.1002 41.3002C28.4002 42.7002 28.3002 44.9002 30.1002 45.2002C30.2002 45.2002 30.3002 45.2002 30.4002 45.2002H30.7002C30.9002 45.2002 31.1002 45.2002 31.3002 45.1002C31.6002 45.1002 32.0002 44.9002 32.4002 44.7002Z" fill="#EB1A6B"/>
<path d="M20.0998 23.4C19.9998 23.7 19.8998 23.9 19.7998 24.1C19.4998 24.5 19.0998 24.8 18.6998 25C18.2998 25.2 17.8998 25.3 17.3998 25.3C17.2998 25.3 17.1998 25.3 17.0998 25.3C16.7998 25.3 16.5998 25.4 16.2998 25.6C16.0998 25.8 15.8998 26 15.8998 26.3C15.8998 26.4 15.7998 26.6 15.7998 26.7C15.7998 27.1 15.6998 27.4 15.6998 27.9C15.5998 28.7 15.3998 29.4 15.0998 30.1C14.6998 31 14.1998 31.8 14.2998 32.8C14.3998 33.5 14.6998 34 15.1998 34.4C15.9998 35.3 17.8998 35.7 17.4998 37.8C17.1998 39.1 15.0998 40.4 12.1998 40.9C12.4998 40.9 11.7998 39.7 11.7998 39.6C11.4998 39.1 11.0998 38.6 10.8998 38.1C10.3998 37.1 10.1998 35.8 10.3998 34.7C10.5998 33.5 11.4998 32.6 12.1998 31.6C13.0998 30.5 13.9998 29.1 14.1998 27.6C14.1998 27.3 14.2998 26.8 14.3998 26.4C14.4998 25.9 14.5998 25.5 14.7998 25C14.8998 24.7 15.0998 24.5 15.3998 24.2C15.4998 24.1 15.5998 23.9 15.5998 23.8C15.5998 23.6 15.5998 23.5 15.4998 23.3L10.7998 14.8L17.5998 23.2C17.6998 23.3 17.7998 23.4 17.8998 23.4C17.9998 23.5 18.0998 23.5 18.2998 23.5C18.3998 23.5 18.4998 23.5 18.6998 23.4C18.7998 23.3 18.8998 23.3 18.9998 23.2C19.0998 23.1 19.0998 23 19.0998 22.8C19.0998 22.7 19.0998 22.5 18.9998 22.4C18.5998 21.8 18.0998 21.3 17.5998 20.7L15.8998 18.6L12.4998 14.4L7.7998 8.5L12.8998 14L16.4998 18L18.2998 20C18.8998 20.7 19.4998 21.3 20.0998 22.1L20.1998 22.2V22.4C20.1998 22.8 20.1998 23.1 20.0998 23.4Z" fill="#EB1A6B"/>
<path d="M21.6998 43.1002C21.3998 42.8002 21.0998 42.5002 20.7998 42.2002C21.0998 42.6002 21.2998 42.9002 21.6998 43.1002Z" fill="#EB1A6B"/>
<path fill-rule="evenodd" clip-rule="evenodd" d="M109.8 20.5C106.5 21.3 105 23.9 105.9 27C106.3 28.3 107.5 29.7 109.3 30.7C112.4 32.5 113.4 33.2 113.9 34.3C114.3 35.2 114.4 35.5 114.2 36.4C113.7 38.4 112.3 39.4 110.3 39.4C108.3 39.4 106.9 38.3 106.5 36.4C106.4 35.6 106.2 35.4 105.9 35.4C105.5 35.4 105.4 35.6 105.4 37.5V39.6L106.7 40C108.8 40.7 111.7 40.6 113.4 39.8C116.8 38.2 118.1 35.1 116.6 32.2C116 31.1 114.6 29.9 112.2 28.4C109.6 26.8 108.5 25.7 108.3 24.6C108 22.8 109.6 21.4 111.8 21.4C113.5 21.4 114.2 21.8 114.8 23.1C115.2 23.9 115.4 24.2 115.9 24.2C116.4 24.2 116.5 24.1 116.3 23.6C116.2 23.3 116.1 22.5 116.1 21.9C116.1 21.1 116 20.7 115.7 20.6C115 20.3 110.7 20.2 109.8 20.5ZM43.7998 21.2C43.7998 21.6 43.9998 21.7 44.3998 21.7C45.5998 21.7 45.6998 22 45.7998 29.3C45.8998 35.6 45.9998 36.1 46.4998 37.1C47.1998 38.4 48.1998 39.3 49.6998 40C50.6998 40.5 51.3998 40.6 53.4998 40.6C55.6998 40.6 56.1998 40.5 57.3998 39.9C58.1998 39.5 59.1998 38.8 59.5998 38.3C60.9998 36.6 61.1998 35.7 61.2998 28.7C61.4998 21.9 61.4998 21.8 62.5998 21.8C62.8998 21.8 62.9998 21.6 62.9998 21.3C62.9998 20.8 62.7998 20.8 59.9998 20.8C57.1998 20.8 56.9998 20.8 56.9998 21.3C56.9998 21.7 57.1998 21.8 57.7998 21.9C59.0998 22 59.1998 22.5 59.1998 28.7C59.1998 35 58.9998 36.2 57.5998 37.5C56.3998 38.7 55.3998 39.1 53.6998 39.1C51.2998 39.1 49.4998 38 48.9998 36C48.7998 35.3 48.6998 32.9 48.7998 28.6L48.8998 22.2L49.7998 21.9C50.2998 21.7 50.6998 21.4 50.7998 21.2C50.8998 20.8 50.4998 20.8 47.3998 20.8C43.9998 20.7 43.7998 20.7 43.7998 21.2ZM67.0998 21.2C67.0998 21.6 67.2998 21.7 67.7998 21.7C69.0998 21.7 69.7998 22.2 70.0998 23.3C70.2998 23.9 70.2998 26.8 70.2998 30.9C70.1998 38.3 70.0998 38.8 68.5998 39.1C68.0998 39.2 67.8998 39.4 67.8998 39.7C67.8998 40.1 68.0998 40.2 71.3998 40.2C74.5998 40.2 74.8998 40.2 74.8998 39.8C74.8998 39.5 74.5998 39.3 73.7998 39.1C72.7998 38.8 72.6998 38.7 72.3998 37.9C71.9998 36.7 71.9998 25.4 72.2998 25.5C72.3998 25.5 73.3998 26.5 74.4998 27.8C75.5998 29.1 78.4998 32.4 81.0998 35.1C85.0998 39.4 85.7998 40.2 86.3998 40.2H87.0998L87.1998 31.4C87.2998 25.1 87.3998 22.5 87.5998 22.3C87.7998 22.1 88.2998 21.9 88.6998 21.8C89.1998 21.7 89.4998 21.5 89.4998 21.3C89.4998 21 88.8998 20.9 86.0998 20.9C82.7998 20.8 82.6998 20.8 82.6998 21.3C82.6998 21.7 82.8998 21.8 83.2998 21.8C83.5998 21.8 84.1998 22.1 84.5998 22.4L85.2998 23L85.3998 29C85.3998 32.4 85.3998 35 85.2998 35C85.1998 35 84.3998 34.2 83.5998 33.3C82.7998 32.4 80.4998 29.8 78.4998 27.6C76.4998 25.4 74.2998 23 73.5998 22.2L72.3998 20.8H69.7998C67.1998 20.7 67.0998 20.7 67.0998 21.2ZM93.2998 21.2C93.2998 21.6 93.4998 21.7 93.9998 21.7C94.3998 21.7 94.8998 21.9 95.1998 22.1C95.6998 22.4 95.6998 22.9 95.7998 29.8C95.8998 38.4 95.7998 38.9 94.2998 39.1C93.5998 39.2 93.2998 39.4 93.2998 39.7C93.2998 40.1 93.5998 40.2 97.0998 40.2C100.7 40.2 100.9 40.2 100.9 39.7C100.9 39.3 100.7 39.2 100.3 39.2C99.9998 39.2 99.4998 39 99.1998 38.8C98.6998 38.5 98.6998 38 98.5998 30.6C98.4998 23 98.4998 22.7 98.9998 22.2C99.2998 21.9 99.7998 21.7 100.1 21.7C100.6 21.7 100.7 21.6 100.7 21.2C100.7 20.7 100.5 20.7 96.8998 20.7C93.4998 20.7 93.2998 20.7 93.2998 21.2ZM119.6 21.2C119.7 21.5 119.9 21.7 120.3 21.7C120.6 21.7 121.1 22 121.4 22.3C121.7 22.6 123.4 26.7 125.3 31.6L128.6 40.3L129.5 40.4L130.4 40.5L132.7 34.3C134 30.9 135.2 27.8 135.3 27.5C135.6 26.9 135.6 27 136.4 29C136.8 30.2 138 33.2 139 35.8L140.8 40.5H141.6C142 40.5 142.4 40.4 142.5 40.2C142.6 40 143.7 37.1 145.1 33.7C146.4 30.3 147.9 26.5 148.4 25.3C149.5 22.5 149.7 22.2 150.5 21.9C150.9 21.8 151.2 21.5 151.2 21.3C151.2 21 150.7 20.9 148.2 20.9C145.4 20.9 145.2 20.9 145.2 21.4C145.2 21.8 145.4 21.9 145.8 21.9C146.8 21.9 147.2 22.2 147.2 22.8C147.2 23.3 142.4 36.2 142.1 36.5C141.9 36.7 137.6 24.7 137.5 23.5C137.3 22.4 137.8 21.9 138.9 21.9C139.3 21.9 139.5 21.8 139.5 21.4C139.5 20.9 139.3 20.9 135.6 20.9C131.9 20.9 131.7 20.9 131.7 21.4C131.7 21.7 131.9 21.9 132.1 21.9C132.9 21.9 133.9 22.7 134.2 23.4C134.6 24.5 134.3 25.6 132 31.6L130.1 36.7L129.7 35.7C129.5 35.2 128.3 32 127.1 28.7C124.7 22.2 124.7 21.9 126.3 21.9C126.9 21.9 127 21.8 127 21.4C127 20.9 126.8 20.9 123.3 20.9C119.5 20.7 119.4 20.7 119.6 21.2ZM170.2 21.4C170.2 21.4 170.2 21.7 170.2 21.8C170.2 21.9 170.5 21.9 170.5 21.9C170.7 21.9 170.8 22 171 22C171.8 22.2 172.3 22.3 172.5 22.8C172.6 23.1 172.7 24.3 172.7 30.6C172.7 37.2 172.7 38 172.5 38.4C172.3 38.9 171.9 39.2 170.9 39.5C170.9 39.5 170.5 39.6 170.4 39.7C170.3 39.8 170.3 40 170.3 40C170.3 40 170.3 40.2 170.4 40.3C170.5 40.4 170.8 40.4 170.8 40.4H173.3H177.5C177.5 40.4 177.7 40.4 177.8 40.3C177.9 40.2 177.9 40 177.9 40C177.9 40 177.9 39.8 177.8 39.7C177.7 39.6 177.3 39.5 177.3 39.5C176.4 39.3 175.9 39 175.7 38.5C175.5 38.1 175.5 37.2 175.5 35.1V32.1C175.6 32.2 175.7 32.2 175.8 32.3C176.3 32.6 176.9 33.1 179.1 33.1C181.8 33.2 183.4 32 184.4 30.6C185.4 29.2 185.7 27 185 24.6C184.3 22.3 182.2 20.8 179.3 20.7C177.8 20.6 175.5 20.7 174.3 20.8H174C172.9 20.8 171.5 21 170.8 21C170.6 21 170.6 21 170.5 21.1C170.2 21.3 170.2 21.4 170.2 21.4ZM181.3 30.6C182.4 29.6 182.4 28 182.4 26.9C182.3 25.3 181.6 22.2 178 22.2C177.1 22.2 175.4 22.3 175.3 23.5C175.2 23.7 175.2 25.2 175.2 27.4V31L175.6 31.2C175.8 31.3 176.1 31.4 176.5 31.5C178 31.9 180.2 31.6 181.3 30.6ZM158.3 21C158.6 20.9 158.8 20.8 158.8 20.8C158.8 20.8 159.2 20.6 159.3 20.8C159.3 20.9 159.5 21.2 159.9 22.2C160 22.4 160.1 22.6 160.1 22.8C160.6 24.2 161.4 26.2 161.8 27.3C162.2 28.4 163 30.4 163.6 32C164.2 33.5 164.9 35.4 165.3 36.3C165.6 37.2 166.1 38 166.2 38.2C166.3 38.3 166.3 38.4 166.4 38.5C166.7 38.9 167 39.5 167.7 39.6C167.7 39.6 168.2 39.7 168.3 39.8C168.4 39.9 168.4 40 168.4 40V40.3C168.4 40.3 168.4 40.4 168.3 40.4C168.3 40.5 168.1 40.4 168.1 40.4H163.9H160.9C160.9 40.4 160.8 40.4 160.7 40.4C160.6 40.4 160.6 40.2 160.6 40.2V40C160.6 40 160.6 39.8 160.7 39.7C160.8 39.6 161.3 39.5 161.3 39.5C162.2 39.4 162.6 38.7 162.7 38.3V38.2C162.9 37.8 162.8 37.5 161.9 35.4C161.3 34 161.1 33.6 161 33.5C160.9 33.5 159.3 33.5 157.6 33.5H154.3L154.1 34C153.5 35.6 153 37.1 153 37.5C152.8 38.3 153.1 39.3 154.3 39.5C154.3 39.5 154.8 39.6 154.9 39.7C155 39.8 155.1 40 155.1 40V40.2C155.1 40.2 155.1 40.3 155 40.4C154.9 40.5 154.7 40.4 154.7 40.4H151.6H148.6C148.6 40.4 148.5 40.4 148.4 40.3C148.3 40.2 148.3 40.1 148.3 40.1V39.9C148.3 39.9 148.3 39.8 148.5 39.6C148.7 39.4 149.1 39.4 149.1 39.4C149.9 39.3 150.4 38.4 150.7 37.9C150.7 37.9 150.7 37.8 150.8 37.8C150.9 37.6 151.4 36.5 151.9 35.3C152.4 34.1 152.9 32.7 153.1 32.3C153.7 30.8 154.3 29.4 155.2 27.2C155.7 26 156.4 24.2 156.8 23.2L157.5 21.4L158.3 21ZM158.1 25.3C158.3 25.7 158.5 26.3 158.6 26.6C158.7 26.9 159.1 27.8 159.4 28.6C159.7 29.4 160.1 30.3 160.3 30.7C160.5 31.1 160.6 31.4 160.6 31.4C160.6 31.4 159.4 31.4 157.9 31.4C156.2 31.4 155.2 31.4 155.2 31.3C155.2 31.3 155.3 31.1 155.3 30.9C155.4 30.6 156 29 157.2 25.6C157.4 25.1 157.6 24.6 157.6 24.5C157.7 24.5 157.8 24.6 158.1 25.3Z" fill="white"/>
</svg>
