<svg width="1500" height="1000" viewBox="0 0 1500 1000" fill="none" xmlns="http://www.w3.org/2000/svg">
<g clip-path="url(#clip0_613_15)">
<g filter="url(#filter0_f_613_15)">
<ellipse cx="740.08" cy="452.982" rx="502.905" ry="88.9783" transform="rotate(15 740.08 452.982)" fill="url(#paint0_linear_613_15)"/>
</g>
<path d="M1431.46 584.791C1385.57 756.06 1209.53 857.698 1038.26 811.807C866.99 765.916 765.351 589.873 811.243 418.605C857.134 247.336 1033.18 145.698 1204.44 191.589C1375.71 237.48 1477.35 413.523 1431.46 584.791Z" fill="#12171C" fill-opacity="0.52" stroke="#30363D" stroke-width="2"/>
<path fill-rule="evenodd" clip-rule="evenodd" d="M1151.52 538.599L1151.53 538.56C1149.35 538.142 1138.15 535.85 1113.55 529.26C1093.91 523.998 1080.25 519.711 1075.45 518.175L1075.43 518.233C1000.73 494.654 947.839 466.374 952.059 450.626C956.273 434.897 1016.22 436.853 1092.72 453.724L1078.94 505.129C1083.79 506.803 1097.72 511.431 1117.28 516.672C1140.74 522.96 1152.77 525.139 1155.02 525.534L1168.79 474.148C1243.32 497.724 1296.08 525.968 1291.87 541.678C1287.65 557.426 1227.85 555.468 1151.52 538.599ZM1170.22 468.801L1182.54 422.801L1287.8 451.006L1306.6 380.858L1020 304.065L1001.21 374.212L1106.47 402.416L1094.15 448.397C1007.55 429.403 938.671 429.118 933.233 449.416C927.794 469.713 987.591 503.886 1072.08 530.754L1032.58 678.165L1108.66 698.55L1148.17 551.1C1234.63 570.058 1303.34 570.321 1308.78 550.043C1314.21 529.764 1254.57 495.634 1170.22 468.801Z" fill="white"/>
<path d="M774.447 405.699C826.775 600.988 710.881 801.722 515.592 854.049C320.303 906.377 119.569 790.483 67.2418 595.194C14.9142 399.905 130.808 199.171 326.097 146.844C521.386 94.5162 722.12 210.41 774.447 405.699Z" fill="#12171C" fill-opacity="0.52" stroke="#30363D" stroke-width="2"/>
<path d="M273.216 602.422L262.493 608.366L270.015 618.048C326.85 691.2 430.154 714.398 513.664 668.108C577.165 632.909 612.738 566.76 612.177 498.853L645.927 517.587C640.376 590.932 599.454 660.192 530.475 698.428C429.425 754.441 303.623 724.401 237.644 632.758L232.193 625.187L224.032 629.71L202.579 641.602L207.579 546.261L291.081 592.52L273.216 602.422Z" fill="white" stroke="white" stroke-width="21"/>
<path d="M634.284 455.266L550.752 409.002L568.631 399.091L579.356 393.146L571.83 383.464C514.979 310.32 411.724 287.109 328.149 333.435C264.651 368.633 229.062 434.784 229.697 502.675L195.933 483.963C201.485 410.602 242.402 341.348 311.352 303.132C412.433 247.102 538.22 277.147 604.154 368.802L609.605 376.379L617.769 371.854L639.281 359.929L634.284 455.266Z" fill="white" stroke="white" stroke-width="21"/>
<path d="M465.367 614.779L457.502 585.425C489.037 570.794 501.357 544.047 494.491 518.422C487.547 492.508 469.494 480.393 432.008 477.441C405.038 474.791 393.329 471.457 390.784 461.958C388.621 453.889 392.499 444.208 411.247 439.184C431.96 433.634 446.958 436.688 455.33 437.875L454.932 403.099C444.244 401.036 430.178 400.495 410.672 404.807L403.879 379.457L375.647 387.021L382.974 414.365C353.823 428.635 341.281 453.312 348.067 478.638C355.549 506.564 380.446 515.354 414.056 517.431C437.257 518.939 448.318 523.383 451.254 534.34C454.336 545.843 444.825 555.179 428.415 559.576C409.708 564.589 391.09 563.097 377.24 559.713L377.631 595.718C390.234 599.139 410.362 599.287 429.866 594.978L437.195 622.331L465.367 614.779Z" fill="white"/>
</g>
<defs>
<filter id="filter0_f_613_15" x="53.7539" y="96.9878" width="1372.65" height="711.988" filterUnits="userSpaceOnUse" color-interpolation-filters="sRGB">
<feFlood flood-opacity="0" result="BackgroundImageFix"/>
<feBlend mode="normal" in="SourceGraphic" in2="BackgroundImageFix" result="shape"/>
<feGaussianBlur stdDeviation="100" result="effect1_foregroundBlur_613_15"/>
</filter>
<linearGradient id="paint0_linear_613_15" x1="170.876" y1="393.68" x2="856.242" y2="1053.06" gradientUnits="userSpaceOnUse">
<stop stop-color="#00A3FF"/>
<stop offset="1" stop-color="#E3BF52"/>
</linearGradient>
<clipPath id="clip0_613_15">
<rect width="1500" height="1000" fill="white"/>
</clipPath>
</defs>
</svg>
