<svg width="194" height="58" viewBox="0 0 194 58" fill="none" xmlns="http://www.w3.org/2000/svg">
<path d="M22.001 36.7616V41.9191L37.9456 32.5359L53.8914 41.9191V36.7616L37.9456 27.3784L22.001 36.7616Z" fill="#0F68AA"/>
<path d="M37.9455 11.0005L22.4453 19.9693L26.6591 21.686L37.9455 15.1555L49.2332 21.686L53.4464 19.9693L37.9455 11.0005Z" fill="#2FBDF4"/>
<path d="M49.2325 22.7781V37.2195L47.5559 38.1896L51.1163 40.2848L53.8907 38.6793V20.8796L49.2325 22.7781Z" fill="#0F68AA"/>
<path d="M22 38.6798L24.7745 40.2849L28.3355 38.1895L26.645 37.2123V22.7728L22 20.8796V38.6798Z" fill="#0F68AA"/>
<path d="M37.9448 43.7509L29.3286 38.7646L25.7676 40.86L37.9448 47.9059L50.1219 40.86L46.5621 38.7646L37.9448 43.7509Z" fill="#2FBDF4"/>
<path d="M70.8482 35.0692V25.6973H74.1198V35.0692H77.6359V25.6973H80.9075V37.6139H68.8951C66.9416 37.6139 65.6316 37.2471 64.9643 36.5129C64.2475 35.7301 63.8896 34.6529 63.8896 33.2831V25.6973H67.1612V32.769C67.1612 33.6822 67.3082 34.2942 67.6009 34.6041C67.8943 34.9145 68.3979 35.0692 69.1147 35.0692H70.8482Z" fill="white" fill-opacity="1"/>
<path fill-rule="evenodd" clip-rule="evenodd" d="M92.1379 30.3703H88.1339C86.8482 30.3703 85.9278 30.4688 85.3747 30.6644C84.7404 30.893 84.2313 31.3172 83.8496 31.9371C83.4666 32.5569 83.2754 33.2745 83.2754 34.0898C83.2754 35.3955 83.7639 36.3743 84.7404 37.0265C85.1794 37.3199 85.79 37.5074 86.572 37.5895C86.8159 37.606 87.4666 37.6131 88.5248 37.6131H95.4102V30.9089C95.4102 29.849 95.3199 29.0415 95.1413 28.4864C94.7179 27.1814 93.9532 26.3495 92.8462 25.9913C92.2278 25.7951 91.1623 25.6973 89.6478 25.6973H84.1297V28.242H89.6478C90.6241 28.242 91.2836 28.3886 91.6258 28.682C91.9671 28.9761 92.1379 29.5391 92.1379 30.3703ZM88.354 32.9157H92.1379V35.0691H88.354C87.1975 35.0691 86.6201 34.7191 86.6201 34.0165C86.6201 33.4622 86.8562 33.1199 87.3282 32.9884C87.5074 32.9401 87.849 32.9157 88.354 32.9157Z" fill="white" fill-opacity="1"/>
<path d="M98.4619 25.6973H104.761C105.607 25.6973 106.234 25.7382 106.641 25.8195C107.276 25.9504 107.821 26.2272 108.277 26.6514C109.107 27.418 109.522 28.6259 109.522 30.2732V37.6139H106.25V29.9058C106.25 28.797 105.689 28.2426 104.566 28.2426H101.733V37.6139H98.4619V25.6973Z" fill="white" fill-opacity="1"/>
<path d="M122.486 25.6973V28.2426H118.581C117.36 28.2426 116.477 28.5109 115.931 29.0494C115.386 29.588 115.113 30.4529 115.113 31.6437C115.113 33.0954 115.618 34.0984 116.627 34.6529C117.116 34.9305 117.888 35.0692 118.947 35.0692H122.486V37.6139H118.019C116.83 37.6139 115.882 37.4917 115.175 37.2471C114.466 37.0021 113.844 36.5778 113.307 35.9744C112.281 34.8333 111.769 33.3802 111.769 31.6186C111.769 29.4981 112.379 27.9162 113.599 26.8715C114.511 26.0884 115.984 25.6973 118.019 25.6973H122.486Z" fill="white" fill-opacity="1"/>
<path d="M127.834 21.2925V25.6973H131.179C132.969 25.6973 134.231 26.0561 134.963 26.7737C135.696 27.492 136.062 28.6259 136.062 30.1754V37.614H132.79V30.8362C132.79 29.7756 132.639 29.0778 132.338 28.7435C132.037 28.4098 131.415 28.2426 130.47 28.2426H127.834V37.614H124.562V21.2925H127.834Z" fill="white" fill-opacity="1"/>
<path fill-rule="evenodd" clip-rule="evenodd" d="M147.122 30.3706H143.118C141.832 30.3706 140.912 30.469 140.359 30.6646C139.724 30.8933 139.215 31.3175 138.833 31.9373C138.451 32.5571 138.26 33.2747 138.26 34.0901C138.26 35.3958 138.747 36.3746 139.724 37.0267C140.163 37.3202 140.774 37.5077 141.555 37.5897C141.8 37.6062 142.45 37.6133 143.509 37.6133H150.394V30.9091C150.394 29.8492 150.304 29.0417 150.125 28.4867C149.702 27.1816 148.937 26.3497 147.83 25.9916C147.211 25.7953 146.146 25.6975 144.632 25.6975H139.114V28.2422H144.632C145.608 28.2422 146.268 28.3889 146.609 28.6823C146.951 28.9763 147.122 29.5393 147.122 30.3706ZM143.338 32.9159H147.122V35.0693H143.338C142.182 35.0693 141.604 34.7193 141.604 34.0167C141.604 33.4624 141.84 33.1201 142.312 32.9886C142.492 32.9404 142.833 32.9159 143.338 32.9159Z" fill="white" fill-opacity="1"/>
<mask id="mask0_27_1511" style="mask-type:alpha" maskUnits="userSpaceOnUse" x="22" y="11" width="149" height="37">
<path fill-rule="evenodd" clip-rule="evenodd" d="M22 47.9062H171V11H22V47.9062Z" fill="white"/>
</mask>
<g mask="url(#mask0_27_1511)">
<path fill-rule="evenodd" clip-rule="evenodd" d="M156.718 24.4735H153.445V21.2925H156.718V24.4735ZM156.718 37.614H153.445V25.6973H156.718V37.614Z" fill="white" fill-opacity="1"/>
</g>
<path d="M159.939 25.6973H166.239C167.085 25.6973 167.712 25.7382 168.119 25.8195C168.754 25.9504 169.299 26.2272 169.755 26.6514C170.585 27.418 171 28.6259 171 30.2732V37.6139H167.728V29.9058C167.728 28.797 167.167 28.2426 166.044 28.2426H163.212V37.6139H159.939V25.6973Z" fill="white" fill-opacity="1"/>
</svg>
